<?xml version="1.0" encoding="UTF-8" standalone="no"?>
<!DOCTYPE svg PUBLIC "-//W3C//DTD SVG 1.1//EN"
 "http://www.w3.org/Graphics/SVG/1.1/DTD/svg11.dtd">
<!-- Generated by graphviz version 2.38.0 (20140413.2041)
 -->
<!-- Title: Config.h Pages: 1 -->
<!--zoomable 308 -->
<svg id="main" version="1.1" xmlns="http://www.w3.org/2000/svg" xmlns:xlink="http://www.w3.org/1999/xlink" xml:space="preserve" onload="init(evt)">
<style type="text/css"><![CDATA[
.edge:hover path { stroke: red; }
.edge:hover polygon { stroke: red; fill: red; }
]]></style>
<script type="text/javascript"><![CDATA[
var edges = document.getElementsByTagName('g');
if (edges && edges.length) {
  for (var i=0;i<edges.length;i++) {
    if (edges[i].id.substr(0,4)=='edge') {
      edges[i].setAttribute('class','edge');
    }
  }
}
]]></script>
        <defs>
                <circle id="rim" cx="0" cy="0" r="7"/>
                <circle id="rim2" cx="0" cy="0" r="3.5"/>
                <g id="zoomPlus">
                        <use xlink:href="#rim" fill="#404040">
                                <set attributeName="fill" to="#808080" begin="zoomplus.mouseover" end="zoomplus.mouseout"/>
                        </use>
                        <path d="M-4,0h8M0,-4v8" fill="none" stroke="white" stroke-width="1.5" pointer-events="none"/>
                </g>
                <g id="zoomMin">
                        <use xlink:href="#rim" fill="#404040">
                                <set attributeName="fill" to="#808080" begin="zoomminus.mouseover" end="zoomminus.mouseout"/>
                        </use>
                        <path d="M-4,0h8" fill="none" stroke="white" stroke-width="1.5" pointer-events="none"/>
                </g>
                <g id="dirArrow">
                        <path fill="none" stroke="white" stroke-width="1.5" d="M0,-3.0v7 M-2.5,-0.5L0,-3.0L2.5,-0.5"/>
                </g>
               <g id="resetDef">
                       <use xlink:href="#rim2" fill="#404040">
                               <set attributeName="fill" to="#808080" begin="reset.mouseover" end="reset.mouseout"/>
                       </use>
               </g>
        </defs>

<script type="text/javascript">
var viewWidth = 1065;
var viewHeight = 308;
var sectionId = 'dynsection-1';
</script>
<script xlink:href="svgpan.js"/>
<svg id="graph" class="graph">
<g id="viewport">
<title>Config.h</title>
<!-- Node1 -->
<g id="node1" class="node"><title>Node1</title>
<polygon fill="#bfbfbf" stroke="black" points="585.5,-280.5 585.5,-299.5 638.5,-299.5 638.5,-280.5 585.5,-280.5"/>
<text text-anchor="middle" x="612" y="-287.5" font-family="Helvetica,sans-Serif" font-size="10.00">Config.h</text>
</g>
<!-- Node2 -->
<g id="node2" class="node"><title>Node2</title>
<g id="a_node2"><a xlink:href="_evaluate_8h.html" target="_top" xlink:title="Evaluate helper template function implementation. ">
<polygon fill="none" stroke="black" points="234.5,-0.5 234.5,-19.5 297.5,-19.5 297.5,-0.5 234.5,-0.5"/>
<text text-anchor="middle" x="266" y="-7.5" font-family="Helvetica,sans-Serif" font-size="10.00">Evaluate.h</text>
</a>
</g>
</g>
<!-- Node1&#45;&gt;Node2 -->
<g id="edge1" class="edge"><title>Node1&#45;&gt;Node2</title>
<path fill="none" stroke="midnightblue" d="M575.167,-286.34C479.045,-278.395 228,-250.772 228,-179 228,-179 228,-179 228,-121 228,-81.3989 250.275,-37.957 260.716,-19.769"/>
<polygon fill="midnightblue" stroke="midnightblue" points="575.055,-289.843 585.303,-287.152 575.614,-282.865 575.055,-289.843"/>
</g>
<!-- Node3 -->
<g id="node3" class="node"><title>Node3</title>
<g id="a_node3"><a xlink:href="_vector3_r_8h.html" target="_top" xlink:title="Vector3R.h">
<polygon fill="none" stroke="black" points="476,-224.5 476,-243.5 542,-243.5 542,-224.5 476,-224.5"/>
<text text-anchor="middle" x="509" y="-231.5" font-family="Helvetica,sans-Serif" font-size="10.00">Vector3R.h</text>
</a>
</g>
</g>
<!-- Node1&#45;&gt;Node3 -->
<g id="edge2" class="edge"><title>Node1&#45;&gt;Node3</title>
<path fill="none" stroke="midnightblue" d="M586.421,-275.59C567.377,-265.605 541.936,-252.267 525.508,-243.655"/>
<polygon fill="midnightblue" stroke="midnightblue" points="584.969,-278.78 595.451,-280.324 588.22,-272.581 584.969,-278.78"/>
</g>
<!-- Node4 -->
<g id="node4" class="node"><title>Node4</title>
<g id="a_node4"><a xlink:href="_vector4_r_8h.html" target="_top" xlink:title="Vector4R.h">
<polygon fill="none" stroke="black" points="346,-168.5 346,-187.5 412,-187.5 412,-168.5 346,-168.5"/>
<text text-anchor="middle" x="379" y="-175.5" font-family="Helvetica,sans-Serif" font-size="10.00">Vector4R.h</text>
</a>
</g>
</g>
<!-- Node1&#45;&gt;Node4 -->
<g id="edge32" class="edge"><title>Node1&#45;&gt;Node4</title>
<path fill="none" stroke="midnightblue" d="M575.293,-287.551C535.454,-284.384 471.456,-274.506 426,-244 404.492,-229.566 389.427,-201.794 382.796,-187.684"/>
<polygon fill="midnightblue" stroke="midnightblue" points="575.146,-291.049 585.364,-288.249 575.63,-284.066 575.146,-291.049"/>
</g>
<!-- Node5 -->
<g id="node5" class="node"><title>Node5</title>
<g id="a_node5"><a xlink:href="_g_containers_8h.html" target="_top" xlink:title="Typedef for useful container classes used in MCBooster. ">
<polygon fill="none" stroke="black" points="370,-112.5 370,-131.5 450,-131.5 450,-112.5 370,-112.5"/>
<text text-anchor="middle" x="410" y="-119.5" font-family="Helvetica,sans-Serif" font-size="10.00">GContainers.h</text>
</a>
</g>
</g>
<!-- Node1&#45;&gt;Node5 -->
<g id="edge33" class="edge"><title>Node1&#45;&gt;Node5</title>
<path fill="none" stroke="midnightblue" d="M575.082,-285.836C543.122,-281.329 497.379,-270.416 467,-244 431.078,-212.764 416.136,-153.963 411.608,-131.774"/>
<polygon fill="midnightblue" stroke="midnightblue" points="574.991,-289.352 585.351,-287.131 575.868,-282.407 574.991,-289.352"/>
</g>
<!-- Node6 -->
<g id="node6" class="node"><title>Node6</title>
<g id="a_node6"><a xlink:href="_calculate_8h.html" target="_top" xlink:title="Calculate.h">
<polygon fill="none" stroke="black" points="134,-56.5 134,-75.5 200,-75.5 200,-56.5 134,-56.5"/>
<text text-anchor="middle" x="167" y="-63.5" font-family="Helvetica,sans-Serif" font-size="10.00">Calculate.h</text>
</a>
</g>
</g>
<!-- Node1&#45;&gt;Node6 -->
<g id="edge34" class="edge"><title>Node1&#45;&gt;Node6</title>
<path fill="none" stroke="midnightblue" d="M575.241,-287.182C481.889,-282.239 241.115,-267.345 214,-244 162.198,-199.399 164.256,-104.869 166.244,-75.7339"/>
<polygon fill="midnightblue" stroke="midnightblue" points="575.189,-290.684 585.357,-287.709 575.553,-283.693 575.189,-290.684"/>
</g>
<!-- Node7 -->
<g id="node7" class="node"><title>Node7</title>
<g id="a_node7"><a xlink:href="_evaluate_array_8h.html" target="_top" xlink:title="Evaluate helper template function implementation. ">
<polygon fill="none" stroke="black" points="63,-0.5 63,-19.5 149,-19.5 149,-0.5 63,-0.5"/>
<text text-anchor="middle" x="106" y="-7.5" font-family="Helvetica,sans-Serif" font-size="10.00">EvaluateArray.h</text>
</a>
</g>
</g>
<!-- Node1&#45;&gt;Node7 -->
<g id="edge35" class="edge"><title>Node1&#45;&gt;Node7</title>
<path fill="none" stroke="midnightblue" d="M575.278,-286.317C443.188,-276.181 0,-237.794 0,-179 0,-179 0,-179 0,-121 0,-71.1404 57.1665,-35.1884 87.5362,-19.6068"/>
<polygon fill="midnightblue" stroke="midnightblue" points="575.073,-289.811 585.31,-287.078 575.603,-282.831 575.073,-289.811"/>
</g>
<!-- Node8 -->
<g id="node8" class="node"><title>Node8</title>
<g id="a_node8"><a xlink:href="_decay_mother_8h.html" target="_top" xlink:title="DecayMother.h">
<polygon fill="none" stroke="black" points="644.5,-56.5 644.5,-75.5 727.5,-75.5 727.5,-56.5 644.5,-56.5"/>
<text text-anchor="middle" x="686" y="-63.5" font-family="Helvetica,sans-Serif" font-size="10.00">DecayMother.h</text>
</a>
</g>
</g>
<!-- Node1&#45;&gt;Node8 -->
<g id="edge36" class="edge"><title>Node1&#45;&gt;Node8</title>
<path fill="none" stroke="midnightblue" d="M648.721,-287.127C678.747,-283.427 719.476,-272.971 740,-244 773.914,-196.129 764.884,-165.128 740,-112 732.339,-95.644 715.488,-83.1593 702.633,-75.5364"/>
<polygon fill="midnightblue" stroke="midnightblue" points="648.184,-283.664 638.597,-288.173 648.904,-290.627 648.184,-283.664"/>
</g>
<!-- Node9 -->
<g id="node9" class="node"><title>Node9</title>
<g id="a_node9"><a xlink:href="_generate_8h.html" target="_top" xlink:title="Implements the struct Events and the class PhaseSpace. ">
<polygon fill="none" stroke="black" points="723.5,-0.5 723.5,-19.5 788.5,-19.5 788.5,-0.5 723.5,-0.5"/>
<text text-anchor="middle" x="756" y="-7.5" font-family="Helvetica,sans-Serif" font-size="10.00">Generate.h</text>
</a>
</g>
</g>
<!-- Node1&#45;&gt;Node9 -->
<g id="edge43" class="edge"><title>Node1&#45;&gt;Node9</title>
<path fill="none" stroke="midnightblue" d="M649.135,-289.845C722.287,-289.376 878,-276.882 878,-179 878,-179 878,-179 878,-121 878,-90.9022 878.883,-78.5951 859,-56 840.823,-35.344 811.423,-23.7906 788.677,-17.579"/>
<polygon fill="midnightblue" stroke="midnightblue" points="648.973,-286.345 638.969,-289.836 648.966,-293.345 648.973,-286.345"/>
</g>
<!-- Node10 -->
<g id="node10" class="node"><title>Node10</title>
<g id="a_node10"><a xlink:href="_decay_mothers_8h.html" target="_top" xlink:title="DecayMothers.h">
<polygon fill="none" stroke="black" points="484.5,-56.5 484.5,-75.5 573.5,-75.5 573.5,-56.5 484.5,-56.5"/>
<text text-anchor="middle" x="529" y="-63.5" font-family="Helvetica,sans-Serif" font-size="10.00">DecayMothers.h</text>
</a>
</g>
</g>
<!-- Node1&#45;&gt;Node10 -->
<g id="edge37" class="edge"><title>Node1&#45;&gt;Node10</title>
<path fill="none" stroke="midnightblue" d="M626.104,-272.568C652.845,-239.332 705.069,-162.964 668,-112 646.59,-82.5641 605.507,-71.989 573.533,-68.3792"/>
<polygon fill="midnightblue" stroke="midnightblue" points="623.305,-270.459 619.627,-280.395 628.698,-274.922 623.305,-270.459"/>
</g>
<!-- Node11 -->
<g id="node11" class="node"><title>Node11</title>
<g id="a_node11"><a xlink:href="_rand_gen_8h.html" target="_top" xlink:title="RandGen.h">
<polygon fill="none" stroke="black" points="784,-56.5 784,-75.5 850,-75.5 850,-56.5 784,-56.5"/>
<text text-anchor="middle" x="817" y="-63.5" font-family="Helvetica,sans-Serif" font-size="10.00">RandGen.h</text>
</a>
</g>
</g>
<!-- Node1&#45;&gt;Node11 -->
<g id="edge42" class="edge"><title>Node1&#45;&gt;Node11</title>
<path fill="none" stroke="midnightblue" d="M648.811,-286.112C681.613,-281.786 729.212,-270.982 761,-244 803.279,-208.113 803.037,-185.92 816,-132 820.749,-112.248 819.314,-88.1372 818.043,-75.5623"/>
<polygon fill="midnightblue" stroke="midnightblue" points="648.242,-282.655 638.72,-287.301 649.061,-289.607 648.242,-282.655"/>
</g>
<!-- Node12 -->
<g id="node12" class="node"><title>Node12</title>
<g id="a_node12"><a xlink:href="_g_functional_8h.html" target="_top" xlink:title="Implements the template functors IFunction and IFunctionArray. ">
<polygon fill="none" stroke="black" points="582.5,-112.5 582.5,-131.5 659.5,-131.5 659.5,-112.5 582.5,-112.5"/>
<text text-anchor="middle" x="621" y="-119.5" font-family="Helvetica,sans-Serif" font-size="10.00">GFunctional.h</text>
</a>
</g>
</g>
<!-- Node1&#45;&gt;Node12 -->
<g id="edge44" class="edge"><title>Node1&#45;&gt;Node12</title>
<path fill="none" stroke="midnightblue" d="M613.034,-269.93C614.986,-233.92 619.144,-157.231 620.535,-131.568"/>
<polygon fill="midnightblue" stroke="midnightblue" points="609.53,-269.9 612.484,-280.075 616.52,-270.279 609.53,-269.9"/>
</g>
<!-- Node13 -->
<g id="node13" class="node"><title>Node13</title>
<g id="a_node13"><a xlink:href="_flag_accept_reject_8h.html" target="_top" xlink:title="Implements FlagAcceptReject. ">
<polygon fill="none" stroke="black" points="906.5,-168.5 906.5,-187.5 1009.5,-187.5 1009.5,-168.5 906.5,-168.5"/>
<text text-anchor="middle" x="958" y="-175.5" font-family="Helvetica,sans-Serif" font-size="10.00">FlagAcceptReject.h</text>
</a>
</g>
</g>
<!-- Node1&#45;&gt;Node13 -->
<g id="edge38" class="edge"><title>Node1&#45;&gt;Node13</title>
<path fill="none" stroke="midnightblue" d="M649.004,-285.865C715.011,-279.813 850.076,-265.22 892,-244 918.689,-230.491 941.436,-202.299 951.881,-187.892"/>
<polygon fill="midnightblue" stroke="midnightblue" points="648.296,-282.414 638.65,-286.796 648.923,-289.386 648.296,-282.414"/>
</g>
<!-- Node14 -->
<g id="node14" class="node"><title>Node14</title>
<g id="a_node14"><a xlink:href="_is_accepted_8h.html" target="_top" xlink:title="Implements isAccepted. ">
<polygon fill="none" stroke="black" points="983,-224.5 983,-243.5 1057,-243.5 1057,-224.5 983,-224.5"/>
<text text-anchor="middle" x="1020" y="-231.5" font-family="Helvetica,sans-Serif" font-size="10.00">IsAccepted.h</text>
</a>
</g>
</g>
<!-- Node1&#45;&gt;Node14 -->
<g id="edge40" class="edge"><title>Node1&#45;&gt;Node14</title>
<path fill="none" stroke="midnightblue" d="M649.016,-284.101C726.534,-273.841 905.168,-250.198 982.824,-239.92"/>
<polygon fill="midnightblue" stroke="midnightblue" points="648.224,-280.675 638.77,-285.457 649.143,-287.614 648.224,-280.675"/>
</g>
<!-- Node3&#45;&gt;Node2 -->
<g id="edge3" class="edge"><title>Node3&#45;&gt;Node2</title>
<path fill="none" stroke="midnightblue" d="M465.712,-231.527C427.939,-228.133 373.594,-217.903 337,-188 281.878,-142.957 269.265,-48.7276 266.638,-19.6999"/>
<polygon fill="midnightblue" stroke="midnightblue" points="465.659,-235.033 475.899,-232.313 466.198,-228.054 465.659,-235.033"/>
</g>
<!-- Node3&#45;&gt;Node4 -->
<g id="edge4" class="edge"><title>Node3&#45;&gt;Node4</title>
<path fill="none" stroke="midnightblue" d="M478.915,-220.503C454.543,-210.38 420.86,-196.388 399.503,-187.516"/>
<polygon fill="midnightblue" stroke="midnightblue" points="477.823,-223.84 488.401,-224.444 480.509,-217.375 477.823,-223.84"/>
</g>
<!-- Node3&#45;&gt;Node5 -->
<g id="edge25" class="edge"><title>Node3&#45;&gt;Node5</title>
<path fill="none" stroke="midnightblue" d="M495.678,-216.603C484.731,-203.29 468.689,-184.145 454,-168 442.235,-155.069 427.989,-140.723 418.959,-131.783"/>
<polygon fill="midnightblue" stroke="midnightblue" points="493.03,-218.894 502.07,-224.419 498.449,-214.462 493.03,-218.894"/>
</g>
<!-- Node3&#45;&gt;Node6 -->
<g id="edge26" class="edge"><title>Node3&#45;&gt;Node6</title>
<path fill="none" stroke="midnightblue" d="M465.583,-229.421C401.854,-223.503 286.771,-210.085 252,-188 207.359,-159.646 179.523,-98.5739 170.352,-75.7994"/>
<polygon fill="midnightblue" stroke="midnightblue" points="465.451,-232.924 475.726,-230.34 466.083,-225.952 465.451,-232.924"/>
</g>
<!-- Node3&#45;&gt;Node7 -->
<g id="edge27" class="edge"><title>Node3&#45;&gt;Node7</title>
<path fill="none" stroke="midnightblue" d="M465.643,-233.98C407.62,-233.598 302.885,-226.883 224,-188 160.291,-156.597 138.893,-140.886 110,-76 101.722,-57.4089 103.107,-32.8265 104.659,-19.8693"/>
<polygon fill="midnightblue" stroke="midnightblue" points="465.915,-237.48 475.917,-233.984 465.918,-230.48 465.915,-237.48"/>
</g>
<!-- Node3&#45;&gt;Node8 -->
<g id="edge28" class="edge"><title>Node3&#45;&gt;Node8</title>
<path fill="none" stroke="midnightblue" d="M542.221,-220.475C578.494,-205.105 635.708,-175.597 668,-132 680.684,-114.875 684.431,-89.2464 685.537,-75.8609"/>
<polygon fill="midnightblue" stroke="midnightblue" points="540.503,-217.397 532.584,-224.436 543.164,-223.872 540.503,-217.397"/>
</g>
<!-- Node3&#45;&gt;Node9 -->
<g id="edge30" class="edge"><title>Node3&#45;&gt;Node9</title>
<path fill="none" stroke="midnightblue" d="M552.064,-222.517C576.972,-215.233 608.194,-203.944 633,-188 689.889,-151.434 703.367,-135.233 736,-76 746.255,-57.3858 751.977,-32.8128 754.47,-19.8631"/>
<polygon fill="midnightblue" stroke="midnightblue" points="550.841,-219.225 542.161,-225.301 552.735,-225.964 550.841,-219.225"/>
</g>
<!-- Node3&#45;&gt;Node10 -->
<g id="edge29" class="edge"><title>Node3&#45;&gt;Node10</title>
<path fill="none" stroke="midnightblue" d="M511.298,-213.93C515.636,-177.92 524.876,-101.231 527.968,-75.5681"/>
<polygon fill="midnightblue" stroke="midnightblue" points="507.797,-213.728 510.075,-224.075 514.746,-214.566 507.797,-213.728"/>
</g>
<!-- Node3&#45;&gt;Node12 -->
<g id="edge31" class="edge"><title>Node3&#45;&gt;Node12</title>
<path fill="none" stroke="midnightblue" d="M525.082,-217.205C549.089,-193.627 593.479,-150.029 612.252,-131.591"/>
<polygon fill="midnightblue" stroke="midnightblue" points="522.47,-214.864 517.788,-224.368 527.375,-219.858 522.47,-214.864"/>
</g>
<!-- Node4&#45;&gt;Node2 -->
<g id="edge5" class="edge"><title>Node4&#45;&gt;Node2</title>
<path fill="none" stroke="midnightblue" d="M358.943,-162.244C348.813,-154.106 336.831,-143.363 328,-132 298.596,-94.1661 276.84,-40.2497 269.091,-19.5465"/>
<polygon fill="midnightblue" stroke="midnightblue" points="356.862,-165.058 366.908,-168.423 361.153,-159.528 356.862,-165.058"/>
</g>
<!-- Node4&#45;&gt;Node5 -->
<g id="edge6" class="edge"><title>Node4&#45;&gt;Node5</title>
<path fill="none" stroke="midnightblue" d="M389.176,-159.275C394.474,-150.045 400.717,-139.17 404.976,-131.751"/>
<polygon fill="midnightblue" stroke="midnightblue" points="386.062,-157.668 384.119,-168.083 392.133,-161.153 386.062,-157.668"/>
</g>
<!-- Node4&#45;&gt;Node6 -->
<g id="edge19" class="edge"><title>Node4&#45;&gt;Node6</title>
<path fill="none" stroke="midnightblue" d="M352.723,-163.87C334.969,-154.96 311.023,-142.869 290,-132 251.381,-112.035 206.261,-88.0106 182.874,-75.5059"/>
<polygon fill="midnightblue" stroke="midnightblue" points="351.383,-167.113 361.892,-168.464 354.519,-160.855 351.383,-167.113"/>
</g>
<!-- Node4&#45;&gt;Node7 -->
<g id="edge20" class="edge"><title>Node4&#45;&gt;Node7</title>
<path fill="none" stroke="midnightblue" d="M335.725,-171.978C278.815,-163.021 179.656,-138.887 125,-76 110.809,-59.6722 107.202,-33.2365 106.296,-19.658"/>
<polygon fill="midnightblue" stroke="midnightblue" points="335.434,-175.473 345.84,-173.48 336.462,-168.549 335.434,-175.473"/>
</g>
<!-- Node4&#45;&gt;Node8 -->
<g id="edge21" class="edge"><title>Node4&#45;&gt;Node8</title>
<path fill="none" stroke="midnightblue" d="M412.586,-164.966C475.034,-142.59 607.599,-95.0916 661.969,-75.6104"/>
<polygon fill="midnightblue" stroke="midnightblue" points="411.068,-161.792 402.834,-168.46 413.429,-168.382 411.068,-161.792"/>
</g>
<!-- Node4&#45;&gt;Node9 -->
<g id="edge23" class="edge"><title>Node4&#45;&gt;Node9</title>
<path fill="none" stroke="midnightblue" d="M367.24,-159.336C359.812,-145.794 352.997,-126.954 361,-112 382.172,-72.4401 403.1,-72.0516 445,-56 541.541,-19.0157 665.567,-12.1279 723.489,-11.0451"/>
<polygon fill="midnightblue" stroke="midnightblue" points="364.386,-161.38 372.553,-168.129 370.377,-157.76 364.386,-161.38"/>
</g>
<!-- Node4&#45;&gt;Node10 -->
<g id="edge22" class="edge"><title>Node4&#45;&gt;Node10</title>
<path fill="none" stroke="midnightblue" d="M406.201,-163.746C422.152,-155.482 442.37,-144.135 459,-132 483.382,-114.208 508.476,-88.8611 520.946,-75.6939"/>
<polygon fill="midnightblue" stroke="midnightblue" points="404.224,-160.825 396.892,-168.473 407.393,-167.066 404.224,-160.825"/>
</g>
<!-- Node4&#45;&gt;Node12 -->
<g id="edge24" class="edge"><title>Node4&#45;&gt;Node12</title>
<path fill="none" stroke="midnightblue" d="M422.023,-167.4C467.62,-157.225 538.954,-141.308 582.679,-131.551"/>
<polygon fill="midnightblue" stroke="midnightblue" points="421.139,-164.011 412.142,-169.605 422.664,-170.843 421.139,-164.011"/>
</g>
<!-- Node5&#45;&gt;Node2 -->
<g id="edge7" class="edge"><title>Node5&#45;&gt;Node2</title>
<path fill="none" stroke="midnightblue" d="M409.976,-102.03C408.964,-87.7232 405.34,-68.4938 394,-56 369.223,-28.7034 326.904,-17.9637 297.75,-13.7388"/>
<polygon fill="midnightblue" stroke="midnightblue" points="406.485,-102.351 410.326,-112.225 413.481,-102.111 406.485,-102.351"/>
</g>
<!-- Node5&#45;&gt;Node6 -->
<g id="edge8" class="edge"><title>Node5&#45;&gt;Node6</title>
<path fill="none" stroke="midnightblue" d="M361.68,-110.262C313.875,-99.6388 241.98,-83.6623 200.248,-74.3884"/>
<polygon fill="midnightblue" stroke="midnightblue" points="360.975,-113.691 371.496,-112.444 362.493,-106.858 360.975,-113.691"/>
</g>
<!-- Node5&#45;&gt;Node7 -->
<g id="edge11" class="edge"><title>Node5&#45;&gt;Node7</title>
<path fill="none" stroke="midnightblue" d="M376.742,-108.966C314.904,-86.5904 183.635,-39.0916 129.796,-19.6104"/>
<polygon fill="midnightblue" stroke="midnightblue" points="375.804,-112.349 386.399,-112.46 378.186,-105.766 375.804,-112.349"/>
</g>
<!-- Node5&#45;&gt;Node8 -->
<g id="edge12" class="edge"><title>Node5&#45;&gt;Node8</title>
<path fill="none" stroke="midnightblue" d="M459.958,-111.226C512.761,-100.895 595.092,-84.7864 644.464,-75.1266"/>
<polygon fill="midnightblue" stroke="midnightblue" points="459.275,-107.793 450.133,-113.148 460.619,-114.663 459.275,-107.793"/>
</g>
<!-- Node5&#45;&gt;Node9 -->
<g id="edge18" class="edge"><title>Node5&#45;&gt;Node9</title>
<path fill="none" stroke="midnightblue" d="M421.972,-104.026C433.668,-88.8389 452.9,-67.2842 475,-56 517.902,-34.094 658.486,-19.4507 723.047,-13.7161"/>
<polygon fill="midnightblue" stroke="midnightblue" points="419.128,-101.986 415.992,-112.106 424.754,-106.15 419.128,-101.986"/>
</g>
<!-- Node5&#45;&gt;Node10 -->
<g id="edge14" class="edge"><title>Node5&#45;&gt;Node10</title>
<path fill="none" stroke="midnightblue" d="M438.137,-108.232C460.396,-98.1312 490.856,-84.3091 510.232,-75.5164"/>
<polygon fill="midnightblue" stroke="midnightblue" points="436.516,-105.124 428.856,-112.444 439.409,-111.498 436.516,-105.124"/>
</g>
<!-- Node5&#45;&gt;Node11 -->
<g id="edge16" class="edge"><title>Node5&#45;&gt;Node11</title>
<path fill="none" stroke="midnightblue" d="M460.248,-114.333C544.634,-103.137 712.567,-80.8559 783.81,-71.4036"/>
<polygon fill="midnightblue" stroke="midnightblue" points="459.591,-110.89 450.139,-115.674 460.512,-117.829 459.591,-110.89"/>
</g>
<!-- Node6&#45;&gt;Node2 -->
<g id="edge9" class="edge"><title>Node6&#45;&gt;Node2</title>
<path fill="none" stroke="midnightblue" d="M191.837,-51.4526C210.114,-41.4835 234.416,-28.2279 250.133,-19.6545"/>
<polygon fill="midnightblue" stroke="midnightblue" points="190.009,-48.4628 182.906,-56.324 193.361,-54.608 190.009,-48.4628"/>
</g>
<!-- Node6&#45;&gt;Node7 -->
<g id="edge10" class="edge"><title>Node6&#45;&gt;Node7</title>
<path fill="none" stroke="midnightblue" d="M149.533,-49.5372C138.656,-39.9087 125.056,-27.8694 115.979,-19.8339"/>
<polygon fill="midnightblue" stroke="midnightblue" points="147.392,-52.3162 157.199,-56.324 152.032,-47.0749 147.392,-52.3162"/>
</g>
<!-- Node8&#45;&gt;Node9 -->
<g id="edge13" class="edge"><title>Node8&#45;&gt;Node9</title>
<path fill="none" stroke="midnightblue" d="M705.314,-50.1008C717.912,-40.3824 733.928,-28.0269 744.549,-19.8339"/>
<polygon fill="midnightblue" stroke="midnightblue" points="703.027,-47.4446 697.247,-56.324 707.302,-52.9871 703.027,-47.4446"/>
</g>
<!-- Node10&#45;&gt;Node9 -->
<g id="edge15" class="edge"><title>Node10&#45;&gt;Node9</title>
<path fill="none" stroke="midnightblue" d="M574.834,-54.0967C618.81,-43.6355 684.13,-28.0968 723.148,-18.8151"/>
<polygon fill="midnightblue" stroke="midnightblue" points="573.887,-50.7242 564.969,-56.4435 575.507,-57.5342 573.887,-50.7242"/>
</g>
<!-- Node11&#45;&gt;Node9 -->
<g id="edge17" class="edge"><title>Node11&#45;&gt;Node9</title>
<path fill="none" stroke="midnightblue" d="M799.533,-49.5372C788.656,-39.9087 775.056,-27.8694 765.979,-19.8339"/>
<polygon fill="midnightblue" stroke="midnightblue" points="797.392,-52.3162 807.199,-56.324 802.032,-47.0749 797.392,-52.3162"/>
</g>
<!-- Node13&#45;&gt;Node9 -->
<g id="edge39" class="edge"><title>Node13&#45;&gt;Node9</title>
<path fill="none" stroke="midnightblue" d="M952.658,-158.36C944.13,-131.87 924.953,-83.5031 892,-56 862.309,-31.2197 818.51,-19.9403 788.696,-14.9033"/>
<polygon fill="midnightblue" stroke="midnightblue" points="949.408,-159.703 955.669,-168.249 956.104,-157.663 949.408,-159.703"/>
</g>
<!-- Node14&#45;&gt;Node9 -->
<g id="edge41" class="edge"><title>Node14&#45;&gt;Node9</title>
<path fill="none" stroke="midnightblue" d="M1022.78,-214.26C1023.97,-200.878 1023.96,-182.716 1018,-168 992.731,-105.595 973.288,-91.3705 916,-56 876.225,-31.4419 822.718,-19.9448 788.786,-14.8127"/>
<polygon fill="midnightblue" stroke="midnightblue" points="1019.3,-213.851 1021.59,-224.196 1026.25,-214.681 1019.3,-213.851"/>
</g>
</g>
</svg>
        <g id="navigator" transform="translate(0 0)" fill="#404254">
                <rect fill="#f2f5e9" fill-opacity="0.5" stroke="#606060" stroke-width=".5" x="0" y="0" width="60" height="60"/>
                <use id="zoomplus" xlink:href="#zoomPlus" x="17" y="9" onmousedown="handleZoom(evt,'in')"/>
                <use id="zoomminus" xlink:href="#zoomMin" x="42" y="9" onmousedown="handleZoom(evt,'out')"/>
                <use id="reset" xlink:href="#resetDef" x="30" y="36" onmousedown="handleReset()"/>
                <g id="arrowUp" xlink:href="#dirArrow" transform="translate(30 24)" onmousedown="handlePan(0,-1)">
                  <use xlink:href="#rim" fill="#404040">
                        <set attributeName="fill" to="#808080" begin="arrowUp.mouseover" end="arrowUp.mouseout"/>
                  </use>
                  <path fill="none" stroke="white" stroke-width="1.5" d="M0,-3.0v7 M-2.5,-0.5L0,-3.0L2.5,-0.5"/>
                </g>
                <g id="arrowRight" xlink:href="#dirArrow" transform="rotate(90) translate(36 -43)" onmousedown="handlePan(1,0)">
                  <use xlink:href="#rim" fill="#404040">
                        <set attributeName="fill" to="#808080" begin="arrowRight.mouseover" end="arrowRight.mouseout"/>
                  </use>
                  <path fill="none" stroke="white" stroke-width="1.5" d="M0,-3.0v7 M-2.5,-0.5L0,-3.0L2.5,-0.5"/>
                </g>
                <g id="arrowDown" xlink:href="#dirArrow" transform="rotate(180) translate(-30 -48)" onmousedown="handlePan(0,1)">
                  <use xlink:href="#rim" fill="#404040">
                        <set attributeName="fill" to="#808080" begin="arrowDown.mouseover" end="arrowDown.mouseout"/>
                  </use>
                  <path fill="none" stroke="white" stroke-width="1.5" d="M0,-3.0v7 M-2.5,-0.5L0,-3.0L2.5,-0.5"/>
                </g>
                <g id="arrowLeft" xlink:href="#dirArrow" transform="rotate(270) translate(-36 17)" onmousedown="handlePan(-1,0)">
                  <use xlink:href="#rim" fill="#404040">
                        <set attributeName="fill" to="#808080" begin="arrowLeft.mouseover" end="arrowLeft.mouseout"/>
                  </use>
                  <path fill="none" stroke="white" stroke-width="1.5" d="M0,-3.0v7 M-2.5,-0.5L0,-3.0L2.5,-0.5"/>
                </g>
        </g>
        <svg viewBox="0 0 15 15" width="100%" height="30px" preserveAspectRatio="xMaxYMin meet">
         <g id="arrow_out" transform="scale(0.3 0.3)">
          <a xlink:href="_config_8h__dep__incl_org.svg" target="_base">
           <rect id="button" ry="5" rx="5" y="6" x="6" height="38" width="38"
                fill="#f2f5e9" fill-opacity="0.5" stroke="#606060" stroke-width="1.0"/>
           <path id="arrow"
             d="M 11.500037,31.436501 C 11.940474,20.09759 22.043105,11.32322 32.158766,21.979434 L 37.068811,17.246167 C 37.068811,17.246167 37.088388,32 37.088388,32 L 22.160133,31.978069 C 22.160133,31.978069 26.997745,27.140456 26.997745,27.140456 C 18.528582,18.264221 13.291696,25.230495 11.500037,31.436501 z"
             style="fill:#404040;"/>
          </a>
         </g>
        </svg>
</svg>
