<?xml version="1.0" encoding="UTF-8" standalone="no"?>
<!DOCTYPE svg PUBLIC "-//W3C//DTD SVG 1.1//EN"
 "http://www.w3.org/Graphics/SVG/1.1/DTD/svg11.dtd">
<!-- Generated by graphviz version 2.38.0 (20140413.2041)
 -->
<!-- Title: EvaluateArray.h Pages: 1 -->
<svg width="870pt" height="386pt"
 viewBox="0.00 0.00 870.00 386.00" xmlns="http://www.w3.org/2000/svg" xmlns:xlink="http://www.w3.org/1999/xlink">
<g id="graph0" class="graph" transform="scale(1 1) rotate(0) translate(4 382)">
<title>EvaluateArray.h</title>
<!-- Node1 -->
<g id="node1" class="node"><title>Node1</title>
<polygon fill="#bfbfbf" stroke="black" points="204,-358.5 204,-377.5 290,-377.5 290,-358.5 204,-358.5"/>
<text text-anchor="middle" x="247" y="-365.5" font-family="Helvetica,sans-Serif" font-size="10.00">EvaluateArray.h</text>
</g>
<!-- Node2 -->
<g id="node2" class="node"><title>Node2</title>
<g id="a_node2"><a xlink:href="_config_8h.html" target="_top" xlink:title="mcbooster/Config.h">
<polygon fill="none" stroke="black" points="25,-67.5 25,-86.5 127,-86.5 127,-67.5 25,-67.5"/>
<text text-anchor="middle" x="76" y="-74.5" font-family="Helvetica,sans-Serif" font-size="10.00">mcbooster/Config.h</text>
</a>
</g>
</g>
<!-- Node1&#45;&gt;Node2 -->
<g id="edge1" class="edge"><title>Node1&#45;&gt;Node2</title>
<path fill="none" stroke="midnightblue" d="M203.976,-364.925C133.209,-358.947 0,-335.772 0,-246 0,-246 0,-246 0,-188 0,-148.276 33.9641,-112.504 56.4821,-93.1536"/>
<polygon fill="midnightblue" stroke="midnightblue" points="58.9755,-95.6337 64.4572,-86.5672 54.518,-90.2364 58.9755,-95.6337"/>
</g>
<!-- Node4 -->
<g id="node4" class="node"><title>Node4</title>
<g id="a_node4"><a xlink:href="_vector3_r_8h.html" target="_top" xlink:title="mcbooster/Vector3R.h">
<polygon fill="none" stroke="black" points="280.5,-123.5 280.5,-142.5 395.5,-142.5 395.5,-123.5 280.5,-123.5"/>
<text text-anchor="middle" x="338" y="-130.5" font-family="Helvetica,sans-Serif" font-size="10.00">mcbooster/Vector3R.h</text>
</a>
</g>
</g>
<!-- Node1&#45;&gt;Node4 -->
<g id="edge3" class="edge"><title>Node1&#45;&gt;Node4</title>
<path fill="none" stroke="midnightblue" d="M250.981,-358.436C255.127,-349.429 261.739,-334.812 267,-322 292.353,-260.262 319.462,-185.815 331.545,-152.126"/>
<polygon fill="midnightblue" stroke="midnightblue" points="334.848,-153.283 334.919,-142.688 328.257,-150.927 334.848,-153.283"/>
</g>
<!-- Node5 -->
<g id="node5" class="node"><title>Node5</title>
<g id="a_node5"><a xlink:href="_g_types_8h.html" target="_top" xlink:title="mcbooster/GTypes.h">
<polygon fill="none" stroke="black" points="408,-67.5 408,-86.5 516,-86.5 516,-67.5 408,-67.5"/>
<text text-anchor="middle" x="462" y="-74.5" font-family="Helvetica,sans-Serif" font-size="10.00">mcbooster/GTypes.h</text>
</a>
</g>
</g>
<!-- Node1&#45;&gt;Node5 -->
<g id="edge25" class="edge"><title>Node1&#45;&gt;Node5</title>
<path fill="none" stroke="midnightblue" d="M290.246,-367.693C430.233,-368.788 862,-362.707 862,-246 862,-246 862,-246 862,-188 862,-119.293 639.818,-91.899 526.634,-82.4015"/>
<polygon fill="midnightblue" stroke="midnightblue" points="526.614,-78.8883 516.362,-81.5636 526.044,-85.8651 526.614,-78.8883"/>
</g>
<!-- Node9 -->
<g id="node9" class="node"><title>Node9</title>
<g id="a_node9"><a xlink:href="_vector4_r_8h.html" target="_top" xlink:title="mcbooster/Vector4R.h">
<polygon fill="none" stroke="black" points="66.5,-179.5 66.5,-198.5 181.5,-198.5 181.5,-179.5 66.5,-179.5"/>
<text text-anchor="middle" x="124" y="-186.5" font-family="Helvetica,sans-Serif" font-size="10.00">mcbooster/Vector4R.h</text>
</a>
</g>
</g>
<!-- Node1&#45;&gt;Node9 -->
<g id="edge9" class="edge"><title>Node1&#45;&gt;Node9</title>
<path fill="none" stroke="midnightblue" d="M207.653,-358.488C186.834,-351.958 162.623,-340.763 148,-322 122.192,-288.884 120.829,-236.962 122.282,-209.134"/>
<polygon fill="midnightblue" stroke="midnightblue" points="125.798,-209.031 123.014,-198.808 118.815,-208.536 125.798,-209.031"/>
</g>
<!-- Node11 -->
<g id="node11" class="node"><title>Node11</title>
<g id="a_node11"><a xlink:href="_g_containers_8h.html" target="_top" xlink:title="Typedef for useful container classes used in MCBooster. ">
<polygon fill="none" stroke="black" points="344,-235.5 344,-254.5 472,-254.5 472,-235.5 344,-235.5"/>
<text text-anchor="middle" x="408" y="-242.5" font-family="Helvetica,sans-Serif" font-size="10.00">mcbooster/GContainers.h</text>
</a>
</g>
</g>
<!-- Node1&#45;&gt;Node11 -->
<g id="edge16" class="edge"><title>Node1&#45;&gt;Node11</title>
<path fill="none" stroke="midnightblue" d="M258.321,-358.492C285.392,-338.147 354.141,-286.478 388.224,-260.863"/>
<polygon fill="midnightblue" stroke="midnightblue" points="390.585,-263.467 396.476,-254.661 386.379,-257.871 390.585,-263.467"/>
</g>
<!-- Node16 -->
<g id="node16" class="node"><title>Node16</title>
<g id="a_node16"><a xlink:href="_calculate_8h.html" target="_top" xlink:title="mcbooster/functors\l/Calculate.h">
<polygon fill="none" stroke="black" points="157.5,-291.5 157.5,-321.5 258.5,-321.5 258.5,-291.5 157.5,-291.5"/>
<text text-anchor="start" x="165.5" y="-309.5" font-family="Helvetica,sans-Serif" font-size="10.00">mcbooster/functors</text>
<text text-anchor="middle" x="208" y="-298.5" font-family="Helvetica,sans-Serif" font-size="10.00">/Calculate.h</text>
</a>
</g>
</g>
<!-- Node1&#45;&gt;Node16 -->
<g id="edge26" class="edge"><title>Node1&#45;&gt;Node16</title>
<path fill="none" stroke="midnightblue" d="M241.412,-358.475C236.575,-351.094 229.353,-340.077 222.86,-330.171"/>
<polygon fill="midnightblue" stroke="midnightblue" points="225.601,-327.968 217.192,-321.523 219.746,-331.805 225.601,-327.968"/>
</g>
<!-- Node3 -->
<g id="node3" class="node"><title>Node3</title>
<polygon fill="none" stroke="#bfbfbf" points="27.5,-0.5 27.5,-30.5 124.5,-30.5 124.5,-0.5 27.5,-0.5"/>
<text text-anchor="start" x="35.5" y="-18.5" font-family="Helvetica,sans-Serif" font-size="10.00">thrust/detail/config</text>
<text text-anchor="middle" x="76" y="-7.5" font-family="Helvetica,sans-Serif" font-size="10.00">/host_device.h</text>
</g>
<!-- Node2&#45;&gt;Node3 -->
<g id="edge2" class="edge"><title>Node2&#45;&gt;Node3</title>
<path fill="none" stroke="midnightblue" d="M76,-67.4751C76,-60.471 76,-50.1919 76,-40.6956"/>
<polygon fill="midnightblue" stroke="midnightblue" points="79.5001,-40.5229 76,-30.523 72.5001,-40.523 79.5001,-40.5229"/>
</g>
<!-- Node4&#45;&gt;Node2 -->
<g id="edge4" class="edge"><title>Node4&#45;&gt;Node2</title>
<path fill="none" stroke="midnightblue" d="M296.485,-123.444C250.588,-113.984 176.62,-98.7384 127.174,-88.5472"/>
<polygon fill="midnightblue" stroke="midnightblue" points="127.821,-85.1072 117.32,-86.5164 126.408,-91.9631 127.821,-85.1072"/>
</g>
<!-- Node4&#45;&gt;Node5 -->
<g id="edge5" class="edge"><title>Node4&#45;&gt;Node5</title>
<path fill="none" stroke="midnightblue" d="M357.648,-123.444C377.965,-114.596 409.903,-100.687 433.098,-90.5865"/>
<polygon fill="midnightblue" stroke="midnightblue" points="434.673,-93.7181 442.444,-86.5164 431.878,-87.3002 434.673,-93.7181"/>
</g>
<!-- Node6 -->
<g id="node6" class="node"><title>Node6</title>
<polygon fill="none" stroke="#bfbfbf" points="315.5,-67.5 315.5,-86.5 360.5,-86.5 360.5,-67.5 315.5,-67.5"/>
<text text-anchor="middle" x="338" y="-74.5" font-family="Helvetica,sans-Serif" font-size="10.00">iosfwd</text>
</g>
<!-- Node4&#45;&gt;Node6 -->
<g id="edge6" class="edge"><title>Node4&#45;&gt;Node6</title>
<path fill="none" stroke="midnightblue" d="M338,-123.083C338,-116.006 338,-105.861 338,-96.9865"/>
<polygon fill="midnightblue" stroke="midnightblue" points="341.5,-96.751 338,-86.7511 334.5,-96.7511 341.5,-96.751"/>
</g>
<!-- Node7 -->
<g id="node7" class="node"><title>Node7</title>
<polygon fill="none" stroke="#bfbfbf" points="156,-67.5 156,-86.5 210,-86.5 210,-67.5 156,-67.5"/>
<text text-anchor="middle" x="183" y="-74.5" font-family="Helvetica,sans-Serif" font-size="10.00">iostream</text>
</g>
<!-- Node4&#45;&gt;Node7 -->
<g id="edge7" class="edge"><title>Node4&#45;&gt;Node7</title>
<path fill="none" stroke="midnightblue" d="M313.44,-123.444C287.477,-114.399 246.332,-100.064 217.203,-89.9158"/>
<polygon fill="midnightblue" stroke="midnightblue" points="218.04,-86.5013 207.445,-86.5164 215.737,-93.1116 218.04,-86.5013"/>
</g>
<!-- Node8 -->
<g id="node8" class="node"><title>Node8</title>
<polygon fill="none" stroke="#bfbfbf" points="236.5,-67.5 236.5,-86.5 283.5,-86.5 283.5,-67.5 236.5,-67.5"/>
<text text-anchor="middle" x="260" y="-74.5" font-family="Helvetica,sans-Serif" font-size="10.00">math.h</text>
</g>
<!-- Node4&#45;&gt;Node8 -->
<g id="edge8" class="edge"><title>Node4&#45;&gt;Node8</title>
<path fill="none" stroke="midnightblue" d="M325.468,-123.324C313.414,-114.979 294.973,-102.212 280.731,-92.3524"/>
<polygon fill="midnightblue" stroke="midnightblue" points="282.715,-89.469 272.501,-86.6545 278.731,-95.2243 282.715,-89.469"/>
</g>
<!-- Node9&#45;&gt;Node2 -->
<g id="edge10" class="edge"><title>Node9&#45;&gt;Node2</title>
<path fill="none" stroke="midnightblue" d="M117.431,-179.468C110.962,-170.723 101.178,-156.527 95,-143 88.1315,-127.961 83.0757,-109.831 79.9137,-96.5433"/>
<polygon fill="midnightblue" stroke="midnightblue" points="83.3086,-95.6866 77.7049,-86.6951 76.4783,-97.2187 83.3086,-95.6866"/>
</g>
<!-- Node9&#45;&gt;Node4 -->
<g id="edge15" class="edge"><title>Node9&#45;&gt;Node4</title>
<path fill="none" stroke="midnightblue" d="M157.909,-179.444C194.849,-170.122 254.054,-155.183 294.418,-144.997"/>
<polygon fill="midnightblue" stroke="midnightblue" points="295.41,-148.357 304.25,-142.516 293.697,-141.57 295.41,-148.357"/>
</g>
<!-- Node9&#45;&gt;Node5 -->
<g id="edge11" class="edge"><title>Node9&#45;&gt;Node5</title>
<path fill="none" stroke="midnightblue" d="M181.738,-183.296C252.236,-176.771 366.696,-163.418 404,-143 424.435,-131.815 441.277,-110.558 451.451,-95.3988"/>
<polygon fill="midnightblue" stroke="midnightblue" points="454.453,-97.2015 456.897,-86.8925 448.557,-93.4272 454.453,-97.2015"/>
</g>
<!-- Node9&#45;&gt;Node7 -->
<g id="edge13" class="edge"><title>Node9&#45;&gt;Node7</title>
<path fill="none" stroke="midnightblue" d="M131.268,-179.48C138.468,-170.743 149.478,-156.554 157,-143 165.293,-128.055 172.321,-109.916 176.971,-96.6008"/>
<polygon fill="midnightblue" stroke="midnightblue" points="180.421,-97.3211 180.293,-86.727 173.787,-95.0887 180.421,-97.3211"/>
</g>
<!-- Node9&#45;&gt;Node8 -->
<g id="edge12" class="edge"><title>Node9&#45;&gt;Node8</title>
<path fill="none" stroke="midnightblue" d="M134.672,-179.368C157.711,-160.733 212.36,-116.532 241.289,-93.1338"/>
<polygon fill="midnightblue" stroke="midnightblue" points="243.804,-95.6014 249.378,-86.5914 239.402,-90.1589 243.804,-95.6014"/>
</g>
<!-- Node10 -->
<g id="node10" class="node"><title>Node10</title>
<polygon fill="none" stroke="#bfbfbf" points="104,-123.5 104,-142.5 148,-142.5 148,-123.5 104,-123.5"/>
<text text-anchor="middle" x="126" y="-130.5" font-family="Helvetica,sans-Serif" font-size="10.00">cmath</text>
</g>
<!-- Node9&#45;&gt;Node10 -->
<g id="edge14" class="edge"><title>Node9&#45;&gt;Node10</title>
<path fill="none" stroke="midnightblue" d="M124.33,-179.083C124.592,-172.006 124.968,-161.861 125.297,-152.986"/>
<polygon fill="midnightblue" stroke="midnightblue" points="128.803,-152.874 125.676,-142.751 121.808,-152.615 128.803,-152.874"/>
</g>
<!-- Node11&#45;&gt;Node2 -->
<g id="edge17" class="edge"><title>Node11&#45;&gt;Node2</title>
<path fill="none" stroke="midnightblue" d="M390.618,-235.309C336.048,-208.024 167.893,-123.947 102.448,-91.2239"/>
<polygon fill="midnightblue" stroke="midnightblue" points="103.72,-87.9468 93.2102,-86.6051 100.589,-94.2078 103.72,-87.9468"/>
</g>
<!-- Node11&#45;&gt;Node4 -->
<g id="edge18" class="edge"><title>Node11&#45;&gt;Node4</title>
<path fill="none" stroke="midnightblue" d="M402.507,-235.368C391.006,-217.296 364.203,-175.176 349.014,-151.307"/>
<polygon fill="midnightblue" stroke="midnightblue" points="351.789,-149.149 343.467,-142.591 345.883,-152.907 351.789,-149.149"/>
</g>
<!-- Node11&#45;&gt;Node5 -->
<g id="edge21" class="edge"><title>Node11&#45;&gt;Node5</title>
<path fill="none" stroke="midnightblue" d="M438.247,-235.488C456.125,-228.726 477.3,-217.295 488,-199 507.44,-165.761 486.921,-119.762 472.862,-95.1576"/>
<polygon fill="midnightblue" stroke="midnightblue" points="475.857,-93.347 467.713,-86.57 469.854,-96.9465 475.857,-93.347"/>
</g>
<!-- Node11&#45;&gt;Node9 -->
<g id="edge19" class="edge"><title>Node11&#45;&gt;Node9</title>
<path fill="none" stroke="midnightblue" d="M362.999,-235.444C313.041,-225.944 232.399,-210.611 178.801,-200.42"/>
<polygon fill="midnightblue" stroke="midnightblue" points="179.268,-196.946 168.79,-198.516 177.96,-203.823 179.268,-196.946"/>
</g>
<!-- Node12 -->
<g id="node12" class="node"><title>Node12</title>
<polygon fill="none" stroke="#bfbfbf" points="536,-179.5 536,-198.5 580,-198.5 580,-179.5 536,-179.5"/>
<text text-anchor="middle" x="558" y="-186.5" font-family="Helvetica,sans-Serif" font-size="10.00">vector</text>
</g>
<!-- Node11&#45;&gt;Node12 -->
<g id="edge20" class="edge"><title>Node11&#45;&gt;Node12</title>
<path fill="none" stroke="midnightblue" d="M431.768,-235.444C457.336,-226.239 498.121,-211.556 526.382,-201.383"/>
<polygon fill="midnightblue" stroke="midnightblue" points="527.587,-204.669 535.81,-197.988 525.216,-198.082 527.587,-204.669"/>
</g>
<!-- Node13 -->
<g id="node13" class="node"><title>Node13</title>
<polygon fill="none" stroke="#bfbfbf" points="598.5,-179.5 598.5,-198.5 711.5,-198.5 711.5,-179.5 598.5,-179.5"/>
<text text-anchor="middle" x="655" y="-186.5" font-family="Helvetica,sans-Serif" font-size="10.00">thrust/device_vector.h</text>
</g>
<!-- Node11&#45;&gt;Node13 -->
<g id="edge22" class="edge"><title>Node11&#45;&gt;Node13</title>
<path fill="none" stroke="midnightblue" d="M447.138,-235.444C490.226,-226.023 559.559,-210.866 606.171,-200.675"/>
<polygon fill="midnightblue" stroke="midnightblue" points="607.024,-204.072 616.045,-198.516 605.528,-197.233 607.024,-204.072"/>
</g>
<!-- Node14 -->
<g id="node14" class="node"><title>Node14</title>
<polygon fill="none" stroke="#bfbfbf" points="730,-179.5 730,-198.5 834,-198.5 834,-179.5 730,-179.5"/>
<text text-anchor="middle" x="782" y="-186.5" font-family="Helvetica,sans-Serif" font-size="10.00">thrust/host_vector.h</text>
</g>
<!-- Node11&#45;&gt;Node14 -->
<g id="edge23" class="edge"><title>Node11&#45;&gt;Node14</title>
<path fill="none" stroke="midnightblue" d="M467.722,-235.481C528.56,-226.787 625.92,-212.833 719.806,-199.17"/>
<polygon fill="midnightblue" stroke="midnightblue" points="720.367,-202.625 729.758,-197.721 719.358,-195.698 720.367,-202.625"/>
</g>
<!-- Node15 -->
<g id="node15" class="node"><title>Node15</title>
<polygon fill="none" stroke="#bfbfbf" points="390.5,-179.5 390.5,-198.5 479.5,-198.5 479.5,-179.5 390.5,-179.5"/>
<text text-anchor="middle" x="435" y="-186.5" font-family="Helvetica,sans-Serif" font-size="10.00">thrust/complex.h</text>
</g>
<!-- Node11&#45;&gt;Node15 -->
<g id="edge24" class="edge"><title>Node11&#45;&gt;Node15</title>
<path fill="none" stroke="midnightblue" d="M412.459,-235.083C416.154,-227.691 421.523,-216.953 426.094,-207.811"/>
<polygon fill="midnightblue" stroke="midnightblue" points="429.283,-209.261 430.624,-198.751 423.022,-206.13 429.283,-209.261"/>
</g>
<!-- Node16&#45;&gt;Node2 -->
<g id="edge27" class="edge"><title>Node16&#45;&gt;Node2</title>
<path fill="none" stroke="midnightblue" d="M171.21,-291.48C134.699,-275.343 80.8443,-244.996 57,-199 39.7021,-165.632 55.3474,-120.661 66.6917,-96.015"/>
<polygon fill="midnightblue" stroke="midnightblue" points="69.9523,-97.3132 71.1816,-86.7899 63.6582,-94.2497 69.9523,-97.3132"/>
</g>
<!-- Node16&#45;&gt;Node4 -->
<g id="edge28" class="edge"><title>Node16&#45;&gt;Node4</title>
<path fill="none" stroke="midnightblue" d="M206.935,-291.202C205.823,-265.726 207.129,-212.055 234,-179 247.051,-162.946 266.931,-152.487 285.826,-145.737"/>
<polygon fill="midnightblue" stroke="midnightblue" points="287.167,-148.98 295.576,-142.535 284.983,-142.33 287.167,-148.98"/>
</g>
<!-- Node16&#45;&gt;Node5 -->
<g id="edge31" class="edge"><title>Node16&#45;&gt;Node5</title>
<path fill="none" stroke="midnightblue" d="M227.167,-291.414C259.042,-268.005 324.986,-219.643 381,-179 403.163,-162.918 413.446,-164.016 431,-143 442.51,-129.22 450.862,-110.446 455.977,-96.6166"/>
<polygon fill="midnightblue" stroke="midnightblue" points="459.419,-97.3709 459.383,-86.7761 452.805,-95.081 459.419,-97.3709"/>
</g>
<!-- Node16&#45;&gt;Node9 -->
<g id="edge29" class="edge"><title>Node16&#45;&gt;Node9</title>
<path fill="none" stroke="midnightblue" d="M197.7,-291.337C182.221,-270.054 153.009,-229.887 136.389,-207.035"/>
<polygon fill="midnightblue" stroke="midnightblue" points="139.017,-204.698 130.305,-198.669 133.356,-208.815 139.017,-204.698"/>
</g>
<!-- Node16&#45;&gt;Node11 -->
<g id="edge30" class="edge"><title>Node16&#45;&gt;Node11</title>
<path fill="none" stroke="midnightblue" d="M255.144,-291.475C290.1,-281.075 337.148,-267.078 369.774,-257.372"/>
<polygon fill="midnightblue" stroke="midnightblue" points="370.82,-260.713 379.407,-254.506 368.824,-254.003 370.82,-260.713"/>
</g>
</g>
</svg>
