<?xml version="1.0" encoding="UTF-8" standalone="no"?>
<!DOCTYPE svg PUBLIC "-//W3C//DTD SVG 1.1//EN"
 "http://www.w3.org/Graphics/SVG/1.1/DTD/svg11.dtd">
<!-- Generated by graphviz version 2.38.0 (20140413.2041)
 -->
<!-- Title: GTypes.h Pages: 1 -->
<svg width="1065pt" height="308pt"
 viewBox="0.00 0.00 1065.00 308.00" xmlns="http://www.w3.org/2000/svg" xmlns:xlink="http://www.w3.org/1999/xlink">
<g id="graph0" class="graph" transform="scale(1 1) rotate(0) translate(4 304)">
<title>GTypes.h</title>
<!-- Node1 -->
<g id="node1" class="node"><title>Node1</title>
<polygon fill="#bfbfbf" stroke="black" points="598.5,-280.5 598.5,-299.5 657.5,-299.5 657.5,-280.5 598.5,-280.5"/>
<text text-anchor="middle" x="628" y="-287.5" font-family="Helvetica,sans-Serif" font-size="10.00">GTypes.h</text>
</g>
<!-- Node2 -->
<g id="node2" class="node"><title>Node2</title>
<g id="a_node2"><a xlink:href="_vector3_r_8h.html" target="_top" xlink:title="Vector3R.h">
<polygon fill="none" stroke="black" points="367,-224.5 367,-243.5 433,-243.5 433,-224.5 367,-224.5"/>
<text text-anchor="middle" x="400" y="-231.5" font-family="Helvetica,sans-Serif" font-size="10.00">Vector3R.h</text>
</a>
</g>
</g>
<!-- Node1&#45;&gt;Node2 -->
<g id="edge1" class="edge"><title>Node1&#45;&gt;Node2</title>
<path fill="none" stroke="midnightblue" d="M588.426,-279.627C544.476,-269.218 474.311,-252.6 433.142,-242.849"/>
<polygon fill="midnightblue" stroke="midnightblue" points="587.656,-283.041 598.193,-281.94 589.269,-276.23 587.656,-283.041"/>
</g>
<!-- Node3 -->
<g id="node3" class="node"><title>Node3</title>
<g id="a_node3"><a xlink:href="_evaluate_8h.html" target="_top" xlink:title="Evaluate helper template function implementation. ">
<polygon fill="none" stroke="black" points="192.5,-0.5 192.5,-19.5 255.5,-19.5 255.5,-0.5 192.5,-0.5"/>
<text text-anchor="middle" x="224" y="-7.5" font-family="Helvetica,sans-Serif" font-size="10.00">Evaluate.h</text>
</a>
</g>
</g>
<!-- Node1&#45;&gt;Node3 -->
<g id="edge33" class="edge"><title>Node1&#45;&gt;Node3</title>
<path fill="none" stroke="midnightblue" d="M588.108,-287.24C486.23,-282.447 218.482,-267.899 133,-244 69.6371,-226.285 0,-244.793 0,-179 0,-179 0,-179 0,-121 0,-36.2998 130.636,-16.8145 192.381,-12.3352"/>
<polygon fill="midnightblue" stroke="midnightblue" points="588.134,-290.745 598.286,-287.712 588.459,-283.752 588.134,-290.745"/>
</g>
<!-- Node4 -->
<g id="node4" class="node"><title>Node4</title>
<g id="a_node4"><a xlink:href="_vector4_r_8h.html" target="_top" xlink:title="Vector4R.h">
<polygon fill="none" stroke="black" points="424,-168.5 424,-187.5 490,-187.5 490,-168.5 424,-168.5"/>
<text text-anchor="middle" x="457" y="-175.5" font-family="Helvetica,sans-Serif" font-size="10.00">Vector4R.h</text>
</a>
</g>
</g>
<!-- Node1&#45;&gt;Node4 -->
<g id="edge31" class="edge"><title>Node1&#45;&gt;Node4</title>
<path fill="none" stroke="midnightblue" d="M605.792,-274.714C569.758,-251.535 499.642,-206.43 470.356,-187.591"/>
<polygon fill="midnightblue" stroke="midnightblue" points="604.278,-277.902 614.582,-280.368 608.065,-272.015 604.278,-277.902"/>
</g>
<!-- Node5 -->
<g id="node5" class="node"><title>Node5</title>
<g id="a_node5"><a xlink:href="_g_containers_8h.html" target="_top" xlink:title="Typedef for useful container classes used in MCBooster. ">
<polygon fill="none" stroke="black" points="580,-112.5 580,-131.5 660,-131.5 660,-112.5 580,-112.5"/>
<text text-anchor="middle" x="620" y="-119.5" font-family="Helvetica,sans-Serif" font-size="10.00">GContainers.h</text>
</a>
</g>
</g>
<!-- Node1&#45;&gt;Node5 -->
<g id="edge32" class="edge"><title>Node1&#45;&gt;Node5</title>
<path fill="none" stroke="midnightblue" d="M627.081,-269.93C625.346,-233.92 621.65,-157.231 620.413,-131.568"/>
<polygon fill="midnightblue" stroke="midnightblue" points="623.592,-270.255 627.57,-280.075 630.584,-269.918 623.592,-270.255"/>
</g>
<!-- Node6 -->
<g id="node6" class="node"><title>Node6</title>
<g id="a_node6"><a xlink:href="_calculate_8h.html" target="_top" xlink:title="Calculate.h">
<polygon fill="none" stroke="black" points="268,-56.5 268,-75.5 334,-75.5 334,-56.5 268,-56.5"/>
<text text-anchor="middle" x="301" y="-63.5" font-family="Helvetica,sans-Serif" font-size="10.00">Calculate.h</text>
</a>
</g>
</g>
<!-- Node1&#45;&gt;Node6 -->
<g id="edge34" class="edge"><title>Node1&#45;&gt;Node6</title>
<path fill="none" stroke="midnightblue" d="M588.148,-285.895C517.302,-279.908 372.595,-265.438 327,-244 259.495,-212.261 232.423,-200.108 202,-132 188.08,-100.836 233.839,-82.7575 267.734,-73.8974"/>
<polygon fill="midnightblue" stroke="midnightblue" points="588.196,-289.411 598.451,-286.75 588.775,-282.435 588.196,-289.411"/>
</g>
<!-- Node7 -->
<g id="node7" class="node"><title>Node7</title>
<g id="a_node7"><a xlink:href="_evaluate_array_8h.html" target="_top" xlink:title="Evaluate helper template function implementation. ">
<polygon fill="none" stroke="black" points="274,-0.5 274,-19.5 360,-19.5 360,-0.5 274,-0.5"/>
<text text-anchor="middle" x="317" y="-7.5" font-family="Helvetica,sans-Serif" font-size="10.00">EvaluateArray.h</text>
</a>
</g>
</g>
<!-- Node1&#45;&gt;Node7 -->
<g id="edge35" class="edge"><title>Node1&#45;&gt;Node7</title>
<path fill="none" stroke="midnightblue" d="M588.218,-285.814C455.762,-274.679 38,-235.114 38,-179 38,-179 38,-179 38,-121 38,-70.9513 195.346,-34.0372 273.712,-18.7558"/>
<polygon fill="midnightblue" stroke="midnightblue" points="588.082,-289.314 598.337,-286.656 588.662,-282.338 588.082,-289.314"/>
</g>
<!-- Node8 -->
<g id="node8" class="node"><title>Node8</title>
<g id="a_node8"><a xlink:href="_decay_mother_8h.html" target="_top" xlink:title="DecayMother.h">
<polygon fill="none" stroke="black" points="504.5,-56.5 504.5,-75.5 587.5,-75.5 587.5,-56.5 504.5,-56.5"/>
<text text-anchor="middle" x="546" y="-63.5" font-family="Helvetica,sans-Serif" font-size="10.00">DecayMother.h</text>
</a>
</g>
</g>
<!-- Node1&#45;&gt;Node8 -->
<g id="edge36" class="edge"><title>Node1&#45;&gt;Node8</title>
<path fill="none" stroke="midnightblue" d="M639.98,-272.07C662.136,-238.485 704.183,-162.335 669,-112 650.763,-85.9081 615.686,-74.896 587.643,-70.2735"/>
<polygon fill="midnightblue" stroke="midnightblue" points="637.073,-270.121 634.34,-280.357 642.86,-274.06 637.073,-270.121"/>
</g>
<!-- Node9 -->
<g id="node9" class="node"><title>Node9</title>
<g id="a_node9"><a xlink:href="_generate_8h.html" target="_top" xlink:title="Implements the struct Events and the class PhaseSpace. ">
<polygon fill="none" stroke="black" points="694.5,-0.5 694.5,-19.5 759.5,-19.5 759.5,-0.5 694.5,-0.5"/>
<text text-anchor="middle" x="727" y="-7.5" font-family="Helvetica,sans-Serif" font-size="10.00">Generate.h</text>
</a>
</g>
</g>
<!-- Node1&#45;&gt;Node9 -->
<g id="edge43" class="edge"><title>Node1&#45;&gt;Node9</title>
<path fill="none" stroke="midnightblue" d="M661.221,-276.611C679.586,-268.848 702.216,-257.712 720,-244 798.109,-183.774 830.622,-168.446 865,-76 881.754,-30.9477 805.384,-17.1053 759.516,-12.8641"/>
<polygon fill="midnightblue" stroke="midnightblue" points="659.719,-273.444 651.785,-280.466 662.366,-279.924 659.719,-273.444"/>
</g>
<!-- Node10 -->
<g id="node10" class="node"><title>Node10</title>
<g id="a_node10"><a xlink:href="_decay_mothers_8h.html" target="_top" xlink:title="DecayMothers.h">
<polygon fill="none" stroke="black" points="682.5,-56.5 682.5,-75.5 771.5,-75.5 771.5,-56.5 682.5,-56.5"/>
<text text-anchor="middle" x="727" y="-63.5" font-family="Helvetica,sans-Serif" font-size="10.00">DecayMothers.h</text>
</a>
</g>
</g>
<!-- Node1&#45;&gt;Node10 -->
<g id="edge37" class="edge"><title>Node1&#45;&gt;Node10</title>
<path fill="none" stroke="midnightblue" d="M648.059,-273.894C657.583,-265.878 668.495,-255.349 676,-244 713.396,-187.451 723.83,-103.176 726.312,-75.8773"/>
<polygon fill="midnightblue" stroke="midnightblue" points="645.76,-271.251 640.167,-280.249 650.151,-276.704 645.76,-271.251"/>
</g>
<!-- Node11 -->
<g id="node11" class="node"><title>Node11</title>
<g id="a_node11"><a xlink:href="_rand_gen_8h.html" target="_top" xlink:title="RandGen.h">
<polygon fill="none" stroke="black" points="790,-56.5 790,-75.5 856,-75.5 856,-56.5 790,-56.5"/>
<text text-anchor="middle" x="823" y="-63.5" font-family="Helvetica,sans-Serif" font-size="10.00">RandGen.h</text>
</a>
</g>
</g>
<!-- Node1&#45;&gt;Node11 -->
<g id="edge42" class="edge"><title>Node1&#45;&gt;Node11</title>
<path fill="none" stroke="midnightblue" d="M653.141,-275.375C666.709,-267.313 683.24,-256.286 696,-244 754.029,-188.123 803.413,-102.696 818.366,-75.5743"/>
<polygon fill="midnightblue" stroke="midnightblue" points="651.224,-272.44 644.304,-280.463 654.717,-278.507 651.224,-272.44"/>
</g>
<!-- Node12 -->
<g id="node12" class="node"><title>Node12</title>
<g id="a_node12"><a xlink:href="_g_functional_8h.html" target="_top" xlink:title="Implements the template functors IFunction and IFunctionArray. ">
<polygon fill="none" stroke="black" points="218.5,-112.5 218.5,-131.5 295.5,-131.5 295.5,-112.5 218.5,-112.5"/>
<text text-anchor="middle" x="257" y="-119.5" font-family="Helvetica,sans-Serif" font-size="10.00">GFunctional.h</text>
</a>
</g>
</g>
<!-- Node1&#45;&gt;Node12 -->
<g id="edge44" class="edge"><title>Node1&#45;&gt;Node12</title>
<path fill="none" stroke="midnightblue" d="M587.724,-285.732C522.327,-279.859 396.475,-266.039 358,-244 308.85,-215.846 273.149,-154.11 261.282,-131.508"/>
<polygon fill="midnightblue" stroke="midnightblue" points="587.791,-289.251 598.059,-286.639 588.403,-282.278 587.791,-289.251"/>
</g>
<!-- Node13 -->
<g id="node13" class="node"><title>Node13</title>
<g id="a_node13"><a xlink:href="_flag_accept_reject_8h.html" target="_top" xlink:title="Implements FlagAcceptReject. ">
<polygon fill="none" stroke="black" points="906.5,-168.5 906.5,-187.5 1009.5,-187.5 1009.5,-168.5 906.5,-168.5"/>
<text text-anchor="middle" x="958" y="-175.5" font-family="Helvetica,sans-Serif" font-size="10.00">FlagAcceptReject.h</text>
</a>
</g>
</g>
<!-- Node1&#45;&gt;Node13 -->
<g id="edge38" class="edge"><title>Node1&#45;&gt;Node13</title>
<path fill="none" stroke="midnightblue" d="M667.663,-289.495C721.42,-288.603 819.062,-281.353 892,-244 918.625,-230.365 941.401,-202.23 951.867,-187.864"/>
<polygon fill="midnightblue" stroke="midnightblue" points="667.482,-285.996 657.517,-289.595 667.552,-292.996 667.482,-285.996"/>
</g>
<!-- Node14 -->
<g id="node14" class="node"><title>Node14</title>
<g id="a_node14"><a xlink:href="_is_accepted_8h.html" target="_top" xlink:title="Implements isAccepted. ">
<polygon fill="none" stroke="black" points="983,-224.5 983,-243.5 1057,-243.5 1057,-224.5 983,-224.5"/>
<text text-anchor="middle" x="1020" y="-231.5" font-family="Helvetica,sans-Serif" font-size="10.00">IsAccepted.h</text>
</a>
</g>
</g>
<!-- Node1&#45;&gt;Node14 -->
<g id="edge40" class="edge"><title>Node1&#45;&gt;Node14</title>
<path fill="none" stroke="midnightblue" d="M667.924,-283.5C744.085,-273.009 909.1,-250.277 982.957,-240.103"/>
<polygon fill="midnightblue" stroke="midnightblue" points="667.214,-280.065 657.785,-284.897 668.17,-286.999 667.214,-280.065"/>
</g>
<!-- Node2&#45;&gt;Node3 -->
<g id="edge2" class="edge"><title>Node2&#45;&gt;Node3</title>
<path fill="none" stroke="midnightblue" d="M356.562,-227.457C308.302,-220.464 234.466,-207.012 214,-188 165.518,-142.962 205.524,-48.7291 219.582,-19.7003"/>
<polygon fill="midnightblue" stroke="midnightblue" points="356.35,-230.962 366.741,-228.892 357.327,-224.03 356.35,-230.962"/>
</g>
<!-- Node2&#45;&gt;Node4 -->
<g id="edge3" class="edge"><title>Node2&#45;&gt;Node4</title>
<path fill="none" stroke="midnightblue" d="M416.621,-217.253C426.734,-207.673 439.277,-195.791 447.675,-187.834"/>
<polygon fill="midnightblue" stroke="midnightblue" points="414.01,-214.906 409.158,-224.324 418.825,-219.987 414.01,-214.906"/>
</g>
<!-- Node2&#45;&gt;Node5 -->
<g id="edge24" class="edge"><title>Node2&#45;&gt;Node5</title>
<path fill="none" stroke="midnightblue" d="M443.276,-228.573C478.605,-223.321 528.618,-212.021 566,-188 588.957,-173.248 607.061,-145.62 615.245,-131.613"/>
<polygon fill="midnightblue" stroke="midnightblue" points="442.695,-225.12 433.269,-229.958 443.655,-232.054 442.695,-225.12"/>
</g>
<!-- Node2&#45;&gt;Node6 -->
<g id="edge25" class="edge"><title>Node2&#45;&gt;Node6</title>
<path fill="none" stroke="midnightblue" d="M356.761,-223.958C310.849,-211.785 240.634,-185.206 209,-132 192.559,-104.348 235.235,-85.3941 267.842,-75.3777"/>
<polygon fill="midnightblue" stroke="midnightblue" points="356.181,-227.421 366.734,-226.477 357.896,-220.634 356.181,-227.421"/>
</g>
<!-- Node2&#45;&gt;Node7 -->
<g id="edge26" class="edge"><title>Node2&#45;&gt;Node7</title>
<path fill="none" stroke="midnightblue" d="M356.519,-229.433C321.599,-224.694 272.815,-213.663 238,-188 214.183,-170.444 210.338,-160.389 202,-132 186.238,-78.3333 259.605,-36.8126 296.67,-19.6268"/>
<polygon fill="midnightblue" stroke="midnightblue" points="356.527,-232.961 366.88,-230.712 357.384,-226.013 356.527,-232.961"/>
</g>
<!-- Node2&#45;&gt;Node8 -->
<g id="edge27" class="edge"><title>Node2&#45;&gt;Node8</title>
<path fill="none" stroke="midnightblue" d="M442.77,-221.686C462.088,-214.71 483.91,-203.962 499,-188 530.583,-154.592 541.676,-97.5919 544.88,-75.8139"/>
<polygon fill="midnightblue" stroke="midnightblue" points="441.592,-218.39 433.238,-224.906 443.832,-225.021 441.592,-218.39"/>
</g>
<!-- Node2&#45;&gt;Node9 -->
<g id="edge29" class="edge"><title>Node2&#45;&gt;Node9</title>
<path fill="none" stroke="midnightblue" d="M401.886,-214.083C406.712,-176.795 423.131,-94.1232 476,-56 510.473,-31.1422 634.424,-18.2586 694.245,-13.3704"/>
<polygon fill="midnightblue" stroke="midnightblue" points="398.356,-214.148 400.695,-224.481 405.311,-214.944 398.356,-214.148"/>
</g>
<!-- Node2&#45;&gt;Node10 -->
<g id="edge28" class="edge"><title>Node2&#45;&gt;Node10</title>
<path fill="none" stroke="midnightblue" d="M443.452,-230.44C507.789,-224.285 628.076,-203.331 696,-132 711.864,-115.34 720.938,-89.0499 724.787,-75.5793"/>
<polygon fill="midnightblue" stroke="midnightblue" points="442.902,-226.975 433.246,-231.337 443.514,-233.948 442.902,-226.975"/>
</g>
<!-- Node2&#45;&gt;Node12 -->
<g id="edge30" class="edge"><title>Node2&#45;&gt;Node12</title>
<path fill="none" stroke="midnightblue" d="M380.653,-218.118C350.299,-194.769 292.451,-150.27 268.169,-131.591"/>
<polygon fill="midnightblue" stroke="midnightblue" points="378.719,-221.046 388.779,-224.368 382.987,-215.497 378.719,-221.046"/>
</g>
<!-- Node4&#45;&gt;Node3 -->
<g id="edge4" class="edge"><title>Node4&#45;&gt;Node3</title>
<path fill="none" stroke="midnightblue" d="M417.967,-165.297C374.482,-150.565 304.348,-121.532 259,-76 242.358,-59.2908 231.558,-33.022 226.799,-19.5675"/>
<polygon fill="midnightblue" stroke="midnightblue" points="417.026,-168.672 427.619,-168.481 419.218,-162.025 417.026,-168.672"/>
</g>
<!-- Node4&#45;&gt;Node5 -->
<g id="edge5" class="edge"><title>Node4&#45;&gt;Node5</title>
<path fill="none" stroke="midnightblue" d="M492.703,-165.172C523.396,-155.004 566.919,-140.585 594.293,-131.516"/>
<polygon fill="midnightblue" stroke="midnightblue" points="491.22,-161.976 482.828,-168.444 493.421,-168.621 491.22,-161.976"/>
</g>
<!-- Node4&#45;&gt;Node6 -->
<g id="edge18" class="edge"><title>Node4&#45;&gt;Node6</title>
<path fill="none" stroke="midnightblue" d="M436.319,-162.417C403.324,-139.151 339.787,-94.3501 313.184,-75.5914"/>
<polygon fill="midnightblue" stroke="midnightblue" points="434.569,-165.466 444.759,-168.368 438.603,-159.745 434.569,-165.466"/>
</g>
<!-- Node4&#45;&gt;Node7 -->
<g id="edge19" class="edge"><title>Node4&#45;&gt;Node7</title>
<path fill="none" stroke="midnightblue" d="M442.839,-160.21C413.367,-125.264 346.338,-45.7867 324.226,-19.5681"/>
<polygon fill="midnightblue" stroke="midnightblue" points="440.35,-162.687 449.473,-168.075 445.701,-158.174 440.35,-162.687"/>
</g>
<!-- Node4&#45;&gt;Node8 -->
<g id="edge20" class="edge"><title>Node4&#45;&gt;Node8</title>
<path fill="none" stroke="midnightblue" d="M470.281,-160.586C489.468,-136.871 524.26,-93.8691 539.049,-75.5914"/>
<polygon fill="midnightblue" stroke="midnightblue" points="467.553,-158.393 463.984,-168.368 472.995,-162.796 467.553,-158.393"/>
</g>
<!-- Node4&#45;&gt;Node9 -->
<g id="edge22" class="edge"><title>Node4&#45;&gt;Node9</title>
<path fill="none" stroke="midnightblue" d="M457.257,-158.071C458.705,-131.194 465.532,-82.3206 495,-56 524.07,-30.0352 637.784,-17.824 694.486,-13.2534"/>
<polygon fill="midnightblue" stroke="midnightblue" points="453.747,-158.302 456.911,-168.414 460.743,-158.536 453.747,-158.302"/>
</g>
<!-- Node4&#45;&gt;Node10 -->
<g id="edge21" class="edge"><title>Node4&#45;&gt;Node10</title>
<path fill="none" stroke="midnightblue" d="M500.14,-175.647C545.076,-172.526 616.162,-162.655 669,-132 693.332,-117.883 712.925,-89.9669 721.82,-75.7556"/>
<polygon fill="midnightblue" stroke="midnightblue" points="499.903,-172.154 490.136,-176.26 500.331,-179.141 499.903,-172.154"/>
</g>
<!-- Node4&#45;&gt;Node12 -->
<g id="edge23" class="edge"><title>Node4&#45;&gt;Node12</title>
<path fill="none" stroke="midnightblue" d="M415.626,-165.829C377.864,-155.633 322.86,-140.782 288.542,-131.516"/>
<polygon fill="midnightblue" stroke="midnightblue" points="414.743,-169.216 425.309,-168.444 416.567,-162.458 414.743,-169.216"/>
</g>
<!-- Node5&#45;&gt;Node3 -->
<g id="edge6" class="edge"><title>Node5&#45;&gt;Node3</title>
<path fill="none" stroke="midnightblue" d="M579.612,-109.781C500.252,-87.7365 325.546,-39.2071 254.724,-19.5345"/>
<polygon fill="midnightblue" stroke="midnightblue" points="578.684,-113.156 589.256,-112.46 580.558,-106.411 578.684,-113.156"/>
</g>
<!-- Node5&#45;&gt;Node6 -->
<g id="edge7" class="edge"><title>Node5&#45;&gt;Node6</title>
<path fill="none" stroke="midnightblue" d="M569.792,-112.501C504.021,-101.367 390.49,-82.1488 334.379,-72.6503"/>
<polygon fill="midnightblue" stroke="midnightblue" points="569.478,-115.997 579.921,-114.216 570.646,-109.096 569.478,-115.997"/>
</g>
<!-- Node5&#45;&gt;Node7 -->
<g id="edge10" class="edge"><title>Node5&#45;&gt;Node7</title>
<path fill="none" stroke="midnightblue" d="M618.141,-102.161C615.639,-87.3284 609.768,-67.3287 596,-56 560.765,-27.0081 429.449,-16.3899 360.27,-12.7507"/>
<polygon fill="midnightblue" stroke="midnightblue" points="614.696,-102.81 619.473,-112.267 621.636,-101.895 614.696,-102.81"/>
</g>
<!-- Node5&#45;&gt;Node8 -->
<g id="edge11" class="edge"><title>Node5&#45;&gt;Node8</title>
<path fill="none" stroke="midnightblue" d="M599.966,-106.38C586.591,-96.6204 569.441,-84.1057 558.106,-75.8339"/>
<polygon fill="midnightblue" stroke="midnightblue" points="597.97,-109.257 608.111,-112.324 602.096,-103.602 597.97,-109.257"/>
</g>
<!-- Node5&#45;&gt;Node9 -->
<g id="edge17" class="edge"><title>Node5&#45;&gt;Node9</title>
<path fill="none" stroke="midnightblue" d="M632.613,-103.75C642.861,-90.1938 658.023,-71.138 673,-56 686.561,-42.2932 703.952,-28.3643 715.28,-19.7087"/>
<polygon fill="midnightblue" stroke="midnightblue" points="629.53,-102.03 626.366,-112.141 635.145,-106.21 629.53,-102.03"/>
</g>
<!-- Node5&#45;&gt;Node10 -->
<g id="edge13" class="edge"><title>Node5&#45;&gt;Node10</title>
<path fill="none" stroke="midnightblue" d="M646.302,-107.726C666.115,-97.7271 692.707,-84.3065 709.851,-75.6545"/>
<polygon fill="midnightblue" stroke="midnightblue" points="644.542,-104.694 637.191,-112.324 647.696,-110.943 644.542,-104.694"/>
</g>
<!-- Node5&#45;&gt;Node11 -->
<g id="edge15" class="edge"><title>Node5&#45;&gt;Node11</title>
<path fill="none" stroke="midnightblue" d="M661.994,-109.829C700.323,-99.6333 756.152,-84.7823 790.985,-75.5164"/>
<polygon fill="midnightblue" stroke="midnightblue" points="660.93,-106.49 652.166,-112.444 662.73,-113.255 660.93,-106.49"/>
</g>
<!-- Node6&#45;&gt;Node3 -->
<g id="edge8" class="edge"><title>Node6&#45;&gt;Node3</title>
<path fill="none" stroke="midnightblue" d="M280.099,-50.3422C266.089,-40.5169 248.117,-27.9132 236.341,-19.6545"/>
<polygon fill="midnightblue" stroke="midnightblue" points="278.432,-53.4477 288.629,-56.324 282.451,-47.7166 278.432,-53.4477"/>
</g>
<!-- Node6&#45;&gt;Node7 -->
<g id="edge9" class="edge"><title>Node6&#45;&gt;Node7</title>
<path fill="none" stroke="midnightblue" d="M306.512,-46.3956C309.189,-37.362 312.278,-26.936 314.407,-19.7511"/>
<polygon fill="midnightblue" stroke="midnightblue" points="303.127,-45.5007 303.642,-56.083 309.839,-47.4893 303.127,-45.5007"/>
</g>
<!-- Node8&#45;&gt;Node9 -->
<g id="edge12" class="edge"><title>Node8&#45;&gt;Node9</title>
<path fill="none" stroke="midnightblue" d="M584.319,-53.5677C618.464,-43.381 667.661,-28.7034 698.454,-19.5164"/>
<polygon fill="midnightblue" stroke="midnightblue" points="583.262,-50.2306 574.68,-56.4435 585.263,-56.9385 583.262,-50.2306"/>
</g>
<!-- Node10&#45;&gt;Node9 -->
<g id="edge14" class="edge"><title>Node10&#45;&gt;Node9</title>
<path fill="none" stroke="midnightblue" d="M727,-45.8045C727,-36.9102 727,-26.7798 727,-19.7511"/>
<polygon fill="midnightblue" stroke="midnightblue" points="723.5,-46.083 727,-56.083 730.5,-46.083 723.5,-46.083"/>
</g>
<!-- Node11&#45;&gt;Node9 -->
<g id="edge16" class="edge"><title>Node11&#45;&gt;Node9</title>
<path fill="none" stroke="midnightblue" d="M798.426,-51.1774C780.761,-41.2407 757.487,-28.1492 742.386,-19.6545"/>
<polygon fill="midnightblue" stroke="midnightblue" points="797.144,-54.4718 807.576,-56.324 800.576,-48.3708 797.144,-54.4718"/>
</g>
<!-- Node13&#45;&gt;Node9 -->
<g id="edge39" class="edge"><title>Node13&#45;&gt;Node9</title>
<path fill="none" stroke="midnightblue" d="M953.954,-158.501C947.133,-131.79 930.76,-82.7034 898,-56 858.025,-23.4154 796.873,-14.2182 759.556,-11.7455"/>
<polygon fill="midnightblue" stroke="midnightblue" points="950.6,-159.525 956.312,-168.448 957.411,-157.91 950.6,-159.525"/>
</g>
<!-- Node14&#45;&gt;Node9 -->
<g id="edge41" class="edge"><title>Node14&#45;&gt;Node9</title>
<path fill="none" stroke="midnightblue" d="M1022.7,-213.902C1023.81,-200.581 1023.72,-182.641 1018,-168 994.049,-106.659 977.397,-89.9969 921,-56 870.069,-25.2983 800.002,-15.5383 759.504,-12.4388"/>
<polygon fill="midnightblue" stroke="midnightblue" points="1019.18,-213.89 1021.53,-224.22 1026.13,-214.678 1019.18,-213.89"/>
</g>
</g>
</svg>
