<?xml version="1.0" encoding="UTF-8" standalone="no"?>
<!DOCTYPE svg PUBLIC "-//W3C//DTD SVG 1.1//EN"
 "http://www.w3.org/Graphics/SVG/1.1/DTD/svg11.dtd">
<!-- Generated by graphviz version 2.38.0 (20140413.2041)
 -->
<!-- Title: Generate.h Pages: 1 -->
<svg width="2763pt" height="408pt"
 viewBox="0.00 0.00 2762.50 408.00" xmlns="http://www.w3.org/2000/svg" xmlns:xlink="http://www.w3.org/1999/xlink">
<g id="graph0" class="graph" transform="scale(1 1) rotate(0) translate(4 404)">
<title>Generate.h</title>
<!-- Node1 -->
<g id="node1" class="node"><title>Node1</title>
<polygon fill="#bfbfbf" stroke="black" points="1252.5,-380.5 1252.5,-399.5 1317.5,-399.5 1317.5,-380.5 1252.5,-380.5"/>
<text text-anchor="middle" x="1285" y="-387.5" font-family="Helvetica,sans-Serif" font-size="10.00">Generate.h</text>
</g>
<!-- Node2 -->
<g id="node2" class="node"><title>Node2</title>
<polygon fill="none" stroke="#bfbfbf" points="650,-190.5 650,-209.5 694,-209.5 694,-190.5 650,-190.5"/>
<text text-anchor="middle" x="672" y="-197.5" font-family="Helvetica,sans-Serif" font-size="10.00">vector</text>
</g>
<!-- Node1&#45;&gt;Node2 -->
<g id="edge1" class="edge"><title>Node1&#45;&gt;Node2</title>
<path fill="none" stroke="midnightblue" d="M1252.25,-388.57C1162.22,-386.94 912.862,-379.274 840,-344 785.4,-317.567 792.295,-283.987 745,-246 730.146,-234.069 711.901,-222.822 697.367,-214.556"/>
<polygon fill="midnightblue" stroke="midnightblue" points="698.865,-211.384 688.425,-209.577 695.46,-217.5 698.865,-211.384"/>
</g>
<!-- Node3 -->
<g id="node3" class="node"><title>Node3</title>
<polygon fill="none" stroke="#bfbfbf" points="1264.5,-319 1264.5,-338 1305.5,-338 1305.5,-319 1264.5,-319"/>
<text text-anchor="middle" x="1285" y="-326" font-family="Helvetica,sans-Serif" font-size="10.00">string</text>
</g>
<!-- Node1&#45;&gt;Node3 -->
<g id="edge2" class="edge"><title>Node1&#45;&gt;Node3</title>
<path fill="none" stroke="midnightblue" d="M1285,-380.475C1285,-372.08 1285,-358.981 1285,-348.163"/>
<polygon fill="midnightblue" stroke="midnightblue" points="1288.5,-348.009 1285,-338.009 1281.5,-348.009 1288.5,-348.009"/>
</g>
<!-- Node4 -->
<g id="node4" class="node"><title>Node4</title>
<polygon fill="none" stroke="#bfbfbf" points="1323.5,-319 1323.5,-338 1358.5,-338 1358.5,-319 1323.5,-319"/>
<text text-anchor="middle" x="1341" y="-326" font-family="Helvetica,sans-Serif" font-size="10.00">map</text>
</g>
<!-- Node1&#45;&gt;Node4 -->
<g id="edge3" class="edge"><title>Node1&#45;&gt;Node4</title>
<path fill="none" stroke="midnightblue" d="M1293.02,-380.475C1301.59,-371.373 1315.36,-356.741 1325.96,-345.483"/>
<polygon fill="midnightblue" stroke="midnightblue" points="1328.69,-347.69 1332.99,-338.009 1323.59,-342.892 1328.69,-347.69"/>
</g>
<!-- Node5 -->
<g id="node5" class="node"><title>Node5</title>
<polygon fill="none" stroke="#bfbfbf" points="1377,-319 1377,-338 1421,-338 1421,-319 1377,-319"/>
<text text-anchor="middle" x="1399" y="-326" font-family="Helvetica,sans-Serif" font-size="10.00">omp.h</text>
</g>
<!-- Node1&#45;&gt;Node5 -->
<g id="edge4" class="edge"><title>Node1&#45;&gt;Node5</title>
<path fill="none" stroke="midnightblue" d="M1301.33,-380.475C1320.21,-370.622 1351.51,-354.288 1373.58,-342.77"/>
<polygon fill="midnightblue" stroke="midnightblue" points="1375.45,-345.739 1382.7,-338.009 1372.21,-339.533 1375.45,-345.739"/>
</g>
<!-- Node6 -->
<g id="node6" class="node"><title>Node6</title>
<polygon fill="none" stroke="#bfbfbf" points="11,-67.5 11,-86.5 65,-86.5 65,-67.5 11,-67.5"/>
<text text-anchor="middle" x="38" y="-74.5" font-family="Helvetica,sans-Serif" font-size="10.00">iostream</text>
</g>
<!-- Node1&#45;&gt;Node6 -->
<g id="edge5" class="edge"><title>Node1&#45;&gt;Node6</title>
<path fill="none" stroke="midnightblue" d="M1252.33,-388.643C1076.95,-386.604 251.081,-375.39 142,-344 72.0706,-323.877 0,-335.267 0,-262.5 0,-262.5 0,-262.5 0,-199 0,-160.812 17.4417,-118.83 28.692,-95.7224"/>
<polygon fill="midnightblue" stroke="midnightblue" points="31.9579,-97.0195 33.3405,-86.5153 25.7091,-93.8646 31.9579,-97.0195"/>
</g>
<!-- Node7 -->
<g id="node7" class="node"><title>Node7</title>
<polygon fill="none" stroke="#bfbfbf" points="1439,-319 1439,-338 1491,-338 1491,-319 1439,-319"/>
<text text-anchor="middle" x="1465" y="-326" font-family="Helvetica,sans-Serif" font-size="10.00">ostream</text>
</g>
<!-- Node1&#45;&gt;Node7 -->
<g id="edge6" class="edge"><title>Node1&#45;&gt;Node7</title>
<path fill="none" stroke="midnightblue" d="M1315.26,-380.489C1344.78,-371.98 1390.83,-358.157 1430,-344 1431.86,-343.329 1433.76,-342.617 1435.67,-341.881"/>
<polygon fill="midnightblue" stroke="midnightblue" points="1437.15,-345.06 1445.13,-338.101 1434.55,-338.559 1437.15,-345.06"/>
</g>
<!-- Node8 -->
<g id="node8" class="node"><title>Node8</title>
<polygon fill="none" stroke="#bfbfbf" points="1509,-319 1509,-338 1565,-338 1565,-319 1509,-319"/>
<text text-anchor="middle" x="1537" y="-326" font-family="Helvetica,sans-Serif" font-size="10.00">algorithm</text>
</g>
<!-- Node1&#45;&gt;Node8 -->
<g id="edge7" class="edge"><title>Node1&#45;&gt;Node8</title>
<path fill="none" stroke="midnightblue" d="M1317.84,-383.885C1360.38,-376.86 1436.6,-362.914 1500,-344 1502.43,-343.275 1504.92,-342.46 1507.42,-341.594"/>
<polygon fill="midnightblue" stroke="midnightblue" points="1508.7,-344.853 1516.86,-338.097 1506.26,-338.288 1508.7,-344.853"/>
</g>
<!-- Node9 -->
<g id="node9" class="node"><title>Node9</title>
<polygon fill="none" stroke="#bfbfbf" points="1583,-319 1583,-338 1627,-338 1627,-319 1583,-319"/>
<text text-anchor="middle" x="1605" y="-326" font-family="Helvetica,sans-Serif" font-size="10.00">time.h</text>
</g>
<!-- Node1&#45;&gt;Node9 -->
<g id="edge8" class="edge"><title>Node1&#45;&gt;Node9</title>
<path fill="none" stroke="midnightblue" d="M1317.74,-386.926C1372.03,-382.821 1483.66,-371.549 1574,-344 1575.88,-343.428 1577.78,-342.763 1579.68,-342.037"/>
<polygon fill="midnightblue" stroke="midnightblue" points="1581.12,-345.228 1588.93,-338.067 1578.36,-338.795 1581.12,-345.228"/>
</g>
<!-- Node10 -->
<g id="node10" class="node"><title>Node10</title>
<polygon fill="none" stroke="#bfbfbf" points="1645,-319 1645,-338 1691,-338 1691,-319 1645,-319"/>
<text text-anchor="middle" x="1668" y="-326" font-family="Helvetica,sans-Serif" font-size="10.00">stdio.h</text>
</g>
<!-- Node1&#45;&gt;Node10 -->
<g id="edge9" class="edge"><title>Node1&#45;&gt;Node10</title>
<path fill="none" stroke="midnightblue" d="M1317.58,-388.046C1380.36,-385.507 1521.93,-376.367 1636,-344 1637.94,-343.451 1639.91,-342.802 1641.87,-342.089"/>
<polygon fill="midnightblue" stroke="midnightblue" points="1643.51,-345.197 1651.42,-338.145 1640.84,-338.727 1643.51,-345.197"/>
</g>
<!-- Node11 -->
<g id="node11" class="node"><title>Node11</title>
<g id="a_node11"><a xlink:href="_config_8h.html" target="_top" xlink:title="mcbooster/Config.h">
<polygon fill="none" stroke="black" points="387,-67.5 387,-86.5 489,-86.5 489,-67.5 387,-67.5"/>
<text text-anchor="middle" x="438" y="-74.5" font-family="Helvetica,sans-Serif" font-size="10.00">mcbooster/Config.h</text>
</a>
</g>
</g>
<!-- Node1&#45;&gt;Node11 -->
<g id="edge10" class="edge"><title>Node1&#45;&gt;Node11</title>
<path fill="none" stroke="midnightblue" d="M1252.24,-387.214C1169.25,-382.357 955.814,-367.661 935,-344 889.335,-292.087 1000.43,-243.799 957,-190 956.065,-188.842 618.44,-116.57 488.314,-88.7511"/>
<polygon fill="midnightblue" stroke="midnightblue" points="488.72,-85.2589 478.209,-86.591 487.256,-92.1042 488.72,-85.2589"/>
</g>
<!-- Node13 -->
<g id="node13" class="node"><title>Node13</title>
<g id="a_node13"><a xlink:href="_vector3_r_8h.html" target="_top" xlink:title="mcbooster/Vector3R.h">
<polygon fill="none" stroke="black" points="142.5,-129 142.5,-148 257.5,-148 257.5,-129 142.5,-129"/>
<text text-anchor="middle" x="200" y="-136" font-family="Helvetica,sans-Serif" font-size="10.00">mcbooster/Vector3R.h</text>
</a>
</g>
</g>
<!-- Node1&#45;&gt;Node13 -->
<g id="edge12" class="edge"><title>Node1&#45;&gt;Node13</title>
<path fill="none" stroke="midnightblue" d="M1252.3,-388.63C1074.19,-386.497 227.424,-374.763 182,-344 121.823,-303.246 93.2579,-254.371 127,-190 135.769,-173.271 152.874,-160.985 168.323,-152.723"/>
<polygon fill="midnightblue" stroke="midnightblue" points="170.241,-155.678 177.639,-148.094 167.126,-149.409 170.241,-155.678"/>
</g>
<!-- Node14 -->
<g id="node14" class="node"><title>Node14</title>
<g id="a_node14"><a xlink:href="_g_types_8h.html" target="_top" xlink:title="mcbooster/GTypes.h">
<polygon fill="none" stroke="black" points="878,-67.5 878,-86.5 986,-86.5 986,-67.5 878,-67.5"/>
<text text-anchor="middle" x="932" y="-74.5" font-family="Helvetica,sans-Serif" font-size="10.00">mcbooster/GTypes.h</text>
</a>
</g>
</g>
<!-- Node1&#45;&gt;Node14 -->
<g id="edge25" class="edge"><title>Node1&#45;&gt;Node14</title>
<path fill="none" stroke="midnightblue" d="M1276.79,-380.182C1269.46,-371.663 1259.24,-358.019 1255,-344 1242.36,-302.259 1270.02,-288.446 1260,-246 1253.61,-218.918 1249.25,-211.835 1232,-190 1203.25,-153.608 1193.77,-143.151 1152,-123 1102.87,-99.2994 1041.73,-88.0637 996.376,-82.7472"/>
<polygon fill="midnightblue" stroke="midnightblue" points="996.694,-79.2611 986.37,-81.6397 995.924,-86.2187 996.694,-79.2611"/>
</g>
<!-- Node17 -->
<g id="node17" class="node"><title>Node17</title>
<g id="a_node17"><a xlink:href="_vector4_r_8h.html" target="_top" xlink:title="mcbooster/Vector4R.h">
<polygon fill="none" stroke="black" points="142.5,-190.5 142.5,-209.5 257.5,-209.5 257.5,-190.5 142.5,-190.5"/>
<text text-anchor="middle" x="200" y="-197.5" font-family="Helvetica,sans-Serif" font-size="10.00">mcbooster/Vector4R.h</text>
</a>
</g>
</g>
<!-- Node1&#45;&gt;Node17 -->
<g id="edge18" class="edge"><title>Node1&#45;&gt;Node17</title>
<path fill="none" stroke="midnightblue" d="M1252.37,-388.891C1075.62,-388.143 239.559,-382.572 202,-344 169.603,-310.73 183.477,-249.745 193.303,-219.301"/>
<polygon fill="midnightblue" stroke="midnightblue" points="196.706,-220.168 196.647,-209.574 190.086,-217.893 196.706,-220.168"/>
</g>
<!-- Node19 -->
<g id="node19" class="node"><title>Node19</title>
<g id="a_node19"><a xlink:href="_g_containers_8h.html" target="_top" xlink:title="Typedef for useful container classes used in MCBooster. ">
<polygon fill="none" stroke="black" points="608,-252 608,-271 736,-271 736,-252 608,-252"/>
<text text-anchor="middle" x="672" y="-259" font-family="Helvetica,sans-Serif" font-size="10.00">mcbooster/GContainers.h</text>
</a>
</g>
</g>
<!-- Node1&#45;&gt;Node19 -->
<g id="edge26" class="edge"><title>Node1&#45;&gt;Node19</title>
<path fill="none" stroke="midnightblue" d="M1252.37,-389.091C1151.21,-388.931 844.269,-384.994 755,-344 723.947,-329.74 697.684,-298.727 683.445,-279.336"/>
<polygon fill="midnightblue" stroke="midnightblue" points="686.252,-277.244 677.613,-271.11 680.541,-281.292 686.252,-277.244"/>
</g>
<!-- Node20 -->
<g id="node20" class="node"><title>Node20</title>
<polygon fill="none" stroke="#bfbfbf" points="712.5,-190.5 712.5,-209.5 825.5,-209.5 825.5,-190.5 712.5,-190.5"/>
<text text-anchor="middle" x="769" y="-197.5" font-family="Helvetica,sans-Serif" font-size="10.00">thrust/device_vector.h</text>
</g>
<!-- Node1&#45;&gt;Node20 -->
<g id="edge69" class="edge"><title>Node1&#45;&gt;Node20</title>
<path fill="none" stroke="midnightblue" d="M1252.45,-388.553C1168.26,-386.901 945.481,-379.228 882,-344 829.551,-314.894 792.816,-250.48 777.283,-219.01"/>
<polygon fill="midnightblue" stroke="midnightblue" points="780.304,-217.214 772.836,-209.699 773.987,-220.231 780.304,-217.214"/>
</g>
<!-- Node21 -->
<g id="node21" class="node"><title>Node21</title>
<polygon fill="none" stroke="#bfbfbf" points="844,-190.5 844,-209.5 948,-209.5 948,-190.5 844,-190.5"/>
<text text-anchor="middle" x="896" y="-197.5" font-family="Helvetica,sans-Serif" font-size="10.00">thrust/host_vector.h</text>
</g>
<!-- Node1&#45;&gt;Node21 -->
<g id="edge70" class="edge"><title>Node1&#45;&gt;Node21</title>
<path fill="none" stroke="midnightblue" d="M1252.47,-387.554C1164.29,-383.311 925.705,-369.554 902,-344 870.544,-310.091 881.66,-249.89 890.069,-219.559"/>
<polygon fill="midnightblue" stroke="midnightblue" points="893.464,-220.423 892.961,-209.84 886.754,-218.427 893.464,-220.423"/>
</g>
<!-- Node23 -->
<g id="node23" class="node"><title>Node23</title>
<g id="a_node23"><a xlink:href="_decay_mother_8h.html" target="_top" xlink:title="mcbooster/functors\l/DecayMother.h">
<polygon fill="none" stroke="black" points="484.5,-313.5 484.5,-343.5 585.5,-343.5 585.5,-313.5 484.5,-313.5"/>
<text text-anchor="start" x="492.5" y="-331.5" font-family="Helvetica,sans-Serif" font-size="10.00">mcbooster/functors</text>
<text text-anchor="middle" x="535" y="-320.5" font-family="Helvetica,sans-Serif" font-size="10.00">/DecayMother.h</text>
</a>
</g>
</g>
<!-- Node1&#45;&gt;Node23 -->
<g id="edge35" class="edge"><title>Node1&#45;&gt;Node23</title>
<path fill="none" stroke="midnightblue" d="M1252.25,-386.766C1162.06,-380.566 902.512,-362.386 687,-344 656.889,-341.431 623.454,-338.275 595.626,-335.564"/>
<polygon fill="midnightblue" stroke="midnightblue" points="595.937,-332.077 585.644,-334.587 595.255,-339.044 595.937,-332.077"/>
</g>
<!-- Node24 -->
<g id="node24" class="node"><title>Node24</title>
<polygon fill="none" stroke="#bfbfbf" points="256,-252 256,-271 330,-271 330,-252 256,-252"/>
<text text-anchor="middle" x="293" y="-259" font-family="Helvetica,sans-Serif" font-size="10.00">thrust/tuple.h</text>
</g>
<!-- Node1&#45;&gt;Node24 -->
<g id="edge76" class="edge"><title>Node1&#45;&gt;Node24</title>
<path fill="none" stroke="midnightblue" d="M1252.16,-389.349C1115.13,-390.486 588.775,-391.607 431,-344 384.296,-329.907 336.835,-296.89 311.561,-277.481"/>
<polygon fill="midnightblue" stroke="midnightblue" points="313.616,-274.644 303.584,-271.236 309.301,-280.156 313.616,-274.644"/>
</g>
<!-- Node25 -->
<g id="node25" class="node"><title>Node25</title>
<polygon fill="none" stroke="#bfbfbf" points="348,-246.5 348,-276.5 438,-276.5 438,-246.5 348,-246.5"/>
<text text-anchor="start" x="356" y="-264.5" font-family="Helvetica,sans-Serif" font-size="10.00">thrust/iterator/zip</text>
<text text-anchor="middle" x="393" y="-253.5" font-family="Helvetica,sans-Serif" font-size="10.00">_iterator.h</text>
</g>
<!-- Node1&#45;&gt;Node25 -->
<g id="edge72" class="edge"><title>Node1&#45;&gt;Node25</title>
<path fill="none" stroke="midnightblue" d="M1252.15,-388.549C1109.38,-386.404 546.81,-375.975 475,-344 446.697,-331.397 422.713,-304.362 408.129,-284.88"/>
<polygon fill="midnightblue" stroke="midnightblue" points="410.8,-282.6 402.109,-276.54 405.124,-286.697 410.8,-282.6"/>
</g>
<!-- Node26 -->
<g id="node26" class="node"><title>Node26</title>
<g id="a_node26"><a xlink:href="_decay_mothers_8h.html" target="_top" xlink:title="mcbooster/functors\l/DecayMothers.h">
<polygon fill="none" stroke="black" points="211.5,-313.5 211.5,-343.5 312.5,-343.5 312.5,-313.5 211.5,-313.5"/>
<text text-anchor="start" x="219.5" y="-331.5" font-family="Helvetica,sans-Serif" font-size="10.00">mcbooster/functors</text>
<text text-anchor="middle" x="262" y="-320.5" font-family="Helvetica,sans-Serif" font-size="10.00">/DecayMothers.h</text>
</a>
</g>
</g>
<!-- Node1&#45;&gt;Node26 -->
<g id="edge43" class="edge"><title>Node1&#45;&gt;Node26</title>
<path fill="none" stroke="midnightblue" d="M1252.33,-388.476C1133.24,-386.34 711.264,-376.773 365,-344 351.257,-342.699 336.537,-340.882 322.649,-338.974"/>
<polygon fill="midnightblue" stroke="midnightblue" points="323.1,-335.503 312.709,-337.574 322.123,-342.434 323.1,-335.503"/>
</g>
<!-- Node27 -->
<g id="node27" class="node"><title>Node27</title>
<g id="a_node27"><a xlink:href="_rand_gen_8h.html" target="_top" xlink:title="mcbooster/functors\l/RandGen.h">
<polygon fill="none" stroke="black" points="944.5,-313.5 944.5,-343.5 1045.5,-343.5 1045.5,-313.5 944.5,-313.5"/>
<text text-anchor="start" x="952.5" y="-331.5" font-family="Helvetica,sans-Serif" font-size="10.00">mcbooster/functors</text>
<text text-anchor="middle" x="995" y="-320.5" font-family="Helvetica,sans-Serif" font-size="10.00">/RandGen.h</text>
</a>
</g>
</g>
<!-- Node1&#45;&gt;Node27 -->
<g id="edge51" class="edge"><title>Node1&#45;&gt;Node27</title>
<path fill="none" stroke="midnightblue" d="M1252.16,-382.668C1208.3,-374.157 1128.2,-358.426 1060,-344 1058.55,-343.693 1057.08,-343.381 1055.6,-343.065"/>
<polygon fill="midnightblue" stroke="midnightblue" points="1056.23,-339.62 1045.72,-340.928 1054.75,-346.462 1056.23,-339.62"/>
</g>
<!-- Node29 -->
<g id="node29" class="node"><title>Node29</title>
<g id="a_node29"><a xlink:href="_flag_accept_reject_8h.html" target="_top" xlink:title="Implements FlagAcceptReject. ">
<polygon fill="none" stroke="black" points="1102,-313.5 1102,-343.5 1208,-343.5 1208,-313.5 1102,-313.5"/>
<text text-anchor="start" x="1110" y="-331.5" font-family="Helvetica,sans-Serif" font-size="10.00">mcbooster/functors</text>
<text text-anchor="middle" x="1155" y="-320.5" font-family="Helvetica,sans-Serif" font-size="10.00">/FlagAcceptReject.h</text>
</a>
</g>
</g>
<!-- Node1&#45;&gt;Node29 -->
<g id="edge56" class="edge"><title>Node1&#45;&gt;Node29</title>
<path fill="none" stroke="midnightblue" d="M1266.37,-380.475C1247.78,-371.965 1218.62,-358.619 1194.8,-347.718"/>
<polygon fill="midnightblue" stroke="midnightblue" points="1196.19,-344.502 1185.64,-343.523 1193.27,-350.867 1196.19,-344.502"/>
</g>
<!-- Node30 -->
<g id="node30" class="node"><title>Node30</title>
<g id="a_node30"><a xlink:href="_is_accepted_8h.html" target="_top" xlink:title="Implements isAccepted. ">
<polygon fill="none" stroke="black" points="960.5,-123.5 960.5,-153.5 1061.5,-153.5 1061.5,-123.5 960.5,-123.5"/>
<text text-anchor="start" x="968.5" y="-141.5" font-family="Helvetica,sans-Serif" font-size="10.00">mcbooster/functors</text>
<text text-anchor="middle" x="1011" y="-130.5" font-family="Helvetica,sans-Serif" font-size="10.00">/IsAccepted.h</text>
</a>
</g>
</g>
<!-- Node1&#45;&gt;Node30 -->
<g id="edge60" class="edge"><title>Node1&#45;&gt;Node30</title>
<path fill="none" stroke="midnightblue" d="M1252.47,-385.037C1204.18,-378.561 1116.7,-364.36 1093,-344 1078.55,-331.581 1036.91,-214.587 1019.17,-163.346"/>
<polygon fill="midnightblue" stroke="midnightblue" points="1022.42,-162.06 1015.86,-153.747 1015.81,-164.342 1022.42,-162.06"/>
</g>
<!-- Node31 -->
<g id="node31" class="node"><title>Node31</title>
<g id="a_node31"><a xlink:href="strided__iterator_8h.html" target="_top" xlink:title="mcbooster/strided_iterator.h">
<polygon fill="none" stroke="black" points="1747,-319 1747,-338 1885,-338 1885,-319 1747,-319"/>
<text text-anchor="middle" x="1816" y="-326" font-family="Helvetica,sans-Serif" font-size="10.00">mcbooster/strided_iterator.h</text>
</a>
</g>
</g>
<!-- Node1&#45;&gt;Node31 -->
<g id="edge63" class="edge"><title>Node1&#45;&gt;Node31</title>
<path fill="none" stroke="midnightblue" d="M1317.7,-386.537C1391.8,-380.775 1578.12,-365.279 1733,-344 1742.05,-342.757 1751.62,-341.258 1760.92,-339.702"/>
<polygon fill="midnightblue" stroke="midnightblue" points="1761.6,-343.137 1770.86,-338.001 1760.42,-336.237 1761.6,-343.137"/>
</g>
<!-- Node32 -->
<g id="node32" class="node"><title>Node32</title>
<polygon fill="none" stroke="#bfbfbf" points="1636,-246.5 1636,-276.5 1750,-276.5 1750,-246.5 1636,-246.5"/>
<text text-anchor="start" x="1644" y="-264.5" font-family="Helvetica,sans-Serif" font-size="10.00">thrust/iterator/counting</text>
<text text-anchor="middle" x="1693" y="-253.5" font-family="Helvetica,sans-Serif" font-size="10.00">_iterator.h</text>
</g>
<!-- Node1&#45;&gt;Node32 -->
<g id="edge73" class="edge"><title>Node1&#45;&gt;Node32</title>
<path fill="none" stroke="midnightblue" d="M1317.59,-387.918C1410.98,-384.486 1674.56,-372.35 1700,-344 1713.86,-328.555 1709.62,-304.186 1703.42,-286.114"/>
<polygon fill="midnightblue" stroke="midnightblue" points="1706.61,-284.661 1699.77,-276.568 1700.07,-287.159 1706.61,-284.661"/>
</g>
<!-- Node36 -->
<g id="node36" class="node"><title>Node36</title>
<polygon fill="none" stroke="#bfbfbf" points="1903,-319 1903,-338 1977,-338 1977,-319 1903,-319"/>
<text text-anchor="middle" x="1940" y="-326" font-family="Helvetica,sans-Serif" font-size="10.00">thrust/copy.h</text>
</g>
<!-- Node1&#45;&gt;Node36 -->
<g id="edge68" class="edge"><title>Node1&#45;&gt;Node36</title>
<path fill="none" stroke="midnightblue" d="M1317.7,-389.229C1409.47,-389.306 1676.91,-385.651 1894,-344 1898.16,-343.201 1902.48,-342.151 1906.72,-340.981"/>
<polygon fill="midnightblue" stroke="midnightblue" points="1907.81,-344.308 1916.39,-338.092 1905.81,-337.601 1907.81,-344.308"/>
</g>
<!-- Node37 -->
<g id="node37" class="node"><title>Node37</title>
<polygon fill="none" stroke="#bfbfbf" points="1995,-319 1995,-338 2089,-338 2089,-319 1995,-319"/>
<text text-anchor="middle" x="2042" y="-326" font-family="Helvetica,sans-Serif" font-size="10.00">thrust/transform.h</text>
</g>
<!-- Node1&#45;&gt;Node37 -->
<g id="edge71" class="edge"><title>Node1&#45;&gt;Node37</title>
<path fill="none" stroke="midnightblue" d="M1317.74,-389.09C1418.24,-388.899 1731.01,-384.819 1986,-344 1991.78,-343.075 1997.83,-341.819 2003.73,-340.431"/>
<polygon fill="midnightblue" stroke="midnightblue" points="2004.59,-343.824 2013.44,-338.006 2002.89,-337.033 2004.59,-343.824"/>
</g>
<!-- Node38 -->
<g id="node38" class="node"><title>Node38</title>
<polygon fill="none" stroke="#bfbfbf" points="2107.5,-319 2107.5,-338 2202.5,-338 2202.5,-319 2107.5,-319"/>
<text text-anchor="middle" x="2155" y="-326" font-family="Helvetica,sans-Serif" font-size="10.00">thrust/sequence.h</text>
</g>
<!-- Node1&#45;&gt;Node38 -->
<g id="edge74" class="edge"><title>Node1&#45;&gt;Node38</title>
<path fill="none" stroke="midnightblue" d="M1317.76,-389.453C1428.33,-390.5 1797.59,-390.079 2098,-344 2103.88,-343.098 2110.04,-341.854 2116.05,-340.472"/>
<polygon fill="midnightblue" stroke="midnightblue" points="2117.05,-343.829 2125.93,-338.05 2115.39,-337.031 2117.05,-343.829"/>
</g>
<!-- Node39 -->
<g id="node39" class="node"><title>Node39</title>
<polygon fill="none" stroke="#bfbfbf" points="2221,-319 2221,-338 2311,-338 2311,-319 2221,-319"/>
<text text-anchor="middle" x="2266" y="-326" font-family="Helvetica,sans-Serif" font-size="10.00">thrust/for_each.h</text>
</g>
<!-- Node1&#45;&gt;Node39 -->
<g id="edge75" class="edge"><title>Node1&#45;&gt;Node39</title>
<path fill="none" stroke="midnightblue" d="M1317.91,-388.346C1461.55,-385.346 2034.31,-371.841 2212,-344 2217.51,-343.136 2223.28,-341.929 2228.9,-340.576"/>
<polygon fill="midnightblue" stroke="midnightblue" points="2229.96,-343.914 2238.77,-338.026 2228.22,-337.137 2229.96,-343.914"/>
</g>
<!-- Node40 -->
<g id="node40" class="node"><title>Node40</title>
<polygon fill="none" stroke="#bfbfbf" points="2329,-319 2329,-338 2417,-338 2417,-319 2329,-319"/>
<text text-anchor="middle" x="2373" y="-326" font-family="Helvetica,sans-Serif" font-size="10.00">thrust/extrema.h</text>
</g>
<!-- Node1&#45;&gt;Node40 -->
<g id="edge77" class="edge"><title>Node1&#45;&gt;Node40</title>
<path fill="none" stroke="midnightblue" d="M1317.55,-388.564C1470.63,-386.363 2119.87,-375.322 2320,-344 2325.42,-343.152 2331.08,-341.953 2336.59,-340.604"/>
<polygon fill="midnightblue" stroke="midnightblue" points="2337.51,-343.983 2346.29,-338.057 2335.73,-337.213 2337.51,-343.983"/>
</g>
<!-- Node41 -->
<g id="node41" class="node"><title>Node41</title>
<polygon fill="none" stroke="#bfbfbf" points="2435.5,-319 2435.5,-338 2512.5,-338 2512.5,-319 2435.5,-319"/>
<text text-anchor="middle" x="2474" y="-326" font-family="Helvetica,sans-Serif" font-size="10.00">thrust/count.h</text>
</g>
<!-- Node1&#45;&gt;Node41 -->
<g id="edge78" class="edge"><title>Node1&#45;&gt;Node41</title>
<path fill="none" stroke="midnightblue" d="M1317.6,-388.83C1480.19,-387.811 2204.34,-381.226 2426,-344 2430.57,-343.233 2435.31,-342.159 2439.95,-340.938"/>
<polygon fill="midnightblue" stroke="midnightblue" points="2441.22,-344.216 2449.87,-338.095 2439.29,-337.488 2441.22,-344.216"/>
</g>
<!-- Node42 -->
<g id="node42" class="node"><title>Node42</title>
<polygon fill="none" stroke="#bfbfbf" points="2531,-319 2531,-338 2593,-338 2593,-319 2531,-319"/>
<text text-anchor="middle" x="2562" y="-326" font-family="Helvetica,sans-Serif" font-size="10.00">thrust/fill.h</text>
</g>
<!-- Node1&#45;&gt;Node42 -->
<g id="edge79" class="edge"><title>Node1&#45;&gt;Node42</title>
<path fill="none" stroke="midnightblue" d="M1317.53,-389.181C1488.19,-389.924 2281.52,-390.764 2522,-344 2525.44,-343.331 2528.98,-342.412 2532.46,-341.359"/>
<polygon fill="midnightblue" stroke="midnightblue" points="2533.65,-344.652 2542,-338.131 2531.4,-338.022 2533.65,-344.652"/>
</g>
<!-- Node43 -->
<g id="node43" class="node"><title>Node43</title>
<polygon fill="none" stroke="#bfbfbf" points="2611.5,-313.5 2611.5,-343.5 2754.5,-343.5 2754.5,-313.5 2611.5,-313.5"/>
<text text-anchor="start" x="2619.5" y="-331.5" font-family="Helvetica,sans-Serif" font-size="10.00">thrust/system/omp/execution</text>
<text text-anchor="middle" x="2683" y="-320.5" font-family="Helvetica,sans-Serif" font-size="10.00">_policy.h</text>
</g>
<!-- Node1&#45;&gt;Node43 -->
<g id="edge80" class="edge"><title>Node1&#45;&gt;Node43</title>
<path fill="none" stroke="midnightblue" d="M1317.75,-388.517C1492.89,-385.837 2321.22,-371.938 2600.97,-343.967"/>
<polygon fill="midnightblue" stroke="midnightblue" points="2601.5,-347.431 2611.09,-342.924 2600.78,-340.468 2601.5,-347.431"/>
</g>
<!-- Node12 -->
<g id="node12" class="node"><title>Node12</title>
<polygon fill="none" stroke="#bfbfbf" points="389.5,-0.5 389.5,-30.5 486.5,-30.5 486.5,-0.5 389.5,-0.5"/>
<text text-anchor="start" x="397.5" y="-18.5" font-family="Helvetica,sans-Serif" font-size="10.00">thrust/detail/config</text>
<text text-anchor="middle" x="438" y="-7.5" font-family="Helvetica,sans-Serif" font-size="10.00">/host_device.h</text>
</g>
<!-- Node11&#45;&gt;Node12 -->
<g id="edge11" class="edge"><title>Node11&#45;&gt;Node12</title>
<path fill="none" stroke="midnightblue" d="M438,-67.4751C438,-60.471 438,-50.1919 438,-40.6956"/>
<polygon fill="midnightblue" stroke="midnightblue" points="441.5,-40.5229 438,-30.523 434.5,-40.523 441.5,-40.5229"/>
</g>
<!-- Node13&#45;&gt;Node6 -->
<g id="edge16" class="edge"><title>Node13&#45;&gt;Node6</title>
<path fill="none" stroke="midnightblue" d="M176.789,-128.975C149.001,-118.769 102.277,-101.608 70.8062,-90.0492"/>
<polygon fill="midnightblue" stroke="midnightblue" points="71.7612,-86.6714 61.1676,-86.5091 69.3478,-93.2422 71.7612,-86.6714"/>
</g>
<!-- Node13&#45;&gt;Node11 -->
<g id="edge13" class="edge"><title>Node13&#45;&gt;Node11</title>
<path fill="none" stroke="midnightblue" d="M234.1,-128.975C276.251,-118.437 348.055,-100.486 394.234,-88.9415"/>
<polygon fill="midnightblue" stroke="midnightblue" points="395.111,-92.33 403.964,-86.5091 393.413,-85.539 395.111,-92.33"/>
</g>
<!-- Node13&#45;&gt;Node14 -->
<g id="edge14" class="edge"><title>Node13&#45;&gt;Node14</title>
<path fill="none" stroke="midnightblue" d="M234.947,-128.931C245.219,-126.686 256.512,-124.482 267,-123 486.047,-92.0536 748.797,-82.2318 867.814,-79.242"/>
<polygon fill="midnightblue" stroke="midnightblue" points="867.938,-82.7402 877.85,-78.9977 867.768,-75.7422 867.938,-82.7402"/>
</g>
<!-- Node15 -->
<g id="node15" class="node"><title>Node15</title>
<polygon fill="none" stroke="#bfbfbf" points="177.5,-67.5 177.5,-86.5 222.5,-86.5 222.5,-67.5 177.5,-67.5"/>
<text text-anchor="middle" x="200" y="-74.5" font-family="Helvetica,sans-Serif" font-size="10.00">iosfwd</text>
</g>
<!-- Node13&#45;&gt;Node15 -->
<g id="edge15" class="edge"><title>Node13&#45;&gt;Node15</title>
<path fill="none" stroke="midnightblue" d="M200,-128.975C200,-120.58 200,-107.481 200,-96.6631"/>
<polygon fill="midnightblue" stroke="midnightblue" points="203.5,-96.5091 200,-86.5091 196.5,-96.5091 203.5,-96.5091"/>
</g>
<!-- Node16 -->
<g id="node16" class="node"><title>Node16</title>
<polygon fill="none" stroke="#bfbfbf" points="98.5,-67.5 98.5,-86.5 145.5,-86.5 145.5,-67.5 98.5,-67.5"/>
<text text-anchor="middle" x="122" y="-74.5" font-family="Helvetica,sans-Serif" font-size="10.00">math.h</text>
</g>
<!-- Node13&#45;&gt;Node16 -->
<g id="edge17" class="edge"><title>Node13&#45;&gt;Node16</title>
<path fill="none" stroke="midnightblue" d="M188.825,-128.975C176.429,-119.52 156.21,-104.096 141.254,-92.6871"/>
<polygon fill="midnightblue" stroke="midnightblue" points="143.228,-89.7914 133.155,-86.5091 138.983,-95.357 143.228,-89.7914"/>
</g>
<!-- Node17&#45;&gt;Node6 -->
<g id="edge22" class="edge"><title>Node17&#45;&gt;Node6</title>
<path fill="none" stroke="midnightblue" d="M181.531,-190.376C164.588,-182.093 139.143,-168.697 119,-154 94.061,-135.804 68.6363,-110.644 53.0866,-94.3463"/>
<polygon fill="midnightblue" stroke="midnightblue" points="55.3106,-91.6022 45.9101,-86.7153 50.2113,-96.3978 55.3106,-91.6022"/>
</g>
<!-- Node17&#45;&gt;Node11 -->
<g id="edge19" class="edge"><title>Node17&#45;&gt;Node11</title>
<path fill="none" stroke="midnightblue" d="M232.006,-190.491C258.731,-182.768 297.421,-170.131 329,-154 363.155,-136.553 398.918,-109.715 419.796,-93.0407"/>
<polygon fill="midnightblue" stroke="midnightblue" points="422.214,-95.5863 427.784,-86.574 417.81,-90.1456 422.214,-95.5863"/>
</g>
<!-- Node17&#45;&gt;Node13 -->
<g id="edge24" class="edge"><title>Node17&#45;&gt;Node13</title>
<path fill="none" stroke="midnightblue" d="M200,-190.475C200,-182.08 200,-168.981 200,-158.163"/>
<polygon fill="midnightblue" stroke="midnightblue" points="203.5,-158.009 200,-148.009 196.5,-158.009 203.5,-158.009"/>
</g>
<!-- Node17&#45;&gt;Node14 -->
<g id="edge20" class="edge"><title>Node17&#45;&gt;Node14</title>
<path fill="none" stroke="midnightblue" d="M231.155,-190.498C296.808,-172.683 447.63,-132.311 500,-123 629.485,-99.9787 783.052,-87.4387 867.786,-81.7839"/>
<polygon fill="midnightblue" stroke="midnightblue" points="868.022,-85.276 877.771,-81.1282 867.564,-78.2911 868.022,-85.276"/>
</g>
<!-- Node17&#45;&gt;Node16 -->
<g id="edge21" class="edge"><title>Node17&#45;&gt;Node16</title>
<path fill="none" stroke="midnightblue" d="M178.598,-190.35C163.325,-183.014 143.67,-170.96 133,-154 122.26,-136.929 120.372,-113.493 120.625,-97.1773"/>
<polygon fill="midnightblue" stroke="midnightblue" points="124.141,-96.894 121.091,-86.7476 117.148,-96.5813 124.141,-96.894"/>
</g>
<!-- Node18 -->
<g id="node18" class="node"><title>Node18</title>
<polygon fill="none" stroke="#bfbfbf" points="276,-129 276,-148 320,-148 320,-129 276,-129"/>
<text text-anchor="middle" x="298" y="-136" font-family="Helvetica,sans-Serif" font-size="10.00">cmath</text>
</g>
<!-- Node17&#45;&gt;Node18 -->
<g id="edge23" class="edge"><title>Node17&#45;&gt;Node18</title>
<path fill="none" stroke="midnightblue" d="M214.041,-190.475C230.051,-180.755 256.45,-164.727 275.374,-153.237"/>
<polygon fill="midnightblue" stroke="midnightblue" points="277.254,-156.191 283.985,-148.009 273.621,-150.207 277.254,-156.191"/>
</g>
<!-- Node19&#45;&gt;Node2 -->
<g id="edge30" class="edge"><title>Node19&#45;&gt;Node2</title>
<path fill="none" stroke="midnightblue" d="M672,-251.975C672,-243.58 672,-230.481 672,-219.663"/>
<polygon fill="midnightblue" stroke="midnightblue" points="675.5,-219.509 672,-209.509 668.5,-219.509 675.5,-219.509"/>
</g>
<!-- Node19&#45;&gt;Node11 -->
<g id="edge27" class="edge"><title>Node19&#45;&gt;Node11</title>
<path fill="none" stroke="midnightblue" d="M607.835,-255.695C571.025,-249.906 526.097,-237.304 495,-210 460.556,-179.757 446.198,-124.986 440.833,-96.4341"/>
<polygon fill="midnightblue" stroke="midnightblue" points="444.281,-95.8354 439.145,-86.5686 437.381,-97.0155 444.281,-95.8354"/>
</g>
<!-- Node19&#45;&gt;Node13 -->
<g id="edge28" class="edge"><title>Node19&#45;&gt;Node13</title>
<path fill="none" stroke="midnightblue" d="M622.247,-251.943C571.925,-242.92 492.066,-227.591 424,-210 355.703,-192.35 277.403,-166.354 233.819,-151.356"/>
<polygon fill="midnightblue" stroke="midnightblue" points="234.882,-148.02 224.287,-148.06 232.595,-154.636 234.882,-148.02"/>
</g>
<!-- Node19&#45;&gt;Node14 -->
<g id="edge31" class="edge"><title>Node19&#45;&gt;Node14</title>
<path fill="none" stroke="midnightblue" d="M662.689,-251.809C648.526,-237.553 624.838,-208.901 641,-190 707.956,-111.696 780.653,-205.301 870,-154 893.923,-140.264 912.396,-113.478 922.737,-95.6596"/>
<polygon fill="midnightblue" stroke="midnightblue" points="925.848,-97.2668 927.629,-86.8226 919.724,-93.8768 925.848,-97.2668"/>
</g>
<!-- Node19&#45;&gt;Node17 -->
<g id="edge29" class="edge"><title>Node19&#45;&gt;Node17</title>
<path fill="none" stroke="midnightblue" d="M607.853,-252.414C518.902,-241.201 358.81,-221.02 267.905,-209.56"/>
<polygon fill="midnightblue" stroke="midnightblue" points="268.07,-206.053 257.711,-208.275 267.195,-212.998 268.07,-206.053"/>
</g>
<!-- Node19&#45;&gt;Node20 -->
<g id="edge32" class="edge"><title>Node19&#45;&gt;Node20</title>
<path fill="none" stroke="midnightblue" d="M685.898,-251.975C701.672,-242.299 727.637,-226.372 746.349,-214.894"/>
<polygon fill="midnightblue" stroke="midnightblue" points="748.434,-217.721 755.128,-209.509 744.774,-211.754 748.434,-217.721"/>
</g>
<!-- Node19&#45;&gt;Node21 -->
<g id="edge33" class="edge"><title>Node19&#45;&gt;Node21</title>
<path fill="none" stroke="midnightblue" d="M704.094,-251.975C743.599,-241.482 810.779,-223.637 854.261,-212.087"/>
<polygon fill="midnightblue" stroke="midnightblue" points="855.199,-215.459 863.966,-209.509 853.402,-208.694 855.199,-215.459"/>
</g>
<!-- Node22 -->
<g id="node22" class="node"><title>Node22</title>
<polygon fill="none" stroke="#bfbfbf" points="504.5,-190.5 504.5,-209.5 593.5,-209.5 593.5,-190.5 504.5,-190.5"/>
<text text-anchor="middle" x="549" y="-197.5" font-family="Helvetica,sans-Serif" font-size="10.00">thrust/complex.h</text>
</g>
<!-- Node19&#45;&gt;Node22 -->
<g id="edge34" class="edge"><title>Node19&#45;&gt;Node22</title>
<path fill="none" stroke="midnightblue" d="M654.377,-251.975C633.826,-242.034 599.636,-225.495 575.793,-213.961"/>
<polygon fill="midnightblue" stroke="midnightblue" points="577.116,-210.713 566.59,-209.509 574.068,-217.015 577.116,-210.713"/>
</g>
<!-- Node23&#45;&gt;Node11 -->
<g id="edge36" class="edge"><title>Node23&#45;&gt;Node11</title>
<path fill="none" stroke="midnightblue" d="M532.511,-313.45C529.082,-296.552 521.825,-267.748 509,-246 497.821,-227.043 487.987,-227.767 475,-210 458.212,-187.034 452.194,-181.242 444,-154 438.349,-135.214 437.231,-112.705 437.29,-97.0813"/>
<polygon fill="midnightblue" stroke="midnightblue" points="440.798,-96.7232 437.51,-86.6517 433.8,-96.5757 440.798,-96.7232"/>
</g>
<!-- Node23&#45;&gt;Node13 -->
<g id="edge39" class="edge"><title>Node23&#45;&gt;Node13</title>
<path fill="none" stroke="midnightblue" d="M529.238,-313.44C521.024,-295.155 504.214,-263.494 480,-246 432.098,-211.391 407.427,-230.498 352,-210 306.407,-193.139 255.569,-168.25 225.761,-152.998"/>
<polygon fill="midnightblue" stroke="midnightblue" points="226.988,-149.693 216.496,-148.221 223.78,-155.915 226.988,-149.693"/>
</g>
<!-- Node23&#45;&gt;Node14 -->
<g id="edge37" class="edge"><title>Node23&#45;&gt;Node14</title>
<path fill="none" stroke="midnightblue" d="M537.017,-313.251C538.764,-296.411 539.688,-267.911 530,-246 518.132,-219.157 477.006,-213.187 495,-190 540.457,-131.424 757.72,-98.2282 867.786,-84.9122"/>
<polygon fill="midnightblue" stroke="midnightblue" points="868.256,-88.381 877.772,-83.7231 867.428,-81.4301 868.256,-88.381"/>
</g>
<!-- Node23&#45;&gt;Node17 -->
<g id="edge40" class="edge"><title>Node23&#45;&gt;Node17</title>
<path fill="none" stroke="midnightblue" d="M521.771,-313.477C501.687,-292.506 464.042,-254.521 447,-246 430.985,-237.993 333.77,-221.725 266.19,-211.1"/>
<polygon fill="midnightblue" stroke="midnightblue" points="266.453,-207.599 256.032,-209.511 265.37,-214.515 266.453,-207.599"/>
</g>
<!-- Node23&#45;&gt;Node19 -->
<g id="edge38" class="edge"><title>Node23&#45;&gt;Node19</title>
<path fill="none" stroke="midnightblue" d="M564.727,-313.396C588.552,-302.092 621.709,-286.361 644.831,-275.39"/>
<polygon fill="midnightblue" stroke="midnightblue" points="646.535,-278.456 654.07,-271.007 643.535,-272.131 646.535,-278.456"/>
</g>
<!-- Node23&#45;&gt;Node24 -->
<g id="edge41" class="edge"><title>Node23&#45;&gt;Node24</title>
<path fill="none" stroke="midnightblue" d="M484.446,-315.259C444.748,-305.458 388.154,-291.069 339,-277 335.679,-276.05 332.234,-275.029 328.792,-273.985"/>
<polygon fill="midnightblue" stroke="midnightblue" points="329.787,-270.63 319.199,-271.023 327.721,-277.318 329.787,-270.63"/>
</g>
<!-- Node23&#45;&gt;Node25 -->
<g id="edge42" class="edge"><title>Node23&#45;&gt;Node25</title>
<path fill="none" stroke="midnightblue" d="M504.188,-313.396C483.347,-303.856 455.618,-291.163 433.065,-280.84"/>
<polygon fill="midnightblue" stroke="midnightblue" points="434.301,-277.556 423.752,-276.577 431.388,-283.921 434.301,-277.556"/>
</g>
<!-- Node26&#45;&gt;Node11 -->
<g id="edge44" class="edge"><title>Node26&#45;&gt;Node11</title>
<path fill="none" stroke="midnightblue" d="M211.389,-313.694C190.668,-305.85 167.878,-294.086 152,-277 105.054,-226.483 85.6492,-173.138 133,-123 165.314,-88.7841 297.155,-80.3418 376.538,-78.4093"/>
<polygon fill="midnightblue" stroke="midnightblue" points="376.977,-81.9008 386.899,-78.1866 376.827,-74.9024 376.977,-81.9008"/>
</g>
<!-- Node26&#45;&gt;Node13 -->
<g id="edge47" class="edge"><title>Node26&#45;&gt;Node13</title>
<path fill="none" stroke="midnightblue" d="M235.946,-313.375C204.435,-294.584 153.118,-258.065 133,-210 122.973,-186.043 149.18,-165.424 171.701,-152.781"/>
<polygon fill="midnightblue" stroke="midnightblue" points="173.494,-155.792 180.695,-148.021 170.22,-149.605 173.494,-155.792"/>
</g>
<!-- Node26&#45;&gt;Node14 -->
<g id="edge45" class="edge"><title>Node26&#45;&gt;Node14</title>
<path fill="none" stroke="midnightblue" d="M253.593,-313.261C244.568,-295.915 233.26,-266.407 247,-246 267.293,-215.86 514.808,-132.04 550,-123 659.407,-94.8962 791.014,-84.2849 867.715,-80.3197"/>
<polygon fill="midnightblue" stroke="midnightblue" points="867.892,-83.8153 877.707,-79.8248 867.546,-76.8239 867.892,-83.8153"/>
</g>
<!-- Node26&#45;&gt;Node17 -->
<g id="edge48" class="edge"><title>Node26&#45;&gt;Node17</title>
<path fill="none" stroke="midnightblue" d="M244.225,-313.447C233.782,-304.209 221.247,-291.227 214,-277 204.886,-259.107 201.644,-236.158 200.522,-220.181"/>
<polygon fill="midnightblue" stroke="midnightblue" points="204.007,-219.771 200.027,-209.952 197.015,-220.109 204.007,-219.771"/>
</g>
<!-- Node26&#45;&gt;Node19 -->
<g id="edge46" class="edge"><title>Node26&#45;&gt;Node19</title>
<path fill="none" stroke="midnightblue" d="M312.685,-319.465C387.268,-307.64 526.533,-285.562 608.047,-272.639"/>
<polygon fill="midnightblue" stroke="midnightblue" points="608.851,-276.055 618.18,-271.032 607.755,-269.142 608.851,-276.055"/>
</g>
<!-- Node26&#45;&gt;Node24 -->
<g id="edge49" class="edge"><title>Node26&#45;&gt;Node24</title>
<path fill="none" stroke="midnightblue" d="M268.727,-313.396C273.321,-303.763 279.448,-290.914 284.398,-280.537"/>
<polygon fill="midnightblue" stroke="midnightblue" points="287.708,-281.727 288.853,-271.195 281.389,-278.714 287.708,-281.727"/>
</g>
<!-- Node26&#45;&gt;Node25 -->
<g id="edge50" class="edge"><title>Node26&#45;&gt;Node25</title>
<path fill="none" stroke="midnightblue" d="M290.425,-313.396C309.48,-303.941 334.776,-291.39 355.48,-281.117"/>
<polygon fill="midnightblue" stroke="midnightblue" points="357.228,-284.157 364.63,-276.577 354.117,-277.886 357.228,-284.157"/>
</g>
<!-- Node27&#45;&gt;Node11 -->
<g id="edge52" class="edge"><title>Node27&#45;&gt;Node11</title>
<path fill="none" stroke="midnightblue" d="M999.279,-313.308C1006.49,-286.278 1017.73,-226.829 990,-190 959.056,-148.907 928.646,-170.724 880,-154 841.578,-140.791 833.505,-132.494 794,-123 692.245,-98.5457 570.739,-86.8083 499.22,-81.6281"/>
<polygon fill="midnightblue" stroke="midnightblue" points="499.26,-78.1223 489.039,-80.9106 498.768,-85.105 499.26,-78.1223"/>
</g>
<!-- Node27&#45;&gt;Node14 -->
<g id="edge54" class="edge"><title>Node27&#45;&gt;Node14</title>
<path fill="none" stroke="midnightblue" d="M1008.63,-313.343C1040.78,-278.224 1115.31,-185.435 1070,-123 1052.99,-99.5681 1023.46,-88.1046 996.063,-82.5865"/>
<polygon fill="midnightblue" stroke="midnightblue" points="996.553,-79.1187 986.094,-80.8113 995.325,-86.0103 996.553,-79.1187"/>
</g>
<!-- Node27&#45;&gt;Node19 -->
<g id="edge55" class="edge"><title>Node27&#45;&gt;Node19</title>
<path fill="none" stroke="midnightblue" d="M944.176,-317.272C884.22,-305.207 785.053,-285.251 724.414,-273.048"/>
<polygon fill="midnightblue" stroke="midnightblue" points="724.786,-269.552 714.292,-271.011 723.405,-276.415 724.786,-269.552"/>
</g>
<!-- Node28 -->
<g id="node28" class="node"><title>Node28</title>
<polygon fill="none" stroke="#bfbfbf" points="1115.5,-252 1115.5,-271 1200.5,-271 1200.5,-252 1115.5,-252"/>
<text text-anchor="middle" x="1158" y="-259" font-family="Helvetica,sans-Serif" font-size="10.00">thrust/random.h</text>
</g>
<!-- Node27&#45;&gt;Node28 -->
<g id="edge53" class="edge"><title>Node27&#45;&gt;Node28</title>
<path fill="none" stroke="midnightblue" d="M1030.37,-313.396C1059.22,-301.89 1099.58,-285.797 1127.14,-274.807"/>
<polygon fill="midnightblue" stroke="midnightblue" points="1128.67,-277.962 1136.67,-271.007 1126.08,-271.46 1128.67,-277.962"/>
</g>
<!-- Node29&#45;&gt;Node11 -->
<g id="edge57" class="edge"><title>Node29&#45;&gt;Node11</title>
<path fill="none" stroke="midnightblue" d="M1175.63,-313.457C1197.13,-297.055 1225.57,-269.209 1209,-246 1202.89,-237.442 861.262,-125.292 851,-123 727.973,-95.523 580.432,-84.5895 499.192,-80.4174"/>
<polygon fill="midnightblue" stroke="midnightblue" points="499.3,-76.9186 489.139,-79.9185 498.953,-83.91 499.3,-76.9186"/>
</g>
<!-- Node29&#45;&gt;Node14 -->
<g id="edge59" class="edge"><title>Node29&#45;&gt;Node14</title>
<path fill="none" stroke="midnightblue" d="M1198.75,-313.32C1215.68,-305.449 1233.29,-293.768 1243,-277 1249.9,-265.077 1247.85,-258.897 1243,-246 1205.48,-146.15 1075.54,-104.442 995.977,-87.9539"/>
<polygon fill="midnightblue" stroke="midnightblue" points="996.547,-84.4988 986.056,-85.9741 995.177,-91.3634 996.547,-84.4988"/>
</g>
<!-- Node29&#45;&gt;Node28 -->
<g id="edge58" class="edge"><title>Node29&#45;&gt;Node28</title>
<path fill="none" stroke="midnightblue" d="M1155.65,-313.396C1156.09,-303.963 1156.66,-291.448 1157.14,-281.189"/>
<polygon fill="midnightblue" stroke="midnightblue" points="1160.63,-281.345 1157.6,-271.195 1153.64,-281.023 1160.63,-281.345"/>
</g>
<!-- Node30&#45;&gt;Node11 -->
<g id="edge61" class="edge"><title>Node30&#45;&gt;Node11</title>
<path fill="none" stroke="midnightblue" d="M960.241,-129.898C943.613,-127.53 925.037,-125.014 908,-123 761.62,-105.698 588.985,-90.4996 499.202,-82.9865"/>
<polygon fill="midnightblue" stroke="midnightblue" points="499.453,-79.4954 489.197,-82.1524 498.872,-86.4712 499.453,-79.4954"/>
</g>
<!-- Node30&#45;&gt;Node14 -->
<g id="edge62" class="edge"><title>Node30&#45;&gt;Node14</title>
<path fill="none" stroke="midnightblue" d="M992.278,-123.399C980.088,-114.218 964.208,-102.258 951.807,-92.9182"/>
<polygon fill="midnightblue" stroke="midnightblue" points="953.589,-89.8782 943.495,-86.6578 949.377,-95.4697 953.589,-89.8782"/>
</g>
<!-- Node31&#45;&gt;Node32 -->
<g id="edge64" class="edge"><title>Node31&#45;&gt;Node32</title>
<path fill="none" stroke="midnightblue" d="M1799.67,-318.869C1781.67,-309.357 1752.16,-293.765 1728.74,-281.389"/>
<polygon fill="midnightblue" stroke="midnightblue" points="1730.26,-278.229 1719.78,-276.652 1726.99,-284.418 1730.26,-278.229"/>
</g>
<!-- Node33 -->
<g id="node33" class="node"><title>Node33</title>
<polygon fill="none" stroke="#bfbfbf" points="1881.5,-246.5 1881.5,-276.5 2000.5,-276.5 2000.5,-246.5 1881.5,-246.5"/>
<text text-anchor="start" x="1889.5" y="-264.5" font-family="Helvetica,sans-Serif" font-size="10.00">thrust/iterator/transform</text>
<text text-anchor="middle" x="1941" y="-253.5" font-family="Helvetica,sans-Serif" font-size="10.00">_iterator.h</text>
</g>
<!-- Node31&#45;&gt;Node33 -->
<g id="edge65" class="edge"><title>Node31&#45;&gt;Node33</title>
<path fill="none" stroke="midnightblue" d="M1832.6,-318.869C1850.89,-309.357 1880.87,-293.765 1904.68,-281.389"/>
<polygon fill="midnightblue" stroke="midnightblue" points="1906.53,-284.37 1913.79,-276.652 1903.3,-278.16 1906.53,-284.37"/>
</g>
<!-- Node34 -->
<g id="node34" class="node"><title>Node34</title>
<polygon fill="none" stroke="#bfbfbf" points="2019,-246.5 2019,-276.5 2147,-276.5 2147,-246.5 2019,-246.5"/>
<text text-anchor="start" x="2027" y="-264.5" font-family="Helvetica,sans-Serif" font-size="10.00">thrust/iterator/permutation</text>
<text text-anchor="middle" x="2083" y="-253.5" font-family="Helvetica,sans-Serif" font-size="10.00">_iterator.h</text>
</g>
<!-- Node31&#45;&gt;Node34 -->
<g id="edge66" class="edge"><title>Node31&#45;&gt;Node34</title>
<path fill="none" stroke="midnightblue" d="M1851.18,-318.936C1892.82,-308.799 1963.09,-291.691 2015.38,-278.963"/>
<polygon fill="midnightblue" stroke="midnightblue" points="2016.36,-282.325 2025.25,-276.559 2014.71,-275.524 2016.36,-282.325"/>
</g>
<!-- Node35 -->
<g id="node35" class="node"><title>Node35</title>
<polygon fill="none" stroke="#bfbfbf" points="1768.5,-252 1768.5,-271 1863.5,-271 1863.5,-252 1768.5,-252"/>
<text text-anchor="middle" x="1816" y="-259" font-family="Helvetica,sans-Serif" font-size="10.00">thrust/functional.h</text>
</g>
<!-- Node31&#45;&gt;Node35 -->
<g id="edge67" class="edge"><title>Node31&#45;&gt;Node35</title>
<path fill="none" stroke="midnightblue" d="M1816,-318.734C1816,-309.183 1816,-293.618 1816,-281.283"/>
<polygon fill="midnightblue" stroke="midnightblue" points="1819.5,-281.127 1816,-271.127 1812.5,-281.127 1819.5,-281.127"/>
</g>
</g>
</svg>
