<?xml version="1.0" encoding="UTF-8" standalone="no"?>
<!DOCTYPE svg PUBLIC "-//W3C//DTD SVG 1.1//EN"
 "http://www.w3.org/Graphics/SVG/1.1/DTD/svg11.dtd">
<!-- Generated by graphviz version 2.38.0 (20140413.2041)
 -->
<!-- Title: MCBooster::Vector4R::mass Pages: 1 -->
<svg width="293pt" height="88pt"
 viewBox="0.00 0.00 293.00 88.00" xmlns="http://www.w3.org/2000/svg" xmlns:xlink="http://www.w3.org/1999/xlink">
<g id="graph0" class="graph" transform="scale(1 1) rotate(0) translate(4 84)">
<title>MCBooster::Vector4R::mass</title>
<!-- Node1 -->
<g id="node1" class="node"><title>Node1</title>
<polygon fill="#bfbfbf" stroke="black" points="0,-24.5 0,-54.5 113,-54.5 113,-24.5 0,-24.5"/>
<text text-anchor="start" x="8" y="-42.5" font-family="Helvetica,sans-Serif" font-size="10.00">MCBooster::Vector4R</text>
<text text-anchor="middle" x="56.5" y="-31.5" font-family="Helvetica,sans-Serif" font-size="10.00">::mass</text>
</g>
<!-- Node2 -->
<g id="node2" class="node"><title>Node2</title>
<g id="a_node2"><a xlink:href="struct_m_c_booster_1_1_decay_mother.html#a5d7961da85ec6ab442c05e1c1705e488" target="_top" xlink:title="MCBooster::DecayMother\l::DecayMother">
<polygon fill="none" stroke="black" points="151.5,-49.5 151.5,-79.5 282.5,-79.5 282.5,-49.5 151.5,-49.5"/>
<text text-anchor="start" x="159.5" y="-67.5" font-family="Helvetica,sans-Serif" font-size="10.00">MCBooster::DecayMother</text>
<text text-anchor="middle" x="217" y="-56.5" font-family="Helvetica,sans-Serif" font-size="10.00">::DecayMother</text>
</a>
</g>
</g>
<!-- Node1&#45;&gt;Node2 -->
<g id="edge1" class="edge"><title>Node1&#45;&gt;Node2</title>
<path fill="none" stroke="midnightblue" d="M123.332,-49.8836C132.617,-51.3481 142.155,-52.8525 151.416,-54.3132"/>
<polygon fill="midnightblue" stroke="midnightblue" points="123.804,-46.4149 113.381,-48.3141 122.714,-53.3294 123.804,-46.4149"/>
</g>
<!-- Node3 -->
<g id="node3" class="node"><title>Node3</title>
<g id="a_node3"><a xlink:href="struct_m_c_booster_1_1_decay_mothers.html#afcd4e118b5ebd8731fe19143d792b4c2" target="_top" xlink:title="MCBooster::DecayMothers\l::process">
<polygon fill="none" stroke="black" points="149,-0.5 149,-30.5 285,-30.5 285,-0.5 149,-0.5"/>
<text text-anchor="start" x="157" y="-18.5" font-family="Helvetica,sans-Serif" font-size="10.00">MCBooster::DecayMothers</text>
<text text-anchor="middle" x="217" y="-7.5" font-family="Helvetica,sans-Serif" font-size="10.00">::process</text>
</a>
</g>
</g>
<!-- Node1&#45;&gt;Node3 -->
<g id="edge2" class="edge"><title>Node1&#45;&gt;Node3</title>
<path fill="none" stroke="midnightblue" d="M123.506,-29.5054C131.911,-28.2327 140.521,-26.929 148.942,-25.6538"/>
<polygon fill="midnightblue" stroke="midnightblue" points="122.744,-26.0807 113.381,-31.0385 123.792,-33.0018 122.744,-26.0807"/>
</g>
</g>
</svg>
