<?xml version="1.0" encoding="UTF-8" standalone="no"?>
<!DOCTYPE svg PUBLIC "-//W3C//DTD SVG 1.1//EN"
 "http://www.w3.org/Graphics/SVG/1.1/DTD/svg11.dtd">
<!-- Generated by graphviz version 2.38.0 (20140413.2041)
 -->
<!-- Title: MCBooster::DecayMother::DecayMother Pages: 1 -->
<svg width="308pt" height="127pt"
 viewBox="0.00 0.00 308.00 127.00" xmlns="http://www.w3.org/2000/svg" xmlns:xlink="http://www.w3.org/1999/xlink">
<g id="graph0" class="graph" transform="scale(1 1) rotate(0) translate(4 123)">
<title>MCBooster::DecayMother::DecayMother</title>
<!-- Node1 -->
<g id="node1" class="node"><title>Node1</title>
<polygon fill="#bfbfbf" stroke="black" points="0,-44.5 0,-74.5 131,-74.5 131,-44.5 0,-44.5"/>
<text text-anchor="start" x="8" y="-62.5" font-family="Helvetica,sans-Serif" font-size="10.00">MCBooster::DecayMother</text>
<text text-anchor="middle" x="65.5" y="-51.5" font-family="Helvetica,sans-Serif" font-size="10.00">::DecayMother</text>
</g>
<!-- Node2 -->
<g id="node2" class="node"><title>Node2</title>
<g id="a_node2"><a xlink:href="class_m_c_booster_1_1_vector4_r.html#aff8af4cb8308a0d8a81e404670cab152" target="_top" xlink:title="MCBooster::Vector4R\l::d3mag">
<polygon fill="none" stroke="black" points="177,-88.5 177,-118.5 290,-118.5 290,-88.5 177,-88.5"/>
<text text-anchor="start" x="185" y="-106.5" font-family="Helvetica,sans-Serif" font-size="10.00">MCBooster::Vector4R</text>
<text text-anchor="middle" x="233.5" y="-95.5" font-family="Helvetica,sans-Serif" font-size="10.00">::d3mag</text>
</a>
</g>
</g>
<!-- Node1&#45;&gt;Node2 -->
<g id="edge1" class="edge"><title>Node1&#45;&gt;Node2</title>
<path fill="none" stroke="midnightblue" d="M123.163,-74.5192C137.281,-78.2613 152.533,-82.304 167.037,-86.1483"/>
<polygon fill="midnightblue" stroke="midnightblue" points="166.372,-89.5929 176.935,-88.7719 168.166,-82.8266 166.372,-89.5929"/>
</g>
<!-- Node3 -->
<g id="node3" class="node"><title>Node3</title>
<g id="a_node3"><a xlink:href="class_m_c_booster_1_1_vector4_r.html#ac6a62ed3258978171cd12c95edd1c598" target="_top" xlink:title="MCBooster::Vector4R::get">
<polygon fill="none" stroke="black" points="167,-50 167,-69 300,-69 300,-50 167,-50"/>
<text text-anchor="middle" x="233.5" y="-57" font-family="Helvetica,sans-Serif" font-size="10.00">MCBooster::Vector4R::get</text>
</a>
</g>
</g>
<!-- Node1&#45;&gt;Node3 -->
<g id="edge2" class="edge"><title>Node1&#45;&gt;Node3</title>
<path fill="none" stroke="midnightblue" d="M131.155,-59.5C139.596,-59.5 148.303,-59.5 156.903,-59.5"/>
<polygon fill="midnightblue" stroke="midnightblue" points="156.928,-63.0001 166.928,-59.5 156.928,-56.0001 156.928,-63.0001"/>
</g>
<!-- Node4 -->
<g id="node4" class="node"><title>Node4</title>
<g id="a_node4"><a xlink:href="class_m_c_booster_1_1_vector4_r.html#adb1d3b9ae1c40d11abee97c603efe421" target="_top" xlink:title="MCBooster::Vector4R\l::mass">
<polygon fill="none" stroke="black" points="177,-0.5 177,-30.5 290,-30.5 290,-0.5 177,-0.5"/>
<text text-anchor="start" x="185" y="-18.5" font-family="Helvetica,sans-Serif" font-size="10.00">MCBooster::Vector4R</text>
<text text-anchor="middle" x="233.5" y="-7.5" font-family="Helvetica,sans-Serif" font-size="10.00">::mass</text>
</a>
</g>
</g>
<!-- Node1&#45;&gt;Node4 -->
<g id="edge3" class="edge"><title>Node1&#45;&gt;Node4</title>
<path fill="none" stroke="midnightblue" d="M123.163,-44.4808C137.281,-40.7387 152.533,-36.696 167.037,-32.8517"/>
<polygon fill="midnightblue" stroke="midnightblue" points="168.166,-36.1734 176.935,-30.2281 166.372,-29.4071 168.166,-36.1734"/>
</g>
</g>
</svg>
