<?xml version="1.0" encoding="UTF-8" standalone="no"?>
<!DOCTYPE svg PUBLIC "-//W3C//DTD SVG 1.1//EN"
 "http://www.w3.org/Graphics/SVG/1.1/DTD/svg11.dtd">
<!-- Generated by graphviz version 2.38.0 (20140413.2041)
 -->
<!-- Title: MCBooster::DecayMothers::process Pages: 1 -->
<svg width="482pt" height="215pt"
 viewBox="0.00 0.00 482.00 214.50" xmlns="http://www.w3.org/2000/svg" xmlns:xlink="http://www.w3.org/1999/xlink">
<g id="graph0" class="graph" transform="scale(1 1) rotate(0) translate(4 210.5)">
<title>MCBooster::DecayMothers::process</title>
<!-- Node1 -->
<g id="node1" class="node"><title>Node1</title>
<polygon fill="#bfbfbf" stroke="black" points="0,-88 0,-118 136,-118 136,-88 0,-88"/>
<text text-anchor="start" x="8" y="-106" font-family="Helvetica,sans-Serif" font-size="10.00">MCBooster::DecayMothers</text>
<text text-anchor="middle" x="68" y="-95" font-family="Helvetica,sans-Serif" font-size="10.00">::process</text>
</g>
<!-- Node2 -->
<g id="node2" class="node"><title>Node2</title>
<g id="a_node2"><a xlink:href="class_m_c_booster_1_1_vector4_r.html#a4e0374fc1088cfbe9681959eb5956ba2" target="_top" xlink:title="MCBooster::Vector4R\l::applyBoostTo">
<polygon fill="none" stroke="black" points="182,-176 182,-206 295,-206 295,-176 182,-176"/>
<text text-anchor="start" x="190" y="-194" font-family="Helvetica,sans-Serif" font-size="10.00">MCBooster::Vector4R</text>
<text text-anchor="middle" x="238.5" y="-183" font-family="Helvetica,sans-Serif" font-size="10.00">::applyBoostTo</text>
</a>
</g>
</g>
<!-- Node1&#45;&gt;Node2 -->
<g id="edge1" class="edge"><title>Node1&#45;&gt;Node2</title>
<path fill="none" stroke="midnightblue" d="M94.498,-118.143C115.148,-130.214 145.12,-147.306 172,-161 179.052,-164.593 186.621,-168.243 194.019,-171.702"/>
<polygon fill="midnightblue" stroke="midnightblue" points="192.7,-174.948 203.247,-175.962 195.635,-168.593 192.7,-174.948"/>
</g>
<!-- Node3 -->
<g id="node3" class="node"><title>Node3</title>
<g id="a_node3"><a xlink:href="class_m_c_booster_1_1_vector4_r.html#ac6a62ed3258978171cd12c95edd1c598" target="_top" xlink:title="MCBooster::Vector4R::get">
<polygon fill="none" stroke="black" points="341,-159.5 341,-178.5 474,-178.5 474,-159.5 341,-159.5"/>
<text text-anchor="middle" x="407.5" y="-166.5" font-family="Helvetica,sans-Serif" font-size="10.00">MCBooster::Vector4R::get</text>
</a>
</g>
</g>
<!-- Node1&#45;&gt;Node3 -->
<g id="edge4" class="edge"><title>Node1&#45;&gt;Node3</title>
<path fill="none" stroke="midnightblue" d="M127.948,-118.006C142.32,-121.471 157.679,-125.013 172,-128 226.655,-139.398 288.926,-150.184 335.556,-157.829"/>
<polygon fill="midnightblue" stroke="midnightblue" points="335.126,-161.305 345.559,-159.46 336.253,-154.396 335.126,-161.305"/>
</g>
<!-- Node4 -->
<g id="node4" class="node"><title>Node4</title>
<g id="a_node4"><a xlink:href="class_m_c_booster_1_1_vector4_r.html#aff8af4cb8308a0d8a81e404670cab152" target="_top" xlink:title="MCBooster::Vector4R\l::d3mag">
<polygon fill="none" stroke="black" points="182,-88 182,-118 295,-118 295,-88 182,-88"/>
<text text-anchor="start" x="190" y="-106" font-family="Helvetica,sans-Serif" font-size="10.00">MCBooster::Vector4R</text>
<text text-anchor="middle" x="238.5" y="-95" font-family="Helvetica,sans-Serif" font-size="10.00">::d3mag</text>
</a>
</g>
</g>
<!-- Node1&#45;&gt;Node4 -->
<g id="edge3" class="edge"><title>Node1&#45;&gt;Node4</title>
<path fill="none" stroke="midnightblue" d="M136.08,-103C147.792,-103 159.966,-103 171.645,-103"/>
<polygon fill="midnightblue" stroke="midnightblue" points="171.757,-106.5 181.757,-103 171.757,-99.5001 171.757,-106.5"/>
</g>
<!-- Node5 -->
<g id="node5" class="node"><title>Node5</title>
<g id="a_node5"><a xlink:href="class_m_c_booster_1_1_vector4_r.html#adb1d3b9ae1c40d11abee97c603efe421" target="_top" xlink:title="MCBooster::Vector4R\l::mass">
<polygon fill="none" stroke="black" points="182,-39 182,-69 295,-69 295,-39 182,-39"/>
<text text-anchor="start" x="190" y="-57" font-family="Helvetica,sans-Serif" font-size="10.00">MCBooster::Vector4R</text>
<text text-anchor="middle" x="238.5" y="-46" font-family="Helvetica,sans-Serif" font-size="10.00">::mass</text>
</a>
</g>
</g>
<!-- Node1&#45;&gt;Node5 -->
<g id="edge5" class="edge"><title>Node1&#45;&gt;Node5</title>
<path fill="none" stroke="midnightblue" d="M120.93,-87.8986C138.309,-82.8449 157.85,-77.1624 175.894,-71.9152"/>
<polygon fill="midnightblue" stroke="midnightblue" points="177.116,-75.2048 185.741,-69.0516 175.161,-68.4832 177.116,-75.2048"/>
</g>
<!-- Node6 -->
<g id="node6" class="node"><title>Node6</title>
<g id="a_node6"><a xlink:href="class_m_c_booster_1_1_vector4_r.html#a39c47c7ff5fcd8f5f3501c9201e97eaa" target="_top" xlink:title="MCBooster::Vector4R::set">
<polygon fill="none" stroke="black" points="172,-0.5 172,-19.5 305,-19.5 305,-0.5 172,-0.5"/>
<text text-anchor="middle" x="238.5" y="-7.5" font-family="Helvetica,sans-Serif" font-size="10.00">MCBooster::Vector4R::set</text>
</a>
</g>
</g>
<!-- Node1&#45;&gt;Node6 -->
<g id="edge6" class="edge"><title>Node1&#45;&gt;Node6</title>
<path fill="none" stroke="midnightblue" d="M86.4865,-87.9279C106.133,-71.6582 139.538,-45.9402 172,-30 177.401,-27.3477 183.227,-24.9624 189.098,-22.8423"/>
<polygon fill="midnightblue" stroke="midnightblue" points="190.594,-26.0318 198.955,-19.5242 188.36,-19.3976 190.594,-26.0318"/>
</g>
<!-- Node2&#45;&gt;Node3 -->
<g id="edge2" class="edge"><title>Node2&#45;&gt;Node3</title>
<path fill="none" stroke="midnightblue" d="M295.109,-183.674C306.524,-182.17 318.726,-180.563 330.713,-178.984"/>
<polygon fill="midnightblue" stroke="midnightblue" points="331.254,-182.443 340.711,-177.667 330.339,-175.503 331.254,-182.443"/>
</g>
</g>
</svg>
