<?xml version="1.0" encoding="UTF-8" standalone="no"?>
<!DOCTYPE svg PUBLIC "-//W3C//DTD SVG 1.1//EN"
 "http://www.w3.org/Graphics/SVG/1.1/DTD/svg11.dtd">
<!-- Generated by graphviz version 2.38.0 (20140413.2041)
 -->
<!-- Title: GFunctional.h Pages: 1 -->
<svg width="455pt" height="263pt"
 viewBox="0.00 0.00 454.50 263.00" xmlns="http://www.w3.org/2000/svg" xmlns:xlink="http://www.w3.org/1999/xlink">
<g id="graph0" class="graph" transform="scale(1 1) rotate(0) translate(4 259)">
<title>GFunctional.h</title>
<!-- Node1 -->
<g id="node1" class="node"><title>Node1</title>
<polygon fill="#bfbfbf" stroke="black" points="110.5,-235.5 110.5,-254.5 187.5,-254.5 187.5,-235.5 110.5,-235.5"/>
<text text-anchor="middle" x="149" y="-242.5" font-family="Helvetica,sans-Serif" font-size="10.00">GFunctional.h</text>
</g>
<!-- Node2 -->
<g id="node2" class="node"><title>Node2</title>
<g id="a_node2"><a xlink:href="../../d4/d71/_config_8h.html" target="_top" xlink:title="mcbooster/Config.h">
<polygon fill="none" stroke="black" points="0,-67.5 0,-86.5 102,-86.5 102,-67.5 0,-67.5"/>
<text text-anchor="middle" x="51" y="-74.5" font-family="Helvetica,sans-Serif" font-size="10.00">mcbooster/Config.h</text>
</a>
</g>
</g>
<!-- Node1&#45;&gt;Node2 -->
<g id="edge1" class="edge"><title>Node1&#45;&gt;Node2</title>
<path fill="none" stroke="midnightblue" d="M143.731,-235.075C128.105,-208.606 81.8221,-130.209 61.1599,-95.2097"/>
<polygon fill="midnightblue" stroke="midnightblue" points="64.1561,-93.4001 56.0583,-86.5681 58.1282,-96.9588 64.1561,-93.4001"/>
</g>
<!-- Node4 -->
<g id="node4" class="node"><title>Node4</title>
<g id="a_node4"><a xlink:href="../../dc/d9d/_g_types_8h.html" target="_top" xlink:title="mcbooster/GTypes.h">
<polygon fill="none" stroke="black" points="120,-67.5 120,-86.5 228,-86.5 228,-67.5 120,-67.5"/>
<text text-anchor="middle" x="174" y="-74.5" font-family="Helvetica,sans-Serif" font-size="10.00">mcbooster/GTypes.h</text>
</a>
</g>
</g>
<!-- Node1&#45;&gt;Node4 -->
<g id="edge3" class="edge"><title>Node1&#45;&gt;Node4</title>
<path fill="none" stroke="midnightblue" d="M148.006,-235.388C147.015,-226.342 145.563,-211.694 145,-199 144.606,-190.12 143.761,-187.802 145,-179 149.161,-149.429 159.857,-116.381 167.03,-96.3924"/>
<polygon fill="midnightblue" stroke="midnightblue" points="170.415,-97.3294 170.589,-86.736 163.847,-94.9088 170.415,-97.3294"/>
</g>
<!-- Node5 -->
<g id="node5" class="node"><title>Node5</title>
<g id="a_node5"><a xlink:href="../../d4/d41/_vector3_r_8h.html" target="_top" xlink:title="mcbooster/Vector3R.h">
<polygon fill="none" stroke="black" points="290.5,-123.5 290.5,-142.5 405.5,-142.5 405.5,-123.5 290.5,-123.5"/>
<text text-anchor="middle" x="348" y="-130.5" font-family="Helvetica,sans-Serif" font-size="10.00">mcbooster/Vector3R.h</text>
</a>
</g>
</g>
<!-- Node1&#45;&gt;Node5 -->
<g id="edge4" class="edge"><title>Node1&#45;&gt;Node5</title>
<path fill="none" stroke="midnightblue" d="M186.078,-235.437C212.869,-228.236 249.248,-216.314 278,-199 299.853,-185.841 320.716,-165.03 333.889,-150.512"/>
<polygon fill="midnightblue" stroke="midnightblue" points="336.708,-152.608 340.707,-142.797 331.462,-147.973 336.708,-152.608"/>
</g>
<!-- Node9 -->
<g id="node9" class="node"><title>Node9</title>
<g id="a_node9"><a xlink:href="../../db/de3/_vector4_r_8h.html" target="_top" xlink:title="mcbooster/Vector4R.h">
<polygon fill="none" stroke="black" points="154.5,-179.5 154.5,-198.5 269.5,-198.5 269.5,-179.5 154.5,-179.5"/>
<text text-anchor="middle" x="212" y="-186.5" font-family="Helvetica,sans-Serif" font-size="10.00">mcbooster/Vector4R.h</text>
</a>
</g>
</g>
<!-- Node1&#45;&gt;Node9 -->
<g id="edge10" class="edge"><title>Node1&#45;&gt;Node9</title>
<path fill="none" stroke="midnightblue" d="M159.122,-235.324C168.526,-227.263 182.744,-215.077 194.069,-205.369"/>
<polygon fill="midnightblue" stroke="midnightblue" points="196.379,-207.999 201.694,-198.834 191.823,-202.684 196.379,-207.999"/>
</g>
<!-- Node3 -->
<g id="node3" class="node"><title>Node3</title>
<polygon fill="none" stroke="#bfbfbf" points="2.5,-0.5 2.5,-30.5 99.5,-30.5 99.5,-0.5 2.5,-0.5"/>
<text text-anchor="start" x="10.5" y="-18.5" font-family="Helvetica,sans-Serif" font-size="10.00">thrust/detail/config</text>
<text text-anchor="middle" x="51" y="-7.5" font-family="Helvetica,sans-Serif" font-size="10.00">/host_device.h</text>
</g>
<!-- Node2&#45;&gt;Node3 -->
<g id="edge2" class="edge"><title>Node2&#45;&gt;Node3</title>
<path fill="none" stroke="midnightblue" d="M51,-67.4751C51,-60.471 51,-50.1919 51,-40.6956"/>
<polygon fill="midnightblue" stroke="midnightblue" points="54.5001,-40.5229 51,-30.523 47.5001,-40.523 54.5001,-40.5229"/>
</g>
<!-- Node5&#45;&gt;Node2 -->
<g id="edge5" class="edge"><title>Node5&#45;&gt;Node2</title>
<path fill="none" stroke="midnightblue" d="M300.939,-123.444C248.585,-113.925 164.01,-98.5472 107.96,-88.3563"/>
<polygon fill="midnightblue" stroke="midnightblue" points="108.305,-84.8618 97.8404,-86.5164 107.053,-91.7489 108.305,-84.8618"/>
</g>
<!-- Node5&#45;&gt;Node4 -->
<g id="edge6" class="edge"><title>Node5&#45;&gt;Node4</title>
<path fill="none" stroke="midnightblue" d="M320.429,-123.444C290.903,-114.28 243.882,-99.6876 211.117,-89.5192"/>
<polygon fill="midnightblue" stroke="midnightblue" points="212.03,-86.1378 201.442,-86.5164 209.955,-92.8232 212.03,-86.1378"/>
</g>
<!-- Node6 -->
<g id="node6" class="node"><title>Node6</title>
<polygon fill="none" stroke="#bfbfbf" points="325.5,-67.5 325.5,-86.5 370.5,-86.5 370.5,-67.5 325.5,-67.5"/>
<text text-anchor="middle" x="348" y="-74.5" font-family="Helvetica,sans-Serif" font-size="10.00">iosfwd</text>
</g>
<!-- Node5&#45;&gt;Node6 -->
<g id="edge7" class="edge"><title>Node5&#45;&gt;Node6</title>
<path fill="none" stroke="midnightblue" d="M348,-123.083C348,-116.006 348,-105.861 348,-96.9865"/>
<polygon fill="midnightblue" stroke="midnightblue" points="351.5,-96.751 348,-86.7511 344.5,-96.7511 351.5,-96.751"/>
</g>
<!-- Node7 -->
<g id="node7" class="node"><title>Node7</title>
<polygon fill="none" stroke="#bfbfbf" points="251,-67.5 251,-86.5 305,-86.5 305,-67.5 251,-67.5"/>
<text text-anchor="middle" x="278" y="-74.5" font-family="Helvetica,sans-Serif" font-size="10.00">iostream</text>
</g>
<!-- Node5&#45;&gt;Node7 -->
<g id="edge8" class="edge"><title>Node5&#45;&gt;Node7</title>
<path fill="none" stroke="midnightblue" d="M336.753,-123.324C326.203,-115.185 310.199,-102.839 297.558,-93.0874"/>
<polygon fill="midnightblue" stroke="midnightblue" points="299.507,-90.1707 289.451,-86.8339 295.231,-95.7132 299.507,-90.1707"/>
</g>
<!-- Node8 -->
<g id="node8" class="node"><title>Node8</title>
<polygon fill="none" stroke="#bfbfbf" points="399.5,-67.5 399.5,-86.5 446.5,-86.5 446.5,-67.5 399.5,-67.5"/>
<text text-anchor="middle" x="423" y="-74.5" font-family="Helvetica,sans-Serif" font-size="10.00">math.h</text>
</g>
<!-- Node5&#45;&gt;Node8 -->
<g id="edge9" class="edge"><title>Node5&#45;&gt;Node8</title>
<path fill="none" stroke="midnightblue" d="M360.05,-123.324C371.463,-115.107 388.831,-102.602 402.435,-92.8069"/>
<polygon fill="midnightblue" stroke="midnightblue" points="404.66,-95.5174 410.731,-86.8339 400.57,-89.8366 404.66,-95.5174"/>
</g>
<!-- Node9&#45;&gt;Node2 -->
<g id="edge11" class="edge"><title>Node9&#45;&gt;Node2</title>
<path fill="none" stroke="midnightblue" d="M199.367,-179.368C171.739,-160.492 105.718,-115.385 71.8373,-92.2367"/>
<polygon fill="midnightblue" stroke="midnightblue" points="73.8061,-89.3429 63.5747,-86.5914 69.8571,-95.1227 73.8061,-89.3429"/>
</g>
<!-- Node9&#45;&gt;Node4 -->
<g id="edge12" class="edge"><title>Node9&#45;&gt;Node4</title>
<path fill="none" stroke="midnightblue" d="M204.142,-179.444C196.8,-170.901 186.214,-157.053 181,-143 175.504,-128.185 173.915,-110.26 173.61,-96.9895"/>
<polygon fill="midnightblue" stroke="midnightblue" points="177.11,-96.7189 173.606,-86.7204 170.11,-96.7218 177.11,-96.7189"/>
</g>
<!-- Node9&#45;&gt;Node5 -->
<g id="edge16" class="edge"><title>Node9&#45;&gt;Node5</title>
<path fill="none" stroke="midnightblue" d="M233.55,-179.444C256.031,-170.517 291.488,-156.439 316.98,-146.317"/>
<polygon fill="midnightblue" stroke="midnightblue" points="318.549,-149.46 326.551,-142.516 315.965,-142.954 318.549,-149.46"/>
</g>
<!-- Node9&#45;&gt;Node7 -->
<g id="edge14" class="edge"><title>Node9&#45;&gt;Node7</title>
<path fill="none" stroke="midnightblue" d="M218.469,-179.226C224.954,-170.292 235.084,-155.952 243,-143 252.587,-127.314 262.419,-108.799 269.211,-95.5509"/>
<polygon fill="midnightblue" stroke="midnightblue" points="272.359,-97.0821 273.758,-86.5801 266.115,-93.9171 272.359,-97.0821"/>
</g>
<!-- Node9&#45;&gt;Node8 -->
<g id="edge13" class="edge"><title>Node9&#45;&gt;Node8</title>
<path fill="none" stroke="midnightblue" d="M269.686,-182.442C322.327,-176.122 394.765,-163.873 414,-143 425.209,-130.837 426.599,-111.563 425.702,-97.1563"/>
<polygon fill="midnightblue" stroke="midnightblue" points="429.148,-96.4605 424.636,-86.8747 422.186,-97.1823 429.148,-96.4605"/>
</g>
<!-- Node10 -->
<g id="node10" class="node"><title>Node10</title>
<polygon fill="none" stroke="#bfbfbf" points="190,-123.5 190,-142.5 234,-142.5 234,-123.5 190,-123.5"/>
<text text-anchor="middle" x="212" y="-130.5" font-family="Helvetica,sans-Serif" font-size="10.00">cmath</text>
</g>
<!-- Node9&#45;&gt;Node10 -->
<g id="edge15" class="edge"><title>Node9&#45;&gt;Node10</title>
<path fill="none" stroke="midnightblue" d="M212,-179.083C212,-172.006 212,-161.861 212,-152.986"/>
<polygon fill="midnightblue" stroke="midnightblue" points="215.5,-152.751 212,-142.751 208.5,-152.751 215.5,-152.751"/>
</g>
</g>
</svg>
