<?xml version="1.0" encoding="UTF-8" standalone="no"?>
<!DOCTYPE svg PUBLIC "-//W3C//DTD SVG 1.1//EN"
 "http://www.w3.org/Graphics/SVG/1.1/DTD/svg11.dtd">
<!-- Generated by graphviz version 2.38.0 (20140413.2041)
 -->
<!-- Title: MCBooster::Vector4R::get Pages: 1 -->
<svg width="480pt" height="220pt"
 viewBox="0.00 0.00 480.00 220.00" xmlns="http://www.w3.org/2000/svg" xmlns:xlink="http://www.w3.org/1999/xlink">
<g id="graph0" class="graph" transform="scale(1 1) rotate(0) translate(4 216)">
<title>MCBooster::Vector4R::get</title>
<!-- Node1 -->
<g id="node1" class="node"><title>Node1</title>
<polygon fill="#bfbfbf" stroke="black" points="0,-99 0,-118 133,-118 133,-99 0,-99"/>
<text text-anchor="middle" x="66.5" y="-106" font-family="Helvetica,sans-Serif" font-size="10.00">MCBooster::Vector4R::get</text>
</g>
<!-- Node2 -->
<g id="node2" class="node"><title>Node2</title>
<g id="a_node2"><a xlink:href="../../df/d59/class_m_c_booster_1_1_vector4_r.html#a4e0374fc1088cfbe9681959eb5956ba2" target="_top" xlink:title="MCBooster::Vector4R\l::applyBoostTo">
<polygon fill="none" stroke="black" points="178,-137.5 178,-167.5 291,-167.5 291,-137.5 178,-137.5"/>
<text text-anchor="start" x="186" y="-155.5" font-family="Helvetica,sans-Serif" font-size="10.00">MCBooster::Vector4R</text>
<text text-anchor="middle" x="234.5" y="-144.5" font-family="Helvetica,sans-Serif" font-size="10.00">::applyBoostTo</text>
</a>
</g>
</g>
<!-- Node1&#45;&gt;Node2 -->
<g id="edge1" class="edge"><title>Node1&#45;&gt;Node2</title>
<path fill="none" stroke="midnightblue" d="M113.318,-120.645C133.323,-125.947 156.961,-132.213 177.958,-137.778"/>
<polygon fill="midnightblue" stroke="midnightblue" points="114.083,-117.226 103.52,-118.047 112.289,-123.993 114.083,-117.226"/>
</g>
<!-- Node4 -->
<g id="node4" class="node"><title>Node4</title>
<g id="a_node4"><a xlink:href="../../d4/d95/struct_m_c_booster_1_1_decay_mothers.html#afcd4e118b5ebd8731fe19143d792b4c2" target="_top" xlink:title="MCBooster::DecayMothers\l::process">
<polygon fill="none" stroke="black" points="336,-181.5 336,-211.5 472,-211.5 472,-181.5 336,-181.5"/>
<text text-anchor="start" x="344" y="-199.5" font-family="Helvetica,sans-Serif" font-size="10.00">MCBooster::DecayMothers</text>
<text text-anchor="middle" x="404" y="-188.5" font-family="Helvetica,sans-Serif" font-size="10.00">::process</text>
</a>
</g>
</g>
<!-- Node1&#45;&gt;Node4 -->
<g id="edge6" class="edge"><title>Node1&#45;&gt;Node4</title>
<path fill="none" stroke="midnightblue" d="M85.3293,-124.927C104.438,-141.431 136.442,-166.018 169,-177.5 222.91,-196.511 287.984,-200.394 335.809,-200.019"/>
<polygon fill="midnightblue" stroke="midnightblue" points="87.5397,-122.209 77.733,-118.199 82.8987,-127.449 87.5397,-122.209"/>
</g>
<!-- Node5 -->
<g id="node5" class="node"><title>Node5</title>
<g id="a_node5"><a xlink:href="../../da/de7/struct_m_c_booster_1_1_decay_mother.html#a9e23769d9940c18a017339557b669416" target="_top" xlink:title="MCBooster::DecayMother\l::process">
<polygon fill="none" stroke="black" points="338.5,-93.5 338.5,-123.5 469.5,-123.5 469.5,-93.5 338.5,-93.5"/>
<text text-anchor="start" x="346.5" y="-111.5" font-family="Helvetica,sans-Serif" font-size="10.00">MCBooster::DecayMother</text>
<text text-anchor="middle" x="404" y="-100.5" font-family="Helvetica,sans-Serif" font-size="10.00">::process</text>
</a>
</g>
</g>
<!-- Node1&#45;&gt;Node5 -->
<g id="edge7" class="edge"><title>Node1&#45;&gt;Node5</title>
<path fill="none" stroke="midnightblue" d="M143.722,-108.5C202.468,-108.5 282.799,-108.5 338.408,-108.5"/>
<polygon fill="midnightblue" stroke="midnightblue" points="143.384,-105 133.384,-108.5 143.384,-112 143.384,-105"/>
</g>
<!-- Node6 -->
<g id="node6" class="node"><title>Node6</title>
<g id="a_node6"><a xlink:href="../../da/de7/struct_m_c_booster_1_1_decay_mother.html#a7812806dae1288700a07d06275a72096" target="_top" xlink:title="MCBooster::DecayMother\l::DecayMother">
<polygon fill="none" stroke="black" points="169,-49.5 169,-79.5 300,-79.5 300,-49.5 169,-49.5"/>
<text text-anchor="start" x="177" y="-67.5" font-family="Helvetica,sans-Serif" font-size="10.00">MCBooster::DecayMother</text>
<text text-anchor="middle" x="234.5" y="-56.5" font-family="Helvetica,sans-Serif" font-size="10.00">::DecayMother</text>
</a>
</g>
</g>
<!-- Node1&#45;&gt;Node6 -->
<g id="edge5" class="edge"><title>Node1&#45;&gt;Node6</title>
<path fill="none" stroke="midnightblue" d="M113.409,-96.3313C132.985,-91.1426 156.025,-85.0354 176.662,-79.5654"/>
<polygon fill="midnightblue" stroke="midnightblue" points="112.289,-93.0073 103.52,-98.9527 114.083,-99.7736 112.289,-93.0073"/>
</g>
<!-- Node7 -->
<g id="node7" class="node"><title>Node7</title>
<g id="a_node7"><a xlink:href="../../df/d59/class_m_c_booster_1_1_vector4_r.html#a72c68093fd200376fbe28a2254592c44" target="_top" xlink:title="MCBooster::Vector4R\l::Vector4R">
<polygon fill="none" stroke="black" points="178,-0.5 178,-30.5 291,-30.5 291,-0.5 178,-0.5"/>
<text text-anchor="start" x="186" y="-18.5" font-family="Helvetica,sans-Serif" font-size="10.00">MCBooster::Vector4R</text>
<text text-anchor="middle" x="234.5" y="-7.5" font-family="Helvetica,sans-Serif" font-size="10.00">::Vector4R</text>
</a>
</g>
</g>
<!-- Node1&#45;&gt;Node7 -->
<g id="edge8" class="edge"><title>Node1&#45;&gt;Node7</title>
<path fill="none" stroke="midnightblue" d="M87.3809,-92.8515C107.218,-77.7638 138.984,-54.9983 169,-39.5 175.264,-36.2659 182.066,-33.2477 188.826,-30.5177"/>
<polygon fill="midnightblue" stroke="midnightblue" points="85.1891,-90.1217 79.4024,-98.9967 89.4606,-95.6674 85.1891,-90.1217"/>
</g>
<!-- Node3 -->
<g id="node3" class="node"><title>Node3</title>
<g id="a_node3"><a xlink:href="../../dd/dc6/namespace_m_c_booster.html#a8fa6b4e764664cfda2377f17ba1914f7" target="_top" xlink:title="MCBooster::boostTo">
<polygon fill="none" stroke="black" points="350.5,-143 350.5,-162 457.5,-162 457.5,-143 350.5,-143"/>
<text text-anchor="middle" x="404" y="-150" font-family="Helvetica,sans-Serif" font-size="10.00">MCBooster::boostTo</text>
</a>
</g>
</g>
<!-- Node2&#45;&gt;Node3 -->
<g id="edge2" class="edge"><title>Node2&#45;&gt;Node3</title>
<path fill="none" stroke="midnightblue" d="M301.72,-152.5C317.853,-152.5 334.895,-152.5 350.304,-152.5"/>
<polygon fill="midnightblue" stroke="midnightblue" points="301.275,-149 291.275,-152.5 301.275,-156 301.275,-149"/>
</g>
<!-- Node2&#45;&gt;Node4 -->
<g id="edge3" class="edge"><title>Node2&#45;&gt;Node4</title>
<path fill="none" stroke="midnightblue" d="M301.296,-169.784C315.982,-173.642 331.442,-177.703 345.751,-181.462"/>
<polygon fill="midnightblue" stroke="midnightblue" points="301.836,-166.307 291.275,-167.151 300.058,-173.077 301.836,-166.307"/>
</g>
<!-- Node2&#45;&gt;Node5 -->
<g id="edge4" class="edge"><title>Node2&#45;&gt;Node5</title>
<path fill="none" stroke="midnightblue" d="M301.296,-135.216C315.982,-131.358 331.442,-127.297 345.751,-123.538"/>
<polygon fill="midnightblue" stroke="midnightblue" points="300.058,-131.923 291.275,-137.849 301.836,-138.693 300.058,-131.923"/>
</g>
</g>
</svg>
