<?xml version="1.0" encoding="UTF-8" standalone="no"?>
<!DOCTYPE svg PUBLIC "-//W3C//DTD SVG 1.1//EN"
 "http://www.w3.org/Graphics/SVG/1.1/DTD/svg11.dtd">
<!-- Generated by graphviz version 2.38.0 (20140413.2041)
 -->
<!-- Title: MCBooster::Vector4R::applyBoostTo Pages: 1 -->
<svg width="293pt" height="127pt"
 viewBox="0.00 0.00 293.00 126.50" xmlns="http://www.w3.org/2000/svg" xmlns:xlink="http://www.w3.org/1999/xlink">
<g id="graph0" class="graph" transform="scale(1 1) rotate(0) translate(4 122.5)">
<title>MCBooster::Vector4R::applyBoostTo</title>
<!-- Node1 -->
<g id="node1" class="node"><title>Node1</title>
<polygon fill="#bfbfbf" stroke="black" points="0,-49.5 0,-79.5 113,-79.5 113,-49.5 0,-49.5"/>
<text text-anchor="start" x="8" y="-67.5" font-family="Helvetica,sans-Serif" font-size="10.00">MCBooster::Vector4R</text>
<text text-anchor="middle" x="56.5" y="-56.5" font-family="Helvetica,sans-Serif" font-size="10.00">::applyBoostTo</text>
</g>
<!-- Node2 -->
<g id="node2" class="node"><title>Node2</title>
<g id="a_node2"><a xlink:href="../../dd/dc6/namespace_m_c_booster.html#a8fa6b4e764664cfda2377f17ba1914f7" target="_top" xlink:title="MCBooster::boostTo">
<polygon fill="none" stroke="black" points="163.5,-99 163.5,-118 270.5,-118 270.5,-99 163.5,-99"/>
<text text-anchor="middle" x="217" y="-106" font-family="Helvetica,sans-Serif" font-size="10.00">MCBooster::boostTo</text>
</a>
</g>
</g>
<!-- Node1&#45;&gt;Node2 -->
<g id="edge1" class="edge"><title>Node1&#45;&gt;Node2</title>
<path fill="none" stroke="midnightblue" d="M121.249,-82.1969C141.83,-87.9101 163.862,-94.0262 181.496,-98.9217"/>
<polygon fill="midnightblue" stroke="midnightblue" points="122.175,-78.8217 111.603,-79.5192 120.303,-85.5667 122.175,-78.8217"/>
</g>
<!-- Node3 -->
<g id="node3" class="node"><title>Node3</title>
<g id="a_node3"><a xlink:href="../../d4/d95/struct_m_c_booster_1_1_decay_mothers.html#afcd4e118b5ebd8731fe19143d792b4c2" target="_top" xlink:title="MCBooster::DecayMothers\l::process">
<polygon fill="none" stroke="black" points="149,-49.5 149,-79.5 285,-79.5 285,-49.5 149,-49.5"/>
<text text-anchor="start" x="157" y="-67.5" font-family="Helvetica,sans-Serif" font-size="10.00">MCBooster::DecayMothers</text>
<text text-anchor="middle" x="217" y="-56.5" font-family="Helvetica,sans-Serif" font-size="10.00">::process</text>
</a>
</g>
</g>
<!-- Node1&#45;&gt;Node3 -->
<g id="edge2" class="edge"><title>Node1&#45;&gt;Node3</title>
<path fill="none" stroke="midnightblue" d="M123.506,-64.5C131.911,-64.5 140.521,-64.5 148.942,-64.5"/>
<polygon fill="midnightblue" stroke="midnightblue" points="123.381,-61.0001 113.381,-64.5 123.381,-68.0001 123.381,-61.0001"/>
</g>
<!-- Node4 -->
<g id="node4" class="node"><title>Node4</title>
<g id="a_node4"><a xlink:href="../../da/de7/struct_m_c_booster_1_1_decay_mother.html#a9e23769d9940c18a017339557b669416" target="_top" xlink:title="MCBooster::DecayMother\l::process">
<polygon fill="none" stroke="black" points="151.5,-0.5 151.5,-30.5 282.5,-30.5 282.5,-0.5 151.5,-0.5"/>
<text text-anchor="start" x="159.5" y="-18.5" font-family="Helvetica,sans-Serif" font-size="10.00">MCBooster::DecayMother</text>
<text text-anchor="middle" x="217" y="-7.5" font-family="Helvetica,sans-Serif" font-size="10.00">::process</text>
</a>
</g>
</g>
<!-- Node1&#45;&gt;Node4 -->
<g id="edge3" class="edge"><title>Node1&#45;&gt;Node4</title>
<path fill="none" stroke="midnightblue" d="M116.09,-46.3871C132.94,-41.1778 151.13,-35.5543 167.313,-30.5516"/>
<polygon fill="midnightblue" stroke="midnightblue" points="114.869,-43.1011 106.349,-49.3986 116.936,-49.7888 114.869,-43.1011"/>
</g>
</g>
</svg>
