<?xml version="1.0" encoding="UTF-8" standalone="no"?>
<!DOCTYPE svg PUBLIC "-//W3C//DTD SVG 1.1//EN"
 "http://www.w3.org/Graphics/SVG/1.1/DTD/svg11.dtd">
<!-- Generated by graphviz version 2.38.0 (20140413.2041)
 -->
<!-- Title: MCBooster::Vector4R::set Pages: 1 -->
<svg width="313pt" height="88pt"
 viewBox="0.00 0.00 313.00 88.00" xmlns="http://www.w3.org/2000/svg" xmlns:xlink="http://www.w3.org/1999/xlink">
<g id="graph0" class="graph" transform="scale(1 1) rotate(0) translate(4 84)">
<title>MCBooster::Vector4R::set</title>
<!-- Node1 -->
<g id="node1" class="node"><title>Node1</title>
<polygon fill="#bfbfbf" stroke="black" points="0,-30 0,-49 133,-49 133,-30 0,-30"/>
<text text-anchor="middle" x="66.5" y="-37" font-family="Helvetica,sans-Serif" font-size="10.00">MCBooster::Vector4R::set</text>
</g>
<!-- Node2 -->
<g id="node2" class="node"><title>Node2</title>
<g id="a_node2"><a xlink:href="../../d4/d95/struct_m_c_booster_1_1_decay_mothers.html#afcd4e118b5ebd8731fe19143d792b4c2" target="_top" xlink:title="MCBooster::DecayMothers\l::process">
<polygon fill="none" stroke="black" points="169,-49.5 169,-79.5 305,-79.5 305,-49.5 169,-49.5"/>
<text text-anchor="start" x="177" y="-67.5" font-family="Helvetica,sans-Serif" font-size="10.00">MCBooster::DecayMothers</text>
<text text-anchor="middle" x="237" y="-56.5" font-family="Helvetica,sans-Serif" font-size="10.00">::process</text>
</a>
</g>
</g>
<!-- Node1&#45;&gt;Node2 -->
<g id="edge1" class="edge"><title>Node1&#45;&gt;Node2</title>
<path fill="none" stroke="midnightblue" d="M141.788,-50.522C150.817,-51.8615 160,-53.224 168.915,-54.5468"/>
<polygon fill="midnightblue" stroke="midnightblue" points="142.089,-47.0283 131.683,-49.0227 141.061,-53.9525 142.089,-47.0283"/>
</g>
<!-- Node3 -->
<g id="node3" class="node"><title>Node3</title>
<g id="a_node3"><a xlink:href="../../da/de7/struct_m_c_booster_1_1_decay_mother.html#a9e23769d9940c18a017339557b669416" target="_top" xlink:title="MCBooster::DecayMother\l::process">
<polygon fill="none" stroke="black" points="171.5,-0.5 171.5,-30.5 302.5,-30.5 302.5,-0.5 171.5,-0.5"/>
<text text-anchor="start" x="179.5" y="-18.5" font-family="Helvetica,sans-Serif" font-size="10.00">MCBooster::DecayMother</text>
<text text-anchor="middle" x="237" y="-7.5" font-family="Helvetica,sans-Serif" font-size="10.00">::process</text>
</a>
</g>
</g>
<!-- Node1&#45;&gt;Node3 -->
<g id="edge2" class="edge"><title>Node1&#45;&gt;Node3</title>
<path fill="none" stroke="midnightblue" d="M143.244,-28.7115C152.638,-27.3735 162.175,-26.0151 171.381,-24.704"/>
<polygon fill="midnightblue" stroke="midnightblue" points="142.536,-25.277 133.129,-30.1523 143.523,-32.2071 142.536,-25.277"/>
</g>
</g>
</svg>
