<?xml version="1.0" encoding="UTF-8" standalone="no"?>
<!DOCTYPE svg PUBLIC "-//W3C//DTD SVG 1.1//EN"
 "http://www.w3.org/Graphics/SVG/1.1/DTD/svg11.dtd">
<!-- Generated by graphviz version 2.38.0 (20140413.2041)
 -->
<!-- Title: DecayMothers.h Pages: 1 -->
<svg width="896pt" height="330pt"
 viewBox="0.00 0.00 896.00 330.00" xmlns="http://www.w3.org/2000/svg" xmlns:xlink="http://www.w3.org/1999/xlink">
<g id="graph0" class="graph" transform="scale(1 1) rotate(0) translate(4 326)">
<title>DecayMothers.h</title>
<!-- Node1 -->
<g id="node1" class="node"><title>Node1</title>
<polygon fill="#bfbfbf" stroke="black" points="509.5,-302.5 509.5,-321.5 598.5,-321.5 598.5,-302.5 509.5,-302.5"/>
<text text-anchor="middle" x="554" y="-309.5" font-family="Helvetica,sans-Serif" font-size="10.00">DecayMothers.h</text>
</g>
<!-- Node2 -->
<g id="node2" class="node"><title>Node2</title>
<g id="a_node2"><a xlink:href="../../d4/d71/_config_8h.html" target="_top" xlink:title="mcbooster/Config.h">
<polygon fill="none" stroke="black" points="570,-67.5 570,-86.5 672,-86.5 672,-67.5 570,-67.5"/>
<text text-anchor="middle" x="621" y="-74.5" font-family="Helvetica,sans-Serif" font-size="10.00">mcbooster/Config.h</text>
</a>
</g>
</g>
<!-- Node1&#45;&gt;Node2 -->
<g id="edge1" class="edge"><title>Node1&#45;&gt;Node2</title>
<path fill="none" stroke="midnightblue" d="M563.098,-302.431C581.081,-284.904 621.072,-242.898 640,-199 653.467,-167.766 658.344,-155.705 649,-123 646.098,-112.844 640.168,-102.747 634.51,-94.6991"/>
<polygon fill="midnightblue" stroke="midnightblue" points="637.219,-92.4786 628.412,-86.5891 631.624,-96.6853 637.219,-92.4786"/>
</g>
<!-- Node4 -->
<g id="node4" class="node"><title>Node4</title>
<g id="a_node4"><a xlink:href="../../dc/d9d/_g_types_8h.html" target="_top" xlink:title="mcbooster/GTypes.h">
<polygon fill="none" stroke="black" points="0,-67.5 0,-86.5 108,-86.5 108,-67.5 0,-67.5"/>
<text text-anchor="middle" x="54" y="-74.5" font-family="Helvetica,sans-Serif" font-size="10.00">mcbooster/GTypes.h</text>
</a>
</g>
</g>
<!-- Node1&#45;&gt;Node4 -->
<g id="edge3" class="edge"><title>Node1&#45;&gt;Node4</title>
<path fill="none" stroke="midnightblue" d="M509.423,-310.233C411.032,-307.946 178.435,-299.097 108,-266 69.6005,-247.956 57.7661,-237.529 40,-199 25.8363,-168.284 29.6035,-156.214 36,-123 37.7901,-113.705 41.483,-103.889 45.0607,-95.8048"/>
<polygon fill="midnightblue" stroke="midnightblue" points="48.2733,-97.1981 49.3788,-86.6611 41.9436,-94.2089 48.2733,-97.1981"/>
</g>
<!-- Node5 -->
<g id="node5" class="node"><title>Node5</title>
<g id="a_node5"><a xlink:href="../../d2/db7/_g_containers_8h.html" target="_top" xlink:title="Typedef for useful container classes used in MCBooster. ">
<polygon fill="none" stroke="black" points="307,-241 307,-260 435,-260 435,-241 307,-241"/>
<text text-anchor="middle" x="371" y="-248" font-family="Helvetica,sans-Serif" font-size="10.00">mcbooster/GContainers.h</text>
</a>
</g>
</g>
<!-- Node1&#45;&gt;Node5 -->
<g id="edge4" class="edge"><title>Node1&#45;&gt;Node5</title>
<path fill="none" stroke="midnightblue" d="M527.781,-302.475C495.982,-292.136 442.235,-274.661 406.683,-263.102"/>
<polygon fill="midnightblue" stroke="midnightblue" points="407.763,-259.773 397.171,-260.009 405.599,-266.43 407.763,-259.773"/>
</g>
<!-- Node6 -->
<g id="node6" class="node"><title>Node6</title>
<g id="a_node6"><a xlink:href="../../d4/d41/_vector3_r_8h.html" target="_top" xlink:title="mcbooster/Vector3R.h">
<polygon fill="none" stroke="black" points="311.5,-123.5 311.5,-142.5 426.5,-142.5 426.5,-123.5 311.5,-123.5"/>
<text text-anchor="middle" x="369" y="-130.5" font-family="Helvetica,sans-Serif" font-size="10.00">mcbooster/Vector3R.h</text>
</a>
</g>
</g>
<!-- Node1&#45;&gt;Node6 -->
<g id="edge24" class="edge"><title>Node1&#45;&gt;Node6</title>
<path fill="none" stroke="midnightblue" d="M509.452,-308.087C397.654,-299.736 110.207,-271.489 55,-199 49.6143,-191.928 49.1775,-185.716 55,-179 86.2093,-142.999 218.682,-135.107 301.269,-133.772"/>
<polygon fill="midnightblue" stroke="midnightblue" points="301.38,-137.271 311.332,-133.638 301.286,-130.272 301.38,-137.271"/>
</g>
<!-- Node10 -->
<g id="node10" class="node"><title>Node10</title>
<g id="a_node10"><a xlink:href="../../db/de3/_vector4_r_8h.html" target="_top" xlink:title="mcbooster/Vector4R.h">
<polygon fill="none" stroke="black" points="496.5,-179.5 496.5,-198.5 611.5,-198.5 611.5,-179.5 496.5,-179.5"/>
<text text-anchor="middle" x="554" y="-186.5" font-family="Helvetica,sans-Serif" font-size="10.00">mcbooster/Vector4R.h</text>
</a>
</g>
</g>
<!-- Node1&#45;&gt;Node10 -->
<g id="edge25" class="edge"><title>Node1&#45;&gt;Node10</title>
<path fill="none" stroke="midnightblue" d="M554,-302.298C554,-282.85 554,-235.49 554,-208.904"/>
<polygon fill="midnightblue" stroke="midnightblue" points="557.5,-208.623 554,-198.623 550.5,-208.623 557.5,-208.623"/>
</g>
<!-- Node16 -->
<g id="node16" class="node"><title>Node16</title>
<polygon fill="none" stroke="#bfbfbf" points="706,-241 706,-260 780,-260 780,-241 706,-241"/>
<text text-anchor="middle" x="743" y="-248" font-family="Helvetica,sans-Serif" font-size="10.00">thrust/tuple.h</text>
</g>
<!-- Node1&#45;&gt;Node16 -->
<g id="edge26" class="edge"><title>Node1&#45;&gt;Node16</title>
<path fill="none" stroke="midnightblue" d="M581.079,-302.475C613.92,-292.136 669.43,-274.661 706.148,-263.102"/>
<polygon fill="midnightblue" stroke="midnightblue" points="707.484,-266.35 715.971,-260.009 705.382,-259.674 707.484,-266.35"/>
</g>
<!-- Node17 -->
<g id="node17" class="node"><title>Node17</title>
<polygon fill="none" stroke="#bfbfbf" points="798,-235.5 798,-265.5 888,-265.5 888,-235.5 798,-235.5"/>
<text text-anchor="start" x="806" y="-253.5" font-family="Helvetica,sans-Serif" font-size="10.00">thrust/iterator/zip</text>
<text text-anchor="middle" x="843" y="-242.5" font-family="Helvetica,sans-Serif" font-size="10.00">_iterator.h</text>
</g>
<!-- Node1&#45;&gt;Node17 -->
<g id="edge27" class="edge"><title>Node1&#45;&gt;Node17</title>
<path fill="none" stroke="midnightblue" d="M598.817,-303.423C644.124,-295.54 716.356,-282.362 787.894,-266.159"/>
<polygon fill="midnightblue" stroke="midnightblue" points="789.012,-269.493 797.98,-263.853 787.452,-262.67 789.012,-269.493"/>
</g>
<!-- Node3 -->
<g id="node3" class="node"><title>Node3</title>
<polygon fill="none" stroke="#bfbfbf" points="572.5,-0.5 572.5,-30.5 669.5,-30.5 669.5,-0.5 572.5,-0.5"/>
<text text-anchor="start" x="580.5" y="-18.5" font-family="Helvetica,sans-Serif" font-size="10.00">thrust/detail/config</text>
<text text-anchor="middle" x="621" y="-7.5" font-family="Helvetica,sans-Serif" font-size="10.00">/host_device.h</text>
</g>
<!-- Node2&#45;&gt;Node3 -->
<g id="edge2" class="edge"><title>Node2&#45;&gt;Node3</title>
<path fill="none" stroke="midnightblue" d="M621,-67.4751C621,-60.471 621,-50.1919 621,-40.6956"/>
<polygon fill="midnightblue" stroke="midnightblue" points="624.5,-40.5229 621,-30.523 617.5,-40.523 624.5,-40.5229"/>
</g>
<!-- Node5&#45;&gt;Node2 -->
<g id="edge5" class="edge"><title>Node5&#45;&gt;Node2</title>
<path fill="none" stroke="midnightblue" d="M435.144,-245.56C501.287,-240.001 597.937,-227.187 621,-199 644.861,-169.837 635.284,-122.136 627.413,-96.1936"/>
<polygon fill="midnightblue" stroke="midnightblue" points="630.685,-94.9391 624.247,-86.525 624.033,-97.1177 630.685,-94.9391"/>
</g>
<!-- Node5&#45;&gt;Node4 -->
<g id="edge20" class="edge"><title>Node5&#45;&gt;Node4</title>
<path fill="none" stroke="midnightblue" d="M306.696,-248.636C223.894,-246.008 86.8341,-236.015 55,-199 30.4288,-170.43 39.7999,-122.491 47.6111,-96.3531"/>
<polygon fill="midnightblue" stroke="midnightblue" points="51.0164,-97.1975 50.7598,-86.6058 44.3553,-95.0458 51.0164,-97.1975"/>
</g>
<!-- Node5&#45;&gt;Node6 -->
<g id="edge6" class="edge"><title>Node5&#45;&gt;Node6</title>
<path fill="none" stroke="midnightblue" d="M306.88,-248.373C225.973,-245.437 93.6503,-235.085 63,-199 57.2455,-192.225 57.1898,-185.727 63,-179 93.1667,-144.073 220.79,-135.761 301.389,-134.07"/>
<polygon fill="midnightblue" stroke="midnightblue" points="301.527,-137.568 311.462,-133.888 301.4,-130.57 301.527,-137.568"/>
</g>
<!-- Node5&#45;&gt;Node10 -->
<g id="edge12" class="edge"><title>Node5&#45;&gt;Node10</title>
<path fill="none" stroke="midnightblue" d="M397.219,-240.975C429.018,-230.636 482.765,-213.161 518.317,-201.602"/>
<polygon fill="midnightblue" stroke="midnightblue" points="519.401,-204.93 527.829,-198.509 517.237,-198.273 519.401,-204.93"/>
</g>
<!-- Node12 -->
<g id="node12" class="node"><title>Node12</title>
<polygon fill="none" stroke="#bfbfbf" points="434,-179.5 434,-198.5 478,-198.5 478,-179.5 434,-179.5"/>
<text text-anchor="middle" x="456" y="-186.5" font-family="Helvetica,sans-Serif" font-size="10.00">vector</text>
</g>
<!-- Node5&#45;&gt;Node12 -->
<g id="edge19" class="edge"><title>Node5&#45;&gt;Node12</title>
<path fill="none" stroke="midnightblue" d="M383.178,-240.975C396.812,-231.431 419.132,-215.807 435.474,-204.368"/>
<polygon fill="midnightblue" stroke="midnightblue" points="437.659,-207.111 443.844,-198.509 433.645,-201.376 437.659,-207.111"/>
</g>
<!-- Node13 -->
<g id="node13" class="node"><title>Node13</title>
<polygon fill="none" stroke="#bfbfbf" points="72.5,-179.5 72.5,-198.5 185.5,-198.5 185.5,-179.5 72.5,-179.5"/>
<text text-anchor="middle" x="129" y="-186.5" font-family="Helvetica,sans-Serif" font-size="10.00">thrust/device_vector.h</text>
</g>
<!-- Node5&#45;&gt;Node13 -->
<g id="edge21" class="edge"><title>Node5&#45;&gt;Node13</title>
<path fill="none" stroke="midnightblue" d="M336.327,-240.975C293.468,-230.437 220.457,-212.486 173.501,-200.941"/>
<polygon fill="midnightblue" stroke="midnightblue" points="174.155,-197.498 163.608,-198.509 172.484,-204.296 174.155,-197.498"/>
</g>
<!-- Node14 -->
<g id="node14" class="node"><title>Node14</title>
<polygon fill="none" stroke="#bfbfbf" points="204,-179.5 204,-198.5 308,-198.5 308,-179.5 204,-179.5"/>
<text text-anchor="middle" x="256" y="-186.5" font-family="Helvetica,sans-Serif" font-size="10.00">thrust/host_vector.h</text>
</g>
<!-- Node5&#45;&gt;Node14 -->
<g id="edge22" class="edge"><title>Node5&#45;&gt;Node14</title>
<path fill="none" stroke="midnightblue" d="M354.523,-240.975C335.395,-231.078 303.627,-214.642 281.348,-203.115"/>
<polygon fill="midnightblue" stroke="midnightblue" points="282.936,-199.996 272.446,-198.509 279.719,-206.213 282.936,-199.996"/>
</g>
<!-- Node15 -->
<g id="node15" class="node"><title>Node15</title>
<polygon fill="none" stroke="#bfbfbf" points="326.5,-179.5 326.5,-198.5 415.5,-198.5 415.5,-179.5 326.5,-179.5"/>
<text text-anchor="middle" x="371" y="-186.5" font-family="Helvetica,sans-Serif" font-size="10.00">thrust/complex.h</text>
</g>
<!-- Node5&#45;&gt;Node15 -->
<g id="edge23" class="edge"><title>Node5&#45;&gt;Node15</title>
<path fill="none" stroke="midnightblue" d="M371,-240.975C371,-232.58 371,-219.481 371,-208.663"/>
<polygon fill="midnightblue" stroke="midnightblue" points="374.5,-208.509 371,-198.509 367.5,-208.509 374.5,-208.509"/>
</g>
<!-- Node6&#45;&gt;Node2 -->
<g id="edge7" class="edge"><title>Node6&#45;&gt;Node2</title>
<path fill="none" stroke="midnightblue" d="M408.93,-123.444C452.891,-114.023 523.627,-98.8656 571.183,-88.6752"/>
<polygon fill="midnightblue" stroke="midnightblue" points="572.212,-92.0341 581.257,-86.5164 570.745,-85.1895 572.212,-92.0341"/>
</g>
<!-- Node6&#45;&gt;Node4 -->
<g id="edge8" class="edge"><title>Node6&#45;&gt;Node4</title>
<path fill="none" stroke="midnightblue" d="M319.087,-123.444C263.33,-113.885 173.114,-98.4195 113.674,-88.2298"/>
<polygon fill="midnightblue" stroke="midnightblue" points="114.127,-84.7565 103.679,-86.5164 112.944,-91.6558 114.127,-84.7565"/>
</g>
<!-- Node7 -->
<g id="node7" class="node"><title>Node7</title>
<polygon fill="none" stroke="#bfbfbf" points="342.5,-67.5 342.5,-86.5 387.5,-86.5 387.5,-67.5 342.5,-67.5"/>
<text text-anchor="middle" x="365" y="-74.5" font-family="Helvetica,sans-Serif" font-size="10.00">iosfwd</text>
</g>
<!-- Node6&#45;&gt;Node7 -->
<g id="edge9" class="edge"><title>Node6&#45;&gt;Node7</title>
<path fill="none" stroke="midnightblue" d="M368.339,-123.083C367.815,-116.006 367.064,-105.861 366.406,-96.9865"/>
<polygon fill="midnightblue" stroke="midnightblue" points="369.877,-96.4652 365.648,-86.7511 362.897,-96.9823 369.877,-96.4652"/>
</g>
<!-- Node8 -->
<g id="node8" class="node"><title>Node8</title>
<polygon fill="none" stroke="#bfbfbf" points="406,-67.5 406,-86.5 460,-86.5 460,-67.5 406,-67.5"/>
<text text-anchor="middle" x="433" y="-74.5" font-family="Helvetica,sans-Serif" font-size="10.00">iostream</text>
</g>
<!-- Node6&#45;&gt;Node8 -->
<g id="edge10" class="edge"><title>Node6&#45;&gt;Node8</title>
<path fill="none" stroke="midnightblue" d="M379.283,-123.324C388.836,-115.263 403.28,-103.077 414.784,-93.3695"/>
<polygon fill="midnightblue" stroke="midnightblue" points="417.144,-95.9577 422.53,-86.8339 412.63,-90.6076 417.144,-95.9577"/>
</g>
<!-- Node9 -->
<g id="node9" class="node"><title>Node9</title>
<polygon fill="none" stroke="#bfbfbf" points="478.5,-67.5 478.5,-86.5 525.5,-86.5 525.5,-67.5 478.5,-67.5"/>
<text text-anchor="middle" x="502" y="-74.5" font-family="Helvetica,sans-Serif" font-size="10.00">math.h</text>
</g>
<!-- Node6&#45;&gt;Node9 -->
<g id="edge11" class="edge"><title>Node6&#45;&gt;Node9</title>
<path fill="none" stroke="midnightblue" d="M390.074,-123.444C412.06,-114.517 446.734,-100.439 471.664,-90.3168"/>
<polygon fill="midnightblue" stroke="midnightblue" points="473.076,-93.5213 481.024,-86.5164 470.442,-87.0355 473.076,-93.5213"/>
</g>
<!-- Node10&#45;&gt;Node2 -->
<g id="edge13" class="edge"><title>Node10&#45;&gt;Node2</title>
<path fill="none" stroke="midnightblue" d="M559.671,-179.444C565.6,-170.443 575.12,-155.83 583,-143 592.703,-127.2 603.32,-108.954 610.859,-95.8228"/>
<polygon fill="midnightblue" stroke="midnightblue" points="614.033,-97.3222 615.958,-86.9037 607.956,-93.848 614.033,-97.3222"/>
</g>
<!-- Node10&#45;&gt;Node4 -->
<g id="edge14" class="edge"><title>Node10&#45;&gt;Node4</title>
<path fill="none" stroke="midnightblue" d="M498.692,-179.424C447.467,-171.174 369.277,-157.799 302,-143 227.732,-126.663 142.137,-103.182 93.4114,-89.3681"/>
<polygon fill="midnightblue" stroke="midnightblue" points="94.1671,-85.9443 83.5909,-86.5732 92.2509,-92.6769 94.1671,-85.9443"/>
</g>
<!-- Node10&#45;&gt;Node6 -->
<g id="edge18" class="edge"><title>Node10&#45;&gt;Node6</title>
<path fill="none" stroke="midnightblue" d="M524.686,-179.444C493.158,-170.241 442.869,-155.562 408.014,-145.388"/>
<polygon fill="midnightblue" stroke="midnightblue" points="408.757,-141.959 398.177,-142.516 406.795,-148.678 408.757,-141.959"/>
</g>
<!-- Node10&#45;&gt;Node8 -->
<g id="edge16" class="edge"><title>Node10&#45;&gt;Node8</title>
<path fill="none" stroke="midnightblue" d="M544.505,-179.368C524.095,-160.814 475.804,-116.913 449.981,-93.4376"/>
<polygon fill="midnightblue" stroke="midnightblue" points="452.204,-90.7284 442.451,-86.5914 447.496,-95.908 452.204,-90.7284"/>
</g>
<!-- Node10&#45;&gt;Node9 -->
<g id="edge15" class="edge"><title>Node10&#45;&gt;Node9</title>
<path fill="none" stroke="midnightblue" d="M546.174,-179.3C538.758,-170.65 527.776,-156.726 521,-143 513.681,-128.175 508.67,-110.023 505.639,-96.6736"/>
<polygon fill="midnightblue" stroke="midnightblue" points="509.039,-95.8311 503.553,-86.7675 502.189,-97.2742 509.039,-95.8311"/>
</g>
<!-- Node11 -->
<g id="node11" class="node"><title>Node11</title>
<polygon fill="none" stroke="#bfbfbf" points="530,-123.5 530,-142.5 574,-142.5 574,-123.5 530,-123.5"/>
<text text-anchor="middle" x="552" y="-130.5" font-family="Helvetica,sans-Serif" font-size="10.00">cmath</text>
</g>
<!-- Node10&#45;&gt;Node11 -->
<g id="edge17" class="edge"><title>Node10&#45;&gt;Node11</title>
<path fill="none" stroke="midnightblue" d="M553.67,-179.083C553.408,-172.006 553.032,-161.861 552.703,-152.986"/>
<polygon fill="midnightblue" stroke="midnightblue" points="556.192,-152.615 552.324,-142.751 549.197,-152.874 556.192,-152.615"/>
</g>
</g>
</svg>
