<?xml version="1.0" encoding="UTF-8" standalone="no"?>
<!DOCTYPE svg PUBLIC "-//W3C//DTD SVG 1.1//EN"
 "http://www.w3.org/Graphics/SVG/1.1/DTD/svg11.dtd">
<!-- Generated by graphviz version 2.38.0 (20140413.2041)
 -->
<!-- Title: Vector4R.h Pages: 1 -->
<svg width="464pt" height="207pt"
 viewBox="0.00 0.00 464.00 207.00" xmlns="http://www.w3.org/2000/svg" xmlns:xlink="http://www.w3.org/1999/xlink">
<g id="graph0" class="graph" transform="scale(1 1) rotate(0) translate(4 203)">
<title>Vector4R.h</title>
<!-- Node1 -->
<g id="node1" class="node"><title>Node1</title>
<polygon fill="#bfbfbf" stroke="black" points="270,-179.5 270,-198.5 336,-198.5 336,-179.5 270,-179.5"/>
<text text-anchor="middle" x="303" y="-186.5" font-family="Helvetica,sans-Serif" font-size="10.00">Vector4R.h</text>
</g>
<!-- Node2 -->
<g id="node2" class="node"><title>Node2</title>
<g id="a_node2"><a xlink:href="../../d4/d71/_config_8h.html" target="_top" xlink:title="mcbooster/Config.h">
<polygon fill="none" stroke="black" points="0,-67.5 0,-86.5 102,-86.5 102,-67.5 0,-67.5"/>
<text text-anchor="middle" x="51" y="-74.5" font-family="Helvetica,sans-Serif" font-size="10.00">mcbooster/Config.h</text>
</a>
</g>
</g>
<!-- Node1&#45;&gt;Node2 -->
<g id="edge1" class="edge"><title>Node1&#45;&gt;Node2</title>
<path fill="none" stroke="midnightblue" d="M276.281,-179.481C250.708,-171.071 211.221,-157.411 178,-143 141.329,-127.092 100.423,-105.41 75.1938,-91.5549"/>
<polygon fill="midnightblue" stroke="midnightblue" points="76.7788,-88.432 66.3337,-86.6567 73.3919,-94.5581 76.7788,-88.432"/>
</g>
<!-- Node4 -->
<g id="node4" class="node"><title>Node4</title>
<g id="a_node4"><a xlink:href="../../dc/d9d/_g_types_8h.html" target="_top" xlink:title="mcbooster/GTypes.h">
<polygon fill="none" stroke="black" points="120,-67.5 120,-86.5 228,-86.5 228,-67.5 120,-67.5"/>
<text text-anchor="middle" x="174" y="-74.5" font-family="Helvetica,sans-Serif" font-size="10.00">mcbooster/GTypes.h</text>
</a>
</g>
</g>
<!-- Node1&#45;&gt;Node4 -->
<g id="edge3" class="edge"><title>Node1&#45;&gt;Node4</title>
<path fill="none" stroke="midnightblue" d="M269.935,-182.432C245.433,-176.631 212.959,-165.149 193,-143 181.573,-130.319 176.996,-111.115 175.175,-96.8654"/>
<polygon fill="midnightblue" stroke="midnightblue" points="178.642,-96.35 174.227,-86.719 171.673,-97.0013 178.642,-96.35"/>
</g>
<!-- Node5 -->
<g id="node5" class="node"><title>Node5</title>
<polygon fill="none" stroke="#bfbfbf" points="309.5,-67.5 309.5,-86.5 356.5,-86.5 356.5,-67.5 309.5,-67.5"/>
<text text-anchor="middle" x="333" y="-74.5" font-family="Helvetica,sans-Serif" font-size="10.00">math.h</text>
</g>
<!-- Node1&#45;&gt;Node5 -->
<g id="edge4" class="edge"><title>Node1&#45;&gt;Node5</title>
<path fill="none" stroke="midnightblue" d="M308.584,-179.437C314.006,-170.667 321.987,-156.452 326,-143 330.517,-127.858 332.191,-109.962 332.779,-96.7852"/>
<polygon fill="midnightblue" stroke="midnightblue" points="336.282,-96.7012 333.06,-86.6084 329.285,-96.5081 336.282,-96.7012"/>
</g>
<!-- Node6 -->
<g id="node6" class="node"><title>Node6</title>
<polygon fill="none" stroke="#bfbfbf" points="375,-67.5 375,-86.5 429,-86.5 429,-67.5 375,-67.5"/>
<text text-anchor="middle" x="402" y="-74.5" font-family="Helvetica,sans-Serif" font-size="10.00">iostream</text>
</g>
<!-- Node1&#45;&gt;Node6 -->
<g id="edge5" class="edge"><title>Node1&#45;&gt;Node6</title>
<path fill="none" stroke="midnightblue" d="M310.768,-179.368C327.323,-160.974 366.296,-117.671 387.553,-94.0519"/>
<polygon fill="midnightblue" stroke="midnightblue" points="390.18,-96.3658 394.268,-86.5914 384.977,-91.683 390.18,-96.3658"/>
</g>
<!-- Node7 -->
<g id="node7" class="node"><title>Node7</title>
<polygon fill="none" stroke="#bfbfbf" points="412,-123.5 412,-142.5 456,-142.5 456,-123.5 412,-123.5"/>
<text text-anchor="middle" x="434" y="-130.5" font-family="Helvetica,sans-Serif" font-size="10.00">cmath</text>
</g>
<!-- Node1&#45;&gt;Node7 -->
<g id="edge6" class="edge"><title>Node1&#45;&gt;Node7</title>
<path fill="none" stroke="midnightblue" d="M323.757,-179.444C345.316,-170.557 379.263,-156.563 403.794,-146.451"/>
<polygon fill="midnightblue" stroke="midnightblue" points="405.428,-149.563 413.34,-142.516 402.761,-143.092 405.428,-149.563"/>
</g>
<!-- Node8 -->
<g id="node8" class="node"><title>Node8</title>
<g id="a_node8"><a xlink:href="../../d4/d41/_vector3_r_8h.html" target="_top" xlink:title="mcbooster/Vector3R.h">
<polygon fill="none" stroke="black" points="202.5,-123.5 202.5,-142.5 317.5,-142.5 317.5,-123.5 202.5,-123.5"/>
<text text-anchor="middle" x="260" y="-130.5" font-family="Helvetica,sans-Serif" font-size="10.00">mcbooster/Vector3R.h</text>
</a>
</g>
</g>
<!-- Node1&#45;&gt;Node8 -->
<g id="edge7" class="edge"><title>Node1&#45;&gt;Node8</title>
<path fill="none" stroke="midnightblue" d="M295.899,-179.083C289.763,-171.377 280.73,-160.033 273.261,-150.653"/>
<polygon fill="midnightblue" stroke="midnightblue" points="275.936,-148.394 266.968,-142.751 270.46,-152.754 275.936,-148.394"/>
</g>
<!-- Node3 -->
<g id="node3" class="node"><title>Node3</title>
<polygon fill="none" stroke="#bfbfbf" points="2.5,-0.5 2.5,-30.5 99.5,-30.5 99.5,-0.5 2.5,-0.5"/>
<text text-anchor="start" x="10.5" y="-18.5" font-family="Helvetica,sans-Serif" font-size="10.00">thrust/detail/config</text>
<text text-anchor="middle" x="51" y="-7.5" font-family="Helvetica,sans-Serif" font-size="10.00">/host_device.h</text>
</g>
<!-- Node2&#45;&gt;Node3 -->
<g id="edge2" class="edge"><title>Node2&#45;&gt;Node3</title>
<path fill="none" stroke="midnightblue" d="M51,-67.4751C51,-60.471 51,-50.1919 51,-40.6956"/>
<polygon fill="midnightblue" stroke="midnightblue" points="54.5001,-40.5229 51,-30.523 47.5001,-40.523 54.5001,-40.5229"/>
</g>
<!-- Node8&#45;&gt;Node2 -->
<g id="edge8" class="edge"><title>Node8&#45;&gt;Node2</title>
<path fill="none" stroke="midnightblue" d="M226.883,-123.444C190.882,-114.142 133.23,-99.246 93.8142,-89.062"/>
<polygon fill="midnightblue" stroke="midnightblue" points="94.5194,-85.6294 83.9617,-86.5164 92.7682,-92.4068 94.5194,-85.6294"/>
</g>
<!-- Node8&#45;&gt;Node4 -->
<g id="edge9" class="edge"><title>Node8&#45;&gt;Node4</title>
<path fill="none" stroke="midnightblue" d="M246.183,-123.324C232.767,-114.9 212.176,-101.971 196.414,-92.0741"/>
<polygon fill="midnightblue" stroke="midnightblue" points="198.113,-89.0081 187.783,-86.6545 194.391,-94.9364 198.113,-89.0081"/>
</g>
<!-- Node8&#45;&gt;Node5 -->
<g id="edge12" class="edge"><title>Node8&#45;&gt;Node5</title>
<path fill="none" stroke="midnightblue" d="M271.729,-123.324C282.837,-115.107 299.742,-102.602 312.983,-92.8069"/>
<polygon fill="midnightblue" stroke="midnightblue" points="315.1,-95.5948 321.058,-86.8339 310.937,-89.9671 315.1,-95.5948"/>
</g>
<!-- Node8&#45;&gt;Node6 -->
<g id="edge11" class="edge"><title>Node8&#45;&gt;Node6</title>
<path fill="none" stroke="midnightblue" d="M282.5,-123.444C306.077,-114.478 343.322,-100.314 369.964,-90.1827"/>
<polygon fill="midnightblue" stroke="midnightblue" points="371.502,-93.3424 379.605,-86.5164 369.014,-86.7995 371.502,-93.3424"/>
</g>
<!-- Node9 -->
<g id="node9" class="node"><title>Node9</title>
<polygon fill="none" stroke="#bfbfbf" points="246.5,-67.5 246.5,-86.5 291.5,-86.5 291.5,-67.5 246.5,-67.5"/>
<text text-anchor="middle" x="269" y="-74.5" font-family="Helvetica,sans-Serif" font-size="10.00">iosfwd</text>
</g>
<!-- Node8&#45;&gt;Node9 -->
<g id="edge10" class="edge"><title>Node8&#45;&gt;Node9</title>
<path fill="none" stroke="midnightblue" d="M261.486,-123.083C262.679,-115.927 264.394,-105.635 265.885,-96.6911"/>
<polygon fill="midnightblue" stroke="midnightblue" points="269.35,-97.1904 267.541,-86.7511 262.445,-96.0396 269.35,-97.1904"/>
</g>
</g>
</svg>
