<?xml version="1.0" encoding="UTF-8" standalone="no"?>
<!DOCTYPE svg PUBLIC "-//W3C//DTD SVG 1.1//EN"
 "http://www.w3.org/Graphics/SVG/1.1/DTD/svg11.dtd">
<!-- Generated by graphviz version 2.38.0 (20140413.2041)
 -->
<!-- Title: GContainers.h Pages: 1 -->
<svg width="497pt" height="140pt"
 viewBox="0.00 0.00 496.50 140.00" xmlns="http://www.w3.org/2000/svg" xmlns:xlink="http://www.w3.org/1999/xlink">
<g id="graph0" class="graph" transform="scale(1 1) rotate(0) translate(4 136)">
<title>GContainers.h</title>
<!-- Node1 -->
<g id="node1" class="node"><title>Node1</title>
<polygon fill="#bfbfbf" stroke="black" points="176.5,-112.5 176.5,-131.5 256.5,-131.5 256.5,-112.5 176.5,-112.5"/>
<text text-anchor="middle" x="216.5" y="-119.5" font-family="Helvetica,sans-Serif" font-size="10.00">GContainers.h</text>
</g>
<!-- Node2 -->
<g id="node2" class="node"><title>Node2</title>
<g id="a_node2"><a xlink:href="../../d3/d6d/_evaluate_8h.html" target="_top" xlink:title="Evaluate helper template function implementation. ">
<polygon fill="none" stroke="black" points="0,-0.5 0,-19.5 63,-19.5 63,-0.5 0,-0.5"/>
<text text-anchor="middle" x="31.5" y="-7.5" font-family="Helvetica,sans-Serif" font-size="10.00">Evaluate.h</text>
</a>
</g>
</g>
<!-- Node1&#45;&gt;Node2 -->
<g id="edge1" class="edge"><title>Node1&#45;&gt;Node2</title>
<path fill="none" stroke="midnightblue" d="M166.44,-114.034C121.495,-106.738 60.1084,-93.8479 43.5,-76 29.116,-60.5425 29.2098,-33.7261 30.4003,-19.8645"/>
<polygon fill="midnightblue" stroke="midnightblue" points="165.906,-117.492 176.329,-115.592 166.996,-110.578 165.906,-117.492"/>
</g>
<!-- Node3 -->
<g id="node3" class="node"><title>Node3</title>
<g id="a_node3"><a xlink:href="../../d8/dfd/_calculate_8h.html" target="_top" xlink:title="Calculate.h">
<polygon fill="none" stroke="black" points="52.5,-56.5 52.5,-75.5 118.5,-75.5 118.5,-56.5 52.5,-56.5"/>
<text text-anchor="middle" x="85.5" y="-63.5" font-family="Helvetica,sans-Serif" font-size="10.00">Calculate.h</text>
</a>
</g>
</g>
<!-- Node1&#45;&gt;Node3 -->
<g id="edge2" class="edge"><title>Node1&#45;&gt;Node3</title>
<path fill="none" stroke="midnightblue" d="M186.183,-108.503C161.624,-98.3795 127.682,-84.388 106.16,-75.5164"/>
<polygon fill="midnightblue" stroke="midnightblue" points="185.163,-111.868 195.743,-112.444 187.831,-105.397 185.163,-111.868"/>
</g>
<!-- Node4 -->
<g id="node4" class="node"><title>Node4</title>
<g id="a_node4"><a xlink:href="../../d7/d01/_evaluate_array_8h.html" target="_top" xlink:title="Evaluate helper template function implementation. ">
<polygon fill="none" stroke="black" points="95.5,-0.5 95.5,-19.5 181.5,-19.5 181.5,-0.5 95.5,-0.5"/>
<text text-anchor="middle" x="138.5" y="-7.5" font-family="Helvetica,sans-Serif" font-size="10.00">EvaluateArray.h</text>
</a>
</g>
</g>
<!-- Node1&#45;&gt;Node4 -->
<g id="edge5" class="edge"><title>Node1&#45;&gt;Node4</title>
<path fill="none" stroke="midnightblue" d="M195.67,-106.215C185.524,-98.1895 173.763,-87.5562 165.5,-76 152.564,-57.9095 144.375,-32.6883 140.721,-19.6189"/>
<polygon fill="midnightblue" stroke="midnightblue" points="193.618,-109.051 203.7,-112.306 197.848,-103.474 193.618,-109.051"/>
</g>
<!-- Node5 -->
<g id="node5" class="node"><title>Node5</title>
<g id="a_node5"><a xlink:href="../../de/d2f/_decay_mother_8h.html" target="_top" xlink:title="DecayMother.h">
<polygon fill="none" stroke="black" points="175,-56.5 175,-75.5 258,-75.5 258,-56.5 175,-56.5"/>
<text text-anchor="middle" x="216.5" y="-63.5" font-family="Helvetica,sans-Serif" font-size="10.00">DecayMother.h</text>
</a>
</g>
</g>
<!-- Node1&#45;&gt;Node5 -->
<g id="edge6" class="edge"><title>Node1&#45;&gt;Node5</title>
<path fill="none" stroke="midnightblue" d="M216.5,-101.805C216.5,-92.9102 216.5,-82.7798 216.5,-75.7511"/>
<polygon fill="midnightblue" stroke="midnightblue" points="213,-102.083 216.5,-112.083 220,-102.083 213,-102.083"/>
</g>
<!-- Node6 -->
<g id="node6" class="node"><title>Node6</title>
<g id="a_node6"><a xlink:href="../../d6/d3f/_generate_8h.html" target="_top" xlink:title="Implements the struct Events and the class PhaseSpace. ">
<polygon fill="none" stroke="black" points="290,-0.5 290,-19.5 355,-19.5 355,-0.5 290,-0.5"/>
<text text-anchor="middle" x="322.5" y="-7.5" font-family="Helvetica,sans-Serif" font-size="10.00">Generate.h</text>
</a>
</g>
</g>
<!-- Node1&#45;&gt;Node6 -->
<g id="edge12" class="edge"><title>Node1&#45;&gt;Node6</title>
<path fill="none" stroke="midnightblue" d="M234.652,-105.65C244.373,-97.1876 256.392,-86.3293 266.5,-76 285.252,-56.8373 305.32,-32.4871 315.582,-19.7181"/>
<polygon fill="midnightblue" stroke="midnightblue" points="232.107,-103.222 226.807,-112.396 236.671,-108.53 232.107,-103.222"/>
</g>
<!-- Node7 -->
<g id="node7" class="node"><title>Node7</title>
<g id="a_node7"><a xlink:href="../../db/d8a/_decay_mothers_8h.html" target="_top" xlink:title="DecayMothers.h">
<polygon fill="none" stroke="black" points="315,-56.5 315,-75.5 404,-75.5 404,-56.5 315,-56.5"/>
<text text-anchor="middle" x="359.5" y="-63.5" font-family="Helvetica,sans-Serif" font-size="10.00">DecayMothers.h</text>
</a>
</g>
</g>
<!-- Node1&#45;&gt;Node7 -->
<g id="edge8" class="edge"><title>Node1&#45;&gt;Node7</title>
<path fill="none" stroke="midnightblue" d="M248.527,-108.906C275.412,-98.7536 313.141,-84.5063 336.947,-75.5164"/>
<polygon fill="midnightblue" stroke="midnightblue" points="247.278,-105.636 239.159,-112.444 249.75,-112.185 247.278,-105.636"/>
</g>
<!-- Node8 -->
<g id="node8" class="node"><title>Node8</title>
<g id="a_node8"><a xlink:href="../../d0/d86/_rand_gen_8h.html" target="_top" xlink:title="RandGen.h">
<polygon fill="none" stroke="black" points="422.5,-56.5 422.5,-75.5 488.5,-75.5 488.5,-56.5 422.5,-56.5"/>
<text text-anchor="middle" x="455.5" y="-63.5" font-family="Helvetica,sans-Serif" font-size="10.00">RandGen.h</text>
</a>
</g>
</g>
<!-- Node1&#45;&gt;Node8 -->
<g id="edge10" class="edge"><title>Node1&#45;&gt;Node8</title>
<path fill="none" stroke="midnightblue" d="M264.291,-110.202C311.166,-99.6109 381.403,-83.7416 422.425,-74.473"/>
<polygon fill="midnightblue" stroke="midnightblue" points="263.353,-106.826 254.37,-112.444 264.896,-113.654 263.353,-106.826"/>
</g>
<!-- Node3&#45;&gt;Node2 -->
<g id="edge3" class="edge"><title>Node3&#45;&gt;Node2</title>
<path fill="none" stroke="midnightblue" d="M69.5024,-49.0024C59.9329,-39.4329 48.1389,-27.6389 40.2511,-19.7511"/>
<polygon fill="midnightblue" stroke="midnightblue" points="67.037,-51.4868 76.583,-56.083 71.9868,-46.537 67.037,-51.4868"/>
</g>
<!-- Node3&#45;&gt;Node4 -->
<g id="edge4" class="edge"><title>Node3&#45;&gt;Node4</title>
<path fill="none" stroke="midnightblue" d="M101.481,-48.7175C110.822,-39.1997 122.246,-27.5608 129.911,-19.7511"/>
<polygon fill="midnightblue" stroke="midnightblue" points="98.7587,-46.4945 94.2519,-56.083 103.754,-51.3978 98.7587,-46.4945"/>
</g>
<!-- Node5&#45;&gt;Node6 -->
<g id="edge7" class="edge"><title>Node5&#45;&gt;Node6</title>
<path fill="none" stroke="midnightblue" d="M242.556,-51.7261C262.184,-41.7271 288.528,-28.3065 305.512,-19.6545"/>
<polygon fill="midnightblue" stroke="midnightblue" points="240.852,-48.666 233.531,-56.324 244.03,-54.9033 240.852,-48.666"/>
</g>
<!-- Node7&#45;&gt;Node6 -->
<g id="edge9" class="edge"><title>Node7&#45;&gt;Node6</title>
<path fill="none" stroke="midnightblue" d="M347.554,-47.5656C341.188,-38.2747 333.633,-27.2484 328.496,-19.7511"/>
<polygon fill="midnightblue" stroke="midnightblue" points="344.851,-49.812 353.39,-56.083 350.625,-45.8553 344.851,-49.812"/>
</g>
<!-- Node8&#45;&gt;Node6 -->
<g id="edge11" class="edge"><title>Node8&#45;&gt;Node6</title>
<path fill="none" stroke="midnightblue" d="M425.052,-52.6377C400.093,-42.504 365.423,-28.4274 343.476,-19.5164"/>
<polygon fill="midnightblue" stroke="midnightblue" points="423.844,-55.9245 434.426,-56.4435 426.477,-49.4387 423.844,-55.9245"/>
</g>
</g>
</svg>
