<?xml version="1.0" encoding="UTF-8" standalone="no"?>
<!DOCTYPE svg PUBLIC "-//W3C//DTD SVG 1.1//EN"
 "http://www.w3.org/Graphics/SVG/1.1/DTD/svg11.dtd">
<!-- Generated by graphviz version 2.38.0 (20140413.2041)
 -->
<!-- Title: Calculate.h Pages: 1 -->
<svg width="680pt" height="319pt"
 viewBox="0.00 0.00 680.00 319.00" xmlns="http://www.w3.org/2000/svg" xmlns:xlink="http://www.w3.org/1999/xlink">
<g id="graph0" class="graph" transform="scale(1 1) rotate(0) translate(4 315)">
<title>Calculate.h</title>
<!-- Node1 -->
<g id="node1" class="node"><title>Node1</title>
<polygon fill="#bfbfbf" stroke="black" points="271,-291.5 271,-310.5 337,-310.5 337,-291.5 271,-291.5"/>
<text text-anchor="middle" x="304" y="-298.5" font-family="Helvetica,sans-Serif" font-size="10.00">Calculate.h</text>
</g>
<!-- Node2 -->
<g id="node2" class="node"><title>Node2</title>
<g id="a_node2"><a xlink:href="_config_8h.html" target="_top" xlink:title="mcbooster/Config.h">
<polygon fill="none" stroke="black" points="0,-67.5 0,-86.5 102,-86.5 102,-67.5 0,-67.5"/>
<text text-anchor="middle" x="51" y="-74.5" font-family="Helvetica,sans-Serif" font-size="10.00">mcbooster/Config.h</text>
</a>
</g>
</g>
<!-- Node1&#45;&gt;Node2 -->
<g id="edge1" class="edge"><title>Node1&#45;&gt;Node2</title>
<path fill="none" stroke="midnightblue" d="M270.948,-298.457C209.998,-294.929 83.2615,-284.197 52,-255 8.68293,-214.544 21.7914,-181.202 33,-123 34.7901,-113.705 38.483,-103.889 42.0607,-95.8048"/>
<polygon fill="midnightblue" stroke="midnightblue" points="45.2733,-97.1981 46.3788,-86.6611 38.9436,-94.2089 45.2733,-97.1981"/>
</g>
<!-- Node4 -->
<g id="node4" class="node"><title>Node4</title>
<g id="a_node4"><a xlink:href="_vector3_r_8h.html" target="_top" xlink:title="mcbooster/Vector3R.h">
<polygon fill="none" stroke="black" points="308.5,-123.5 308.5,-142.5 423.5,-142.5 423.5,-123.5 308.5,-123.5"/>
<text text-anchor="middle" x="366" y="-130.5" font-family="Helvetica,sans-Serif" font-size="10.00">mcbooster/Vector3R.h</text>
</a>
</g>
</g>
<!-- Node1&#45;&gt;Node4 -->
<g id="edge3" class="edge"><title>Node1&#45;&gt;Node4</title>
<path fill="none" stroke="midnightblue" d="M270.824,-296.529C188.61,-286.702 -13.3286,-254.358 52,-179 83.2093,-142.999 215.682,-135.107 298.269,-133.772"/>
<polygon fill="midnightblue" stroke="midnightblue" points="298.38,-137.271 308.332,-133.638 298.286,-130.272 298.38,-137.271"/>
</g>
<!-- Node5 -->
<g id="node5" class="node"><title>Node5</title>
<g id="a_node5"><a xlink:href="_g_types_8h.html" target="_top" xlink:title="mcbooster/GTypes.h">
<polygon fill="none" stroke="black" points="564,-67.5 564,-86.5 672,-86.5 672,-67.5 564,-67.5"/>
<text text-anchor="middle" x="618" y="-74.5" font-family="Helvetica,sans-Serif" font-size="10.00">mcbooster/GTypes.h</text>
</a>
</g>
</g>
<!-- Node1&#45;&gt;Node5 -->
<g id="edge25" class="edge"><title>Node1&#45;&gt;Node5</title>
<path fill="none" stroke="midnightblue" d="M337.208,-300.657C404.901,-300.042 559.016,-288.304 637,-199 659.373,-173.38 655.344,-155.705 646,-123 643.098,-112.844 637.168,-102.747 631.51,-94.6991"/>
<polygon fill="midnightblue" stroke="midnightblue" points="634.219,-92.4786 625.412,-86.5891 628.624,-96.6853 634.219,-92.4786"/>
</g>
<!-- Node9 -->
<g id="node9" class="node"><title>Node9</title>
<g id="a_node9"><a xlink:href="_vector4_r_8h.html" target="_top" xlink:title="mcbooster/Vector4R.h">
<polygon fill="none" stroke="black" points="493.5,-179.5 493.5,-198.5 608.5,-198.5 608.5,-179.5 493.5,-179.5"/>
<text text-anchor="middle" x="551" y="-186.5" font-family="Helvetica,sans-Serif" font-size="10.00">mcbooster/Vector4R.h</text>
</a>
</g>
</g>
<!-- Node1&#45;&gt;Node9 -->
<g id="edge9" class="edge"><title>Node1&#45;&gt;Node9</title>
<path fill="none" stroke="midnightblue" d="M323.382,-291.368C366.669,-272.091 471.39,-225.454 522.282,-202.789"/>
<polygon fill="midnightblue" stroke="midnightblue" points="523.997,-205.857 531.708,-198.591 521.149,-199.462 523.997,-205.857"/>
</g>
<!-- Node11 -->
<g id="node11" class="node"><title>Node11</title>
<g id="a_node11"><a xlink:href="_g_containers_8h.html" target="_top" xlink:title="Typedef for useful container classes used in MCBooster. ">
<polygon fill="none" stroke="black" points="240,-235.5 240,-254.5 368,-254.5 368,-235.5 240,-235.5"/>
<text text-anchor="middle" x="304" y="-242.5" font-family="Helvetica,sans-Serif" font-size="10.00">mcbooster/GContainers.h</text>
</a>
</g>
</g>
<!-- Node1&#45;&gt;Node11 -->
<g id="edge16" class="edge"><title>Node1&#45;&gt;Node11</title>
<path fill="none" stroke="midnightblue" d="M304,-291.083C304,-284.006 304,-273.861 304,-264.986"/>
<polygon fill="midnightblue" stroke="midnightblue" points="307.5,-264.751 304,-254.751 300.5,-264.751 307.5,-264.751"/>
</g>
<!-- Node3 -->
<g id="node3" class="node"><title>Node3</title>
<polygon fill="none" stroke="#bfbfbf" points="2.5,-0.5 2.5,-30.5 99.5,-30.5 99.5,-0.5 2.5,-0.5"/>
<text text-anchor="start" x="10.5" y="-18.5" font-family="Helvetica,sans-Serif" font-size="10.00">thrust/detail/config</text>
<text text-anchor="middle" x="51" y="-7.5" font-family="Helvetica,sans-Serif" font-size="10.00">/host_device.h</text>
</g>
<!-- Node2&#45;&gt;Node3 -->
<g id="edge2" class="edge"><title>Node2&#45;&gt;Node3</title>
<path fill="none" stroke="midnightblue" d="M51,-67.4751C51,-60.471 51,-50.1919 51,-40.6956"/>
<polygon fill="midnightblue" stroke="midnightblue" points="54.5001,-40.5229 51,-30.523 47.5001,-40.523 54.5001,-40.5229"/>
</g>
<!-- Node4&#45;&gt;Node2 -->
<g id="edge4" class="edge"><title>Node4&#45;&gt;Node2</title>
<path fill="none" stroke="midnightblue" d="M316.087,-123.444C260.33,-113.885 170.114,-98.4195 110.674,-88.2298"/>
<polygon fill="midnightblue" stroke="midnightblue" points="111.127,-84.7565 100.679,-86.5164 109.944,-91.6558 111.127,-84.7565"/>
</g>
<!-- Node4&#45;&gt;Node5 -->
<g id="edge5" class="edge"><title>Node4&#45;&gt;Node5</title>
<path fill="none" stroke="midnightblue" d="M405.93,-123.444C449.891,-114.023 520.627,-98.8656 568.183,-88.6752"/>
<polygon fill="midnightblue" stroke="midnightblue" points="569.212,-92.0341 578.257,-86.5164 567.745,-85.1895 569.212,-92.0341"/>
</g>
<!-- Node6 -->
<g id="node6" class="node"><title>Node6</title>
<polygon fill="none" stroke="#bfbfbf" points="339.5,-67.5 339.5,-86.5 384.5,-86.5 384.5,-67.5 339.5,-67.5"/>
<text text-anchor="middle" x="362" y="-74.5" font-family="Helvetica,sans-Serif" font-size="10.00">iosfwd</text>
</g>
<!-- Node4&#45;&gt;Node6 -->
<g id="edge6" class="edge"><title>Node4&#45;&gt;Node6</title>
<path fill="none" stroke="midnightblue" d="M365.339,-123.083C364.815,-116.006 364.064,-105.861 363.406,-96.9865"/>
<polygon fill="midnightblue" stroke="midnightblue" points="366.877,-96.4652 362.648,-86.7511 359.897,-96.9823 366.877,-96.4652"/>
</g>
<!-- Node7 -->
<g id="node7" class="node"><title>Node7</title>
<polygon fill="none" stroke="#bfbfbf" points="403,-67.5 403,-86.5 457,-86.5 457,-67.5 403,-67.5"/>
<text text-anchor="middle" x="430" y="-74.5" font-family="Helvetica,sans-Serif" font-size="10.00">iostream</text>
</g>
<!-- Node4&#45;&gt;Node7 -->
<g id="edge7" class="edge"><title>Node4&#45;&gt;Node7</title>
<path fill="none" stroke="midnightblue" d="M376.283,-123.324C385.836,-115.263 400.28,-103.077 411.784,-93.3695"/>
<polygon fill="midnightblue" stroke="midnightblue" points="414.144,-95.9577 419.53,-86.8339 409.63,-90.6076 414.144,-95.9577"/>
</g>
<!-- Node8 -->
<g id="node8" class="node"><title>Node8</title>
<polygon fill="none" stroke="#bfbfbf" points="475.5,-67.5 475.5,-86.5 522.5,-86.5 522.5,-67.5 475.5,-67.5"/>
<text text-anchor="middle" x="499" y="-74.5" font-family="Helvetica,sans-Serif" font-size="10.00">math.h</text>
</g>
<!-- Node4&#45;&gt;Node8 -->
<g id="edge8" class="edge"><title>Node4&#45;&gt;Node8</title>
<path fill="none" stroke="midnightblue" d="M387.074,-123.444C409.06,-114.517 443.734,-100.439 468.664,-90.3168"/>
<polygon fill="midnightblue" stroke="midnightblue" points="470.076,-93.5213 478.024,-86.5164 467.442,-87.0355 470.076,-93.5213"/>
</g>
<!-- Node9&#45;&gt;Node2 -->
<g id="edge10" class="edge"><title>Node9&#45;&gt;Node2</title>
<path fill="none" stroke="midnightblue" d="M495.692,-179.424C444.467,-171.174 366.277,-157.799 299,-143 224.732,-126.663 139.137,-103.182 90.4114,-89.3681"/>
<polygon fill="midnightblue" stroke="midnightblue" points="91.1671,-85.9443 80.5909,-86.5732 89.2509,-92.6769 91.1671,-85.9443"/>
</g>
<!-- Node9&#45;&gt;Node4 -->
<g id="edge15" class="edge"><title>Node9&#45;&gt;Node4</title>
<path fill="none" stroke="midnightblue" d="M521.686,-179.444C490.158,-170.241 439.869,-155.562 405.014,-145.388"/>
<polygon fill="midnightblue" stroke="midnightblue" points="405.757,-141.959 395.177,-142.516 403.795,-148.678 405.757,-141.959"/>
</g>
<!-- Node9&#45;&gt;Node5 -->
<g id="edge11" class="edge"><title>Node9&#45;&gt;Node5</title>
<path fill="none" stroke="midnightblue" d="M556.671,-179.444C562.6,-170.443 572.12,-155.83 580,-143 589.703,-127.2 600.32,-108.954 607.859,-95.8228"/>
<polygon fill="midnightblue" stroke="midnightblue" points="611.033,-97.3222 612.958,-86.9037 604.956,-93.848 611.033,-97.3222"/>
</g>
<!-- Node9&#45;&gt;Node7 -->
<g id="edge13" class="edge"><title>Node9&#45;&gt;Node7</title>
<path fill="none" stroke="midnightblue" d="M541.505,-179.368C521.095,-160.814 472.804,-116.913 446.981,-93.4376"/>
<polygon fill="midnightblue" stroke="midnightblue" points="449.204,-90.7284 439.451,-86.5914 444.496,-95.908 449.204,-90.7284"/>
</g>
<!-- Node9&#45;&gt;Node8 -->
<g id="edge12" class="edge"><title>Node9&#45;&gt;Node8</title>
<path fill="none" stroke="midnightblue" d="M543.174,-179.3C535.758,-170.65 524.776,-156.726 518,-143 510.681,-128.175 505.67,-110.023 502.639,-96.6736"/>
<polygon fill="midnightblue" stroke="midnightblue" points="506.039,-95.8311 500.553,-86.7675 499.189,-97.2742 506.039,-95.8311"/>
</g>
<!-- Node10 -->
<g id="node10" class="node"><title>Node10</title>
<polygon fill="none" stroke="#bfbfbf" points="527,-123.5 527,-142.5 571,-142.5 571,-123.5 527,-123.5"/>
<text text-anchor="middle" x="549" y="-130.5" font-family="Helvetica,sans-Serif" font-size="10.00">cmath</text>
</g>
<!-- Node9&#45;&gt;Node10 -->
<g id="edge14" class="edge"><title>Node9&#45;&gt;Node10</title>
<path fill="none" stroke="midnightblue" d="M550.67,-179.083C550.408,-172.006 550.032,-161.861 549.703,-152.986"/>
<polygon fill="midnightblue" stroke="midnightblue" points="553.192,-152.615 549.324,-142.751 546.197,-152.874 553.192,-152.615"/>
</g>
<!-- Node11&#45;&gt;Node2 -->
<g id="edge17" class="edge"><title>Node11&#45;&gt;Node2</title>
<path fill="none" stroke="midnightblue" d="M239.775,-241.586C173.205,-237.579 75.6172,-226.972 52,-199 27.6904,-170.207 36.9565,-122.358 44.6814,-96.2932"/>
<polygon fill="midnightblue" stroke="midnightblue" points="48.0768,-97.1666 47.7954,-86.5755 41.4107,-95.0304 48.0768,-97.1666"/>
</g>
<!-- Node11&#45;&gt;Node4 -->
<g id="edge18" class="edge"><title>Node11&#45;&gt;Node4</title>
<path fill="none" stroke="midnightblue" d="M239.981,-241.201C175.524,-236.88 82.4948,-226.023 60,-199 54.3131,-192.168 54.1898,-185.727 60,-179 90.1667,-144.073 217.79,-135.761 298.389,-134.07"/>
<polygon fill="midnightblue" stroke="midnightblue" points="298.527,-137.568 308.462,-133.888 298.4,-130.57 298.527,-137.568"/>
</g>
<!-- Node11&#45;&gt;Node5 -->
<g id="edge21" class="edge"><title>Node11&#45;&gt;Node5</title>
<path fill="none" stroke="midnightblue" d="M368.229,-244.281C450.52,-243.113 586.346,-235.514 618,-199 642.682,-170.528 632.776,-122.55 624.634,-96.3794"/>
<polygon fill="midnightblue" stroke="midnightblue" points="627.858,-94.9861 621.359,-86.6191 621.222,-97.2131 627.858,-94.9861"/>
</g>
<!-- Node11&#45;&gt;Node9 -->
<g id="edge19" class="edge"><title>Node11&#45;&gt;Node9</title>
<path fill="none" stroke="midnightblue" d="M343.138,-235.444C386.226,-226.023 455.559,-210.866 502.171,-200.675"/>
<polygon fill="midnightblue" stroke="midnightblue" points="503.024,-204.072 512.045,-198.516 501.528,-197.233 503.024,-204.072"/>
</g>
<!-- Node12 -->
<g id="node12" class="node"><title>Node12</title>
<polygon fill="none" stroke="#bfbfbf" points="431,-179.5 431,-198.5 475,-198.5 475,-179.5 431,-179.5"/>
<text text-anchor="middle" x="453" y="-186.5" font-family="Helvetica,sans-Serif" font-size="10.00">vector</text>
</g>
<!-- Node11&#45;&gt;Node12 -->
<g id="edge20" class="edge"><title>Node11&#45;&gt;Node12</title>
<path fill="none" stroke="midnightblue" d="M327.609,-235.444C352.896,-226.279 393.167,-211.685 421.224,-201.516"/>
<polygon fill="midnightblue" stroke="midnightblue" points="422.749,-204.686 430.958,-197.988 420.364,-198.105 422.749,-204.686"/>
</g>
<!-- Node13 -->
<g id="node13" class="node"><title>Node13</title>
<polygon fill="none" stroke="#bfbfbf" points="69.5,-179.5 69.5,-198.5 182.5,-198.5 182.5,-179.5 69.5,-179.5"/>
<text text-anchor="middle" x="126" y="-186.5" font-family="Helvetica,sans-Serif" font-size="10.00">thrust/device_vector.h</text>
</g>
<!-- Node11&#45;&gt;Node13 -->
<g id="edge22" class="edge"><title>Node11&#45;&gt;Node13</title>
<path fill="none" stroke="midnightblue" d="M275.795,-235.444C245.59,-226.28 197.489,-211.688 163.971,-201.519"/>
<polygon fill="midnightblue" stroke="midnightblue" points="164.658,-198.07 154.073,-198.516 162.626,-204.769 164.658,-198.07"/>
</g>
<!-- Node14 -->
<g id="node14" class="node"><title>Node14</title>
<polygon fill="none" stroke="#bfbfbf" points="201,-179.5 201,-198.5 305,-198.5 305,-179.5 201,-179.5"/>
<text text-anchor="middle" x="253" y="-186.5" font-family="Helvetica,sans-Serif" font-size="10.00">thrust/host_vector.h</text>
</g>
<!-- Node11&#45;&gt;Node14 -->
<g id="edge23" class="edge"><title>Node11&#45;&gt;Node14</title>
<path fill="none" stroke="midnightblue" d="M295.578,-235.083C288.152,-227.22 277.148,-215.569 268.188,-206.081"/>
<polygon fill="midnightblue" stroke="midnightblue" points="270.676,-203.618 261.265,-198.751 265.587,-208.424 270.676,-203.618"/>
</g>
<!-- Node15 -->
<g id="node15" class="node"><title>Node15</title>
<polygon fill="none" stroke="#bfbfbf" points="323.5,-179.5 323.5,-198.5 412.5,-198.5 412.5,-179.5 323.5,-179.5"/>
<text text-anchor="middle" x="368" y="-186.5" font-family="Helvetica,sans-Serif" font-size="10.00">thrust/complex.h</text>
</g>
<!-- Node11&#45;&gt;Node15 -->
<g id="edge24" class="edge"><title>Node11&#45;&gt;Node15</title>
<path fill="none" stroke="midnightblue" d="M314.283,-235.324C323.836,-227.263 338.28,-215.077 349.784,-205.369"/>
<polygon fill="midnightblue" stroke="midnightblue" points="352.144,-207.958 357.53,-198.834 347.63,-202.608 352.144,-207.958"/>
</g>
</g>
</svg>
