<?xml version="1.0" encoding="UTF-8" standalone="no"?>
<!DOCTYPE svg PUBLIC "-//W3C//DTD SVG 1.1//EN"
 "http://www.w3.org/Graphics/SVG/1.1/DTD/svg11.dtd">
<!-- Generated by graphviz version 2.38.0 (20140413.2041)
 -->
<!-- Title: GContainers.h Pages: 1 -->
<!--zoomable 263 -->
<svg id="main" version="1.1" xmlns="http://www.w3.org/2000/svg" xmlns:xlink="http://www.w3.org/1999/xlink" xml:space="preserve" onload="init(evt)">
<style type="text/css"><![CDATA[
.edge:hover path { stroke: red; }
.edge:hover polygon { stroke: red; fill: red; }
]]></style>
<script type="text/javascript"><![CDATA[
var edges = document.getElementsByTagName('g');
if (edges && edges.length) {
  for (var i=0;i<edges.length;i++) {
    if (edges[i].id.substr(0,4)=='edge') {
      edges[i].setAttribute('class','edge');
    }
  }
}
]]></script>
        <defs>
                <circle id="rim" cx="0" cy="0" r="7"/>
                <circle id="rim2" cx="0" cy="0" r="3.5"/>
                <g id="zoomPlus">
                        <use xlink:href="#rim" fill="#404040">
                                <set attributeName="fill" to="#808080" begin="zoomplus.mouseover" end="zoomplus.mouseout"/>
                        </use>
                        <path d="M-4,0h8M0,-4v8" fill="none" stroke="white" stroke-width="1.5" pointer-events="none"/>
                </g>
                <g id="zoomMin">
                        <use xlink:href="#rim" fill="#404040">
                                <set attributeName="fill" to="#808080" begin="zoomminus.mouseover" end="zoomminus.mouseout"/>
                        </use>
                        <path d="M-4,0h8" fill="none" stroke="white" stroke-width="1.5" pointer-events="none"/>
                </g>
                <g id="dirArrow">
                        <path fill="none" stroke="white" stroke-width="1.5" d="M0,-3.0v7 M-2.5,-0.5L0,-3.0L2.5,-0.5"/>
                </g>
               <g id="resetDef">
                       <use xlink:href="#rim2" fill="#404040">
                               <set attributeName="fill" to="#808080" begin="reset.mouseover" end="reset.mouseout"/>
                       </use>
               </g>
        </defs>

<script type="text/javascript">
var viewWidth = 740;
var viewHeight = 263;
var sectionId = 'dynsection-0';
</script>
<script xlink:href="svgpan.js"/>
<svg id="graph" class="graph">
<g id="viewport">
<title>GContainers.h</title>
<!-- Node1 -->
<g id="node1" class="node"><title>Node1</title>
<polygon fill="#bfbfbf" stroke="black" points="283,-235.5 283,-254.5 363,-254.5 363,-235.5 283,-235.5"/>
<text text-anchor="middle" x="323" y="-242.5" font-family="Helvetica,sans-Serif" font-size="10.00">GContainers.h</text>
</g>
<!-- Node2 -->
<g id="node2" class="node"><title>Node2</title>
<g id="a_node2"><a xlink:href="_config_8h.html" target="_top" xlink:title="mcbooster/Config.h">
<polygon fill="none" stroke="black" points="0,-67.5 0,-86.5 102,-86.5 102,-67.5 0,-67.5"/>
<text text-anchor="middle" x="51" y="-74.5" font-family="Helvetica,sans-Serif" font-size="10.00">mcbooster/Config.h</text>
</a>
</g>
</g>
<!-- Node1&#45;&gt;Node2 -->
<g id="edge1" class="edge"><title>Node1&#45;&gt;Node2</title>
<path fill="none" stroke="midnightblue" d="M282.865,-242.84C241.887,-239.86 178.064,-230.087 133,-199 95.0128,-172.795 69.6155,-122.758 58.091,-95.9742"/>
<polygon fill="midnightblue" stroke="midnightblue" points="61.2909,-94.5533 54.2379,-86.6472 54.8212,-97.226 61.2909,-94.5533"/>
</g>
<!-- Node4 -->
<g id="node4" class="node"><title>Node4</title>
<g id="a_node4"><a xlink:href="_vector3_r_8h.html" target="_top" xlink:title="mcbooster/Vector3R.h">
<polygon fill="none" stroke="black" points="290.5,-123.5 290.5,-142.5 405.5,-142.5 405.5,-123.5 290.5,-123.5"/>
<text text-anchor="middle" x="348" y="-130.5" font-family="Helvetica,sans-Serif" font-size="10.00">mcbooster/Vector3R.h</text>
</a>
</g>
</g>
<!-- Node1&#45;&gt;Node4 -->
<g id="edge3" class="edge"><title>Node1&#45;&gt;Node4</title>
<path fill="none" stroke="midnightblue" d="M320.125,-235.365C316.368,-222.7 310.94,-198.478 317,-179 320.229,-168.622 326.776,-158.521 333.025,-150.527"/>
<polygon fill="midnightblue" stroke="midnightblue" points="335.785,-152.682 339.517,-142.766 330.416,-148.19 335.785,-152.682"/>
</g>
<!-- Node5 -->
<g id="node5" class="node"><title>Node5</title>
<g id="a_node5"><a xlink:href="_g_types_8h.html" target="_top" xlink:title="mcbooster/GTypes.h">
<polygon fill="none" stroke="black" points="120,-67.5 120,-86.5 228,-86.5 228,-67.5 120,-67.5"/>
<text text-anchor="middle" x="174" y="-74.5" font-family="Helvetica,sans-Serif" font-size="10.00">mcbooster/GTypes.h</text>
</a>
</g>
</g>
<!-- Node1&#45;&gt;Node5 -->
<g id="edge17" class="edge"><title>Node1&#45;&gt;Node5</title>
<path fill="none" stroke="midnightblue" d="M282.698,-239.523C235.539,-233.358 161.744,-220.503 145,-199 120.993,-168.169 145.392,-120.494 161.776,-95.1735"/>
<polygon fill="midnightblue" stroke="midnightblue" points="164.841,-96.8892 167.545,-86.6453 159.043,-92.967 164.841,-96.8892"/>
</g>
<!-- Node9 -->
<g id="node9" class="node"><title>Node9</title>
<g id="a_node9"><a xlink:href="_vector4_r_8h.html" target="_top" xlink:title="mcbooster/Vector4R.h">
<polygon fill="none" stroke="black" points="154.5,-179.5 154.5,-198.5 269.5,-198.5 269.5,-179.5 154.5,-179.5"/>
<text text-anchor="middle" x="212" y="-186.5" font-family="Helvetica,sans-Serif" font-size="10.00">mcbooster/Vector4R.h</text>
</a>
</g>
</g>
<!-- Node1&#45;&gt;Node9 -->
<g id="edge9" class="edge"><title>Node1&#45;&gt;Node9</title>
<path fill="none" stroke="midnightblue" d="M305.166,-235.324C287.284,-226.625 259.525,-213.12 238.954,-203.113"/>
<polygon fill="midnightblue" stroke="midnightblue" points="240.313,-199.882 229.79,-198.655 237.251,-206.177 240.313,-199.882"/>
</g>
<!-- Node11 -->
<g id="node11" class="node"><title>Node11</title>
<polygon fill="none" stroke="#bfbfbf" points="326,-179.5 326,-198.5 370,-198.5 370,-179.5 326,-179.5"/>
<text text-anchor="middle" x="348" y="-186.5" font-family="Helvetica,sans-Serif" font-size="10.00">vector</text>
</g>
<!-- Node1&#45;&gt;Node11 -->
<g id="edge16" class="edge"><title>Node1&#45;&gt;Node11</title>
<path fill="none" stroke="midnightblue" d="M327.128,-235.083C330.514,-227.77 335.416,-217.181 339.619,-208.103"/>
<polygon fill="midnightblue" stroke="midnightblue" points="342.923,-209.296 343.949,-198.751 336.571,-206.355 342.923,-209.296"/>
</g>
<!-- Node12 -->
<g id="node12" class="node"><title>Node12</title>
<polygon fill="none" stroke="#bfbfbf" points="388.5,-179.5 388.5,-198.5 501.5,-198.5 501.5,-179.5 388.5,-179.5"/>
<text text-anchor="middle" x="445" y="-186.5" font-family="Helvetica,sans-Serif" font-size="10.00">thrust/device_vector.h</text>
</g>
<!-- Node1&#45;&gt;Node12 -->
<g id="edge18" class="edge"><title>Node1&#45;&gt;Node12</title>
<path fill="none" stroke="midnightblue" d="M342.331,-235.444C362.32,-226.596 393.743,-212.687 416.564,-202.586"/>
<polygon fill="midnightblue" stroke="midnightblue" points="418.032,-205.764 425.759,-198.516 415.198,-199.363 418.032,-205.764"/>
</g>
<!-- Node13 -->
<g id="node13" class="node"><title>Node13</title>
<polygon fill="none" stroke="#bfbfbf" points="520,-179.5 520,-198.5 624,-198.5 624,-179.5 520,-179.5"/>
<text text-anchor="middle" x="572" y="-186.5" font-family="Helvetica,sans-Serif" font-size="10.00">thrust/host_vector.h</text>
</g>
<!-- Node1&#45;&gt;Node13 -->
<g id="edge19" class="edge"><title>Node1&#45;&gt;Node13</title>
<path fill="none" stroke="midnightblue" d="M362.455,-235.444C405.892,-226.023 475.786,-210.866 522.776,-200.675"/>
<polygon fill="midnightblue" stroke="midnightblue" points="523.699,-204.056 532.73,-198.516 522.215,-197.215 523.699,-204.056"/>
</g>
<!-- Node14 -->
<g id="node14" class="node"><title>Node14</title>
<polygon fill="none" stroke="#bfbfbf" points="642.5,-179.5 642.5,-198.5 731.5,-198.5 731.5,-179.5 642.5,-179.5"/>
<text text-anchor="middle" x="687" y="-186.5" font-family="Helvetica,sans-Serif" font-size="10.00">thrust/complex.h</text>
</g>
<!-- Node1&#45;&gt;Node14 -->
<g id="edge20" class="edge"><title>Node1&#45;&gt;Node14</title>
<path fill="none" stroke="midnightblue" d="M363.169,-238.444C420.464,-230.458 529.209,-215.079 632.269,-199.087"/>
<polygon fill="midnightblue" stroke="midnightblue" points="632.88,-202.534 642.223,-197.537 631.803,-195.617 632.88,-202.534"/>
</g>
<!-- Node3 -->
<g id="node3" class="node"><title>Node3</title>
<polygon fill="none" stroke="#bfbfbf" points="2.5,-0.5 2.5,-30.5 99.5,-30.5 99.5,-0.5 2.5,-0.5"/>
<text text-anchor="start" x="10.5" y="-18.5" font-family="Helvetica,sans-Serif" font-size="10.00">thrust/detail/config</text>
<text text-anchor="middle" x="51" y="-7.5" font-family="Helvetica,sans-Serif" font-size="10.00">/host_device.h</text>
</g>
<!-- Node2&#45;&gt;Node3 -->
<g id="edge2" class="edge"><title>Node2&#45;&gt;Node3</title>
<path fill="none" stroke="midnightblue" d="M51,-67.4751C51,-60.471 51,-50.1919 51,-40.6956"/>
<polygon fill="midnightblue" stroke="midnightblue" points="54.5001,-40.5229 51,-30.523 47.5001,-40.523 54.5001,-40.5229"/>
</g>
<!-- Node4&#45;&gt;Node2 -->
<g id="edge4" class="edge"><title>Node4&#45;&gt;Node2</title>
<path fill="none" stroke="midnightblue" d="M300.939,-123.444C248.585,-113.925 164.01,-98.5472 107.96,-88.3563"/>
<polygon fill="midnightblue" stroke="midnightblue" points="108.305,-84.8618 97.8404,-86.5164 107.053,-91.7489 108.305,-84.8618"/>
</g>
<!-- Node4&#45;&gt;Node5 -->
<g id="edge5" class="edge"><title>Node4&#45;&gt;Node5</title>
<path fill="none" stroke="midnightblue" d="M320.429,-123.444C290.903,-114.28 243.882,-99.6876 211.117,-89.5192"/>
<polygon fill="midnightblue" stroke="midnightblue" points="212.03,-86.1378 201.442,-86.5164 209.955,-92.8232 212.03,-86.1378"/>
</g>
<!-- Node6 -->
<g id="node6" class="node"><title>Node6</title>
<polygon fill="none" stroke="#bfbfbf" points="325.5,-67.5 325.5,-86.5 370.5,-86.5 370.5,-67.5 325.5,-67.5"/>
<text text-anchor="middle" x="348" y="-74.5" font-family="Helvetica,sans-Serif" font-size="10.00">iosfwd</text>
</g>
<!-- Node4&#45;&gt;Node6 -->
<g id="edge6" class="edge"><title>Node4&#45;&gt;Node6</title>
<path fill="none" stroke="midnightblue" d="M348,-123.083C348,-116.006 348,-105.861 348,-96.9865"/>
<polygon fill="midnightblue" stroke="midnightblue" points="351.5,-96.751 348,-86.7511 344.5,-96.7511 351.5,-96.751"/>
</g>
<!-- Node7 -->
<g id="node7" class="node"><title>Node7</title>
<polygon fill="none" stroke="#bfbfbf" points="251,-67.5 251,-86.5 305,-86.5 305,-67.5 251,-67.5"/>
<text text-anchor="middle" x="278" y="-74.5" font-family="Helvetica,sans-Serif" font-size="10.00">iostream</text>
</g>
<!-- Node4&#45;&gt;Node7 -->
<g id="edge7" class="edge"><title>Node4&#45;&gt;Node7</title>
<path fill="none" stroke="midnightblue" d="M336.753,-123.324C326.203,-115.185 310.199,-102.839 297.558,-93.0874"/>
<polygon fill="midnightblue" stroke="midnightblue" points="299.507,-90.1707 289.451,-86.8339 295.231,-95.7132 299.507,-90.1707"/>
</g>
<!-- Node8 -->
<g id="node8" class="node"><title>Node8</title>
<polygon fill="none" stroke="#bfbfbf" points="399.5,-67.5 399.5,-86.5 446.5,-86.5 446.5,-67.5 399.5,-67.5"/>
<text text-anchor="middle" x="423" y="-74.5" font-family="Helvetica,sans-Serif" font-size="10.00">math.h</text>
</g>
<!-- Node4&#45;&gt;Node8 -->
<g id="edge8" class="edge"><title>Node4&#45;&gt;Node8</title>
<path fill="none" stroke="midnightblue" d="M360.05,-123.324C371.463,-115.107 388.831,-102.602 402.435,-92.8069"/>
<polygon fill="midnightblue" stroke="midnightblue" points="404.66,-95.5174 410.731,-86.8339 400.57,-89.8366 404.66,-95.5174"/>
</g>
<!-- Node9&#45;&gt;Node2 -->
<g id="edge10" class="edge"><title>Node9&#45;&gt;Node2</title>
<path fill="none" stroke="midnightblue" d="M199.367,-179.368C171.739,-160.492 105.718,-115.385 71.8373,-92.2367"/>
<polygon fill="midnightblue" stroke="midnightblue" points="73.8061,-89.3429 63.5747,-86.5914 69.8571,-95.1227 73.8061,-89.3429"/>
</g>
<!-- Node9&#45;&gt;Node4 -->
<g id="edge15" class="edge"><title>Node9&#45;&gt;Node4</title>
<path fill="none" stroke="midnightblue" d="M233.55,-179.444C256.031,-170.517 291.488,-156.439 316.98,-146.317"/>
<polygon fill="midnightblue" stroke="midnightblue" points="318.549,-149.46 326.551,-142.516 315.965,-142.954 318.549,-149.46"/>
</g>
<!-- Node9&#45;&gt;Node5 -->
<g id="edge11" class="edge"><title>Node9&#45;&gt;Node5</title>
<path fill="none" stroke="midnightblue" d="M204.142,-179.444C196.8,-170.901 186.214,-157.053 181,-143 175.504,-128.185 173.915,-110.26 173.61,-96.9895"/>
<polygon fill="midnightblue" stroke="midnightblue" points="177.11,-96.7189 173.606,-86.7204 170.11,-96.7218 177.11,-96.7189"/>
</g>
<!-- Node9&#45;&gt;Node7 -->
<g id="edge13" class="edge"><title>Node9&#45;&gt;Node7</title>
<path fill="none" stroke="midnightblue" d="M218.469,-179.226C224.954,-170.292 235.084,-155.952 243,-143 252.587,-127.314 262.419,-108.799 269.211,-95.5509"/>
<polygon fill="midnightblue" stroke="midnightblue" points="272.359,-97.0821 273.758,-86.5801 266.115,-93.9171 272.359,-97.0821"/>
</g>
<!-- Node9&#45;&gt;Node8 -->
<g id="edge12" class="edge"><title>Node9&#45;&gt;Node8</title>
<path fill="none" stroke="midnightblue" d="M269.686,-182.442C322.327,-176.122 394.765,-163.873 414,-143 425.209,-130.837 426.599,-111.563 425.702,-97.1563"/>
<polygon fill="midnightblue" stroke="midnightblue" points="429.148,-96.4605 424.636,-86.8747 422.186,-97.1823 429.148,-96.4605"/>
</g>
<!-- Node10 -->
<g id="node10" class="node"><title>Node10</title>
<polygon fill="none" stroke="#bfbfbf" points="190,-123.5 190,-142.5 234,-142.5 234,-123.5 190,-123.5"/>
<text text-anchor="middle" x="212" y="-130.5" font-family="Helvetica,sans-Serif" font-size="10.00">cmath</text>
</g>
<!-- Node9&#45;&gt;Node10 -->
<g id="edge14" class="edge"><title>Node9&#45;&gt;Node10</title>
<path fill="none" stroke="midnightblue" d="M212,-179.083C212,-172.006 212,-161.861 212,-152.986"/>
<polygon fill="midnightblue" stroke="midnightblue" points="215.5,-152.751 212,-142.751 208.5,-152.751 215.5,-152.751"/>
</g>
</g>
</svg>
        <g id="navigator" transform="translate(0 0)" fill="#404254">
                <rect fill="#f2f5e9" fill-opacity="0.5" stroke="#606060" stroke-width=".5" x="0" y="0" width="60" height="60"/>
                <use id="zoomplus" xlink:href="#zoomPlus" x="17" y="9" onmousedown="handleZoom(evt,'in')"/>
                <use id="zoomminus" xlink:href="#zoomMin" x="42" y="9" onmousedown="handleZoom(evt,'out')"/>
                <use id="reset" xlink:href="#resetDef" x="30" y="36" onmousedown="handleReset()"/>
                <g id="arrowUp" xlink:href="#dirArrow" transform="translate(30 24)" onmousedown="handlePan(0,-1)">
                  <use xlink:href="#rim" fill="#404040">
                        <set attributeName="fill" to="#808080" begin="arrowUp.mouseover" end="arrowUp.mouseout"/>
                  </use>
                  <path fill="none" stroke="white" stroke-width="1.5" d="M0,-3.0v7 M-2.5,-0.5L0,-3.0L2.5,-0.5"/>
                </g>
                <g id="arrowRight" xlink:href="#dirArrow" transform="rotate(90) translate(36 -43)" onmousedown="handlePan(1,0)">
                  <use xlink:href="#rim" fill="#404040">
                        <set attributeName="fill" to="#808080" begin="arrowRight.mouseover" end="arrowRight.mouseout"/>
                  </use>
                  <path fill="none" stroke="white" stroke-width="1.5" d="M0,-3.0v7 M-2.5,-0.5L0,-3.0L2.5,-0.5"/>
                </g>
                <g id="arrowDown" xlink:href="#dirArrow" transform="rotate(180) translate(-30 -48)" onmousedown="handlePan(0,1)">
                  <use xlink:href="#rim" fill="#404040">
                        <set attributeName="fill" to="#808080" begin="arrowDown.mouseover" end="arrowDown.mouseout"/>
                  </use>
                  <path fill="none" stroke="white" stroke-width="1.5" d="M0,-3.0v7 M-2.5,-0.5L0,-3.0L2.5,-0.5"/>
                </g>
                <g id="arrowLeft" xlink:href="#dirArrow" transform="rotate(270) translate(-36 17)" onmousedown="handlePan(-1,0)">
                  <use xlink:href="#rim" fill="#404040">
                        <set attributeName="fill" to="#808080" begin="arrowLeft.mouseover" end="arrowLeft.mouseout"/>
                  </use>
                  <path fill="none" stroke="white" stroke-width="1.5" d="M0,-3.0v7 M-2.5,-0.5L0,-3.0L2.5,-0.5"/>
                </g>
        </g>
        <svg viewBox="0 0 15 15" width="100%" height="30px" preserveAspectRatio="xMaxYMin meet">
         <g id="arrow_out" transform="scale(0.3 0.3)">
          <a xlink:href="_g_containers_8h__incl_org.svg" target="_base">
           <rect id="button" ry="5" rx="5" y="6" x="6" height="38" width="38"
                fill="#f2f5e9" fill-opacity="0.5" stroke="#606060" stroke-width="1.0"/>
           <path id="arrow"
             d="M 11.500037,31.436501 C 11.940474,20.09759 22.043105,11.32322 32.158766,21.979434 L 37.068811,17.246167 C 37.068811,17.246167 37.088388,32 37.088388,32 L 22.160133,31.978069 C 22.160133,31.978069 26.997745,27.140456 26.997745,27.140456 C 18.528582,18.264221 13.291696,25.230495 11.500037,31.436501 z"
             style="fill:#404040;"/>
          </a>
         </g>
        </svg>
</svg>
