<?xml version="1.0" encoding="UTF-8" standalone="no"?>
<!DOCTYPE svg PUBLIC "-//W3C//DTD SVG 1.1//EN"
 "http://www.w3.org/Graphics/SVG/1.1/DTD/svg11.dtd">
<!-- Generated by graphviz version 2.38.0 (20140413.2041)
 -->
<!-- Title: GTypes.h Pages: 1 -->
<svg width="1018pt" height="308pt"
 viewBox="0.00 0.00 1017.50 308.00" xmlns="http://www.w3.org/2000/svg" xmlns:xlink="http://www.w3.org/1999/xlink">
<g id="graph0" class="graph" transform="scale(1 1) rotate(0) translate(4 304)">
<title>GTypes.h</title>
<!-- Node1 -->
<g id="node1" class="node"><title>Node1</title>
<polygon fill="#bfbfbf" stroke="black" points="560.5,-280.5 560.5,-299.5 619.5,-299.5 619.5,-280.5 560.5,-280.5"/>
<text text-anchor="middle" x="590" y="-287.5" font-family="Helvetica,sans-Serif" font-size="10.00">GTypes.h</text>
</g>
<!-- Node2 -->
<g id="node2" class="node"><title>Node2</title>
<g id="a_node2"><a xlink:href="_vector3_r_8h.html" target="_top" xlink:title="Vector3R.h">
<polygon fill="none" stroke="black" points="434,-224.5 434,-243.5 500,-243.5 500,-224.5 434,-224.5"/>
<text text-anchor="middle" x="467" y="-231.5" font-family="Helvetica,sans-Serif" font-size="10.00">Vector3R.h</text>
</a>
</g>
</g>
<!-- Node1&#45;&gt;Node2 -->
<g id="edge1" class="edge"><title>Node1&#45;&gt;Node2</title>
<path fill="none" stroke="midnightblue" d="M561.227,-276.368C538.193,-266.255 506.516,-252.349 486.399,-243.516"/>
<polygon fill="midnightblue" stroke="midnightblue" points="559.947,-279.628 570.51,-280.444 562.761,-273.219 559.947,-279.628"/>
</g>
<!-- Node3 -->
<g id="node3" class="node"><title>Node3</title>
<g id="a_node3"><a xlink:href="_evaluate_8h.html" target="_top" xlink:title="Evaluate helper template function implementation. ">
<polygon fill="none" stroke="black" points="74.5,-0.5 74.5,-19.5 137.5,-19.5 137.5,-0.5 74.5,-0.5"/>
<text text-anchor="middle" x="106" y="-7.5" font-family="Helvetica,sans-Serif" font-size="10.00">Evaluate.h</text>
</a>
</g>
</g>
<!-- Node1&#45;&gt;Node3 -->
<g id="edge33" class="edge"><title>Node1&#45;&gt;Node3</title>
<path fill="none" stroke="midnightblue" d="M550.218,-285.814C417.762,-274.679 0,-235.114 0,-179 0,-179 0,-179 0,-121 0,-71.1404 57.1665,-35.1884 87.5362,-19.6068"/>
<polygon fill="midnightblue" stroke="midnightblue" points="550.082,-289.314 560.337,-286.656 550.662,-282.338 550.082,-289.314"/>
</g>
<!-- Node4 -->
<g id="node4" class="node"><title>Node4</title>
<g id="a_node4"><a xlink:href="_vector4_r_8h.html" target="_top" xlink:title="Vector4R.h">
<polygon fill="none" stroke="black" points="422,-168.5 422,-187.5 488,-187.5 488,-168.5 422,-168.5"/>
<text text-anchor="middle" x="455" y="-175.5" font-family="Helvetica,sans-Serif" font-size="10.00">Vector4R.h</text>
</a>
</g>
</g>
<!-- Node1&#45;&gt;Node4 -->
<g id="edge31" class="edge"><title>Node1&#45;&gt;Node4</title>
<path fill="none" stroke="midnightblue" d="M571.365,-273.816C542.612,-250.387 488.369,-206.19 465.544,-187.591"/>
<polygon fill="midnightblue" stroke="midnightblue" points="569.444,-276.765 579.407,-280.368 573.865,-271.338 569.444,-276.765"/>
</g>
<!-- Node5 -->
<g id="node5" class="node"><title>Node5</title>
<g id="a_node5"><a xlink:href="_g_containers_8h.html" target="_top" xlink:title="Typedef for useful container classes used in MCBooster. ">
<polygon fill="none" stroke="black" points="332,-112.5 332,-131.5 412,-131.5 412,-112.5 332,-112.5"/>
<text text-anchor="middle" x="372" y="-119.5" font-family="Helvetica,sans-Serif" font-size="10.00">GContainers.h</text>
</a>
</g>
</g>
<!-- Node1&#45;&gt;Node5 -->
<g id="edge32" class="edge"><title>Node1&#45;&gt;Node5</title>
<path fill="none" stroke="midnightblue" d="M550.153,-286.916C514.017,-283.147 461.041,-272.707 425,-244 388.046,-214.566 376.246,-154.152 373.047,-131.676"/>
<polygon fill="midnightblue" stroke="midnightblue" points="550.052,-290.422 560.33,-287.849 550.691,-283.451 550.052,-290.422"/>
</g>
<!-- Node6 -->
<g id="node6" class="node"><title>Node6</title>
<g id="a_node6"><a xlink:href="_calculate_8h.html" target="_top" xlink:title="Calculate.h">
<polygon fill="none" stroke="black" points="134,-56.5 134,-75.5 200,-75.5 200,-56.5 134,-56.5"/>
<text text-anchor="middle" x="167" y="-63.5" font-family="Helvetica,sans-Serif" font-size="10.00">Calculate.h</text>
</a>
</g>
</g>
<!-- Node1&#45;&gt;Node6 -->
<g id="edge34" class="edge"><title>Node1&#45;&gt;Node6</title>
<path fill="none" stroke="midnightblue" d="M550.286,-289.676C464.063,-290.309 263.494,-286.989 214,-244 162.392,-199.174 164.318,-104.797 166.259,-75.7166"/>
<polygon fill="midnightblue" stroke="midnightblue" points="550.493,-293.175 560.459,-289.579 550.426,-286.175 550.493,-293.175"/>
</g>
<!-- Node7 -->
<g id="node7" class="node"><title>Node7</title>
<g id="a_node7"><a xlink:href="_evaluate_array_8h.html" target="_top" xlink:title="Evaluate helper template function implementation. ">
<polygon fill="none" stroke="black" points="223,-0.5 223,-19.5 309,-19.5 309,-0.5 223,-0.5"/>
<text text-anchor="middle" x="266" y="-7.5" font-family="Helvetica,sans-Serif" font-size="10.00">EvaluateArray.h</text>
</a>
</g>
</g>
<!-- Node1&#45;&gt;Node7 -->
<g id="edge35" class="edge"><title>Node1&#45;&gt;Node7</title>
<path fill="none" stroke="midnightblue" d="M550.399,-285.434C456.469,-275.885 228,-245.793 228,-179 228,-179 228,-179 228,-121 228,-81.3989 250.275,-37.957 260.716,-19.769"/>
<polygon fill="midnightblue" stroke="midnightblue" points="550.08,-288.919 560.376,-286.422 550.77,-281.953 550.08,-288.919"/>
</g>
<!-- Node8 -->
<g id="node8" class="node"><title>Node8</title>
<g id="a_node8"><a xlink:href="_decay_mother_8h.html" target="_top" xlink:title="DecayMother.h">
<polygon fill="none" stroke="black" points="484.5,-56.5 484.5,-75.5 567.5,-75.5 567.5,-56.5 484.5,-56.5"/>
<text text-anchor="middle" x="526" y="-63.5" font-family="Helvetica,sans-Serif" font-size="10.00">DecayMother.h</text>
</a>
</g>
</g>
<!-- Node1&#45;&gt;Node8 -->
<g id="edge36" class="edge"><title>Node1&#45;&gt;Node8</title>
<path fill="none" stroke="midnightblue" d="M607.118,-273.273C640.323,-240.853 706.933,-165.179 668,-112 645.238,-80.9087 600.868,-70.7654 567.755,-67.7178"/>
<polygon fill="midnightblue" stroke="midnightblue" points="604.672,-270.769 599.847,-280.202 609.501,-275.836 604.672,-270.769"/>
</g>
<!-- Node9 -->
<g id="node9" class="node"><title>Node9</title>
<g id="a_node9"><a xlink:href="_generate_8h.html" target="_top" xlink:title="Implements the struct Events and the class PhaseSpace. ">
<polygon fill="none" stroke="black" points="686.5,-0.5 686.5,-19.5 751.5,-19.5 751.5,-0.5 686.5,-0.5"/>
<text text-anchor="middle" x="719" y="-7.5" font-family="Helvetica,sans-Serif" font-size="10.00">Generate.h</text>
</a>
</g>
</g>
<!-- Node1&#45;&gt;Node9 -->
<g id="edge41" class="edge"><title>Node1&#45;&gt;Node9</title>
<path fill="none" stroke="midnightblue" d="M629.814,-282.391C708.85,-268.139 878,-231.504 878,-179 878,-179 878,-179 878,-121 878,-90.9022 879.997,-77.5637 859,-56 830.592,-26.8255 783.237,-16.5367 751.572,-12.9255"/>
<polygon fill="midnightblue" stroke="midnightblue" points="628.973,-278.985 619.736,-284.174 630.193,-285.878 628.973,-278.985"/>
</g>
<!-- Node10 -->
<g id="node10" class="node"><title>Node10</title>
<g id="a_node10"><a xlink:href="_decay_mothers_8h.html" target="_top" xlink:title="DecayMothers.h">
<polygon fill="none" stroke="black" points="638.5,-56.5 638.5,-75.5 727.5,-75.5 727.5,-56.5 638.5,-56.5"/>
<text text-anchor="middle" x="683" y="-63.5" font-family="Helvetica,sans-Serif" font-size="10.00">DecayMothers.h</text>
</a>
</g>
</g>
<!-- Node1&#45;&gt;Node10 -->
<g id="edge37" class="edge"><title>Node1&#45;&gt;Node10</title>
<path fill="none" stroke="midnightblue" d="M615.794,-275.497C629.206,-267.589 645.214,-256.671 657,-244 676.524,-223.011 681.642,-215.705 689,-188 699.851,-147.14 689.964,-95.8502 685.214,-75.6975"/>
<polygon fill="midnightblue" stroke="midnightblue" points="613.982,-272.501 607.006,-280.475 617.432,-278.591 613.982,-272.501"/>
</g>
<!-- Node11 -->
<g id="node11" class="node"><title>Node11</title>
<g id="a_node11"><a xlink:href="_rand_gen_8h.html" target="_top" xlink:title="RandGen.h">
<polygon fill="none" stroke="black" points="784,-56.5 784,-75.5 850,-75.5 850,-56.5 784,-56.5"/>
<text text-anchor="middle" x="817" y="-63.5" font-family="Helvetica,sans-Serif" font-size="10.00">RandGen.h</text>
</a>
</g>
</g>
<!-- Node1&#45;&gt;Node11 -->
<g id="edge40" class="edge"><title>Node1&#45;&gt;Node11</title>
<path fill="none" stroke="midnightblue" d="M626.138,-276.922C679.795,-256.729 778.254,-210.415 816,-132 824.909,-113.492 821.656,-88.447 819.031,-75.5143"/>
<polygon fill="midnightblue" stroke="midnightblue" points="624.852,-273.665 616.665,-280.39 627.259,-280.238 624.852,-273.665"/>
</g>
<!-- Node12 -->
<g id="node12" class="node"><title>Node12</title>
<g id="a_node12"><a xlink:href="_g_functional_8h.html" target="_top" xlink:title="Implements the template functors IFunction and IFunctionArray. ">
<polygon fill="none" stroke="black" points="582.5,-112.5 582.5,-131.5 659.5,-131.5 659.5,-112.5 582.5,-112.5"/>
<text text-anchor="middle" x="621" y="-119.5" font-family="Helvetica,sans-Serif" font-size="10.00">GFunctional.h</text>
</a>
</g>
</g>
<!-- Node1&#45;&gt;Node12 -->
<g id="edge42" class="edge"><title>Node1&#45;&gt;Node12</title>
<path fill="none" stroke="midnightblue" d="M593.561,-269.93C600.286,-233.92 614.607,-157.231 619.4,-131.568"/>
<polygon fill="midnightblue" stroke="midnightblue" points="590.062,-269.603 591.667,-280.075 596.943,-270.888 590.062,-269.603"/>
</g>
<!-- Node13 -->
<g id="node13" class="node"><title>Node13</title>
<g id="a_node13"><a xlink:href="_flag_accept_reject_8h.html" target="_top" xlink:title="Implements FlagAcceptReject. ">
<polygon fill="none" stroke="black" points="906.5,-168.5 906.5,-187.5 1009.5,-187.5 1009.5,-168.5 906.5,-168.5"/>
<text text-anchor="middle" x="958" y="-175.5" font-family="Helvetica,sans-Serif" font-size="10.00">FlagAcceptReject.h</text>
</a>
</g>
</g>
<!-- Node1&#45;&gt;Node13 -->
<g id="edge38" class="edge"><title>Node1&#45;&gt;Node13</title>
<path fill="none" stroke="midnightblue" d="M630.085,-286.116C701.33,-280.485 846.771,-266.569 892,-244 918.766,-230.644 941.478,-202.383 951.898,-187.926"/>
<polygon fill="midnightblue" stroke="midnightblue" points="629.424,-282.657 619.723,-286.918 629.964,-289.636 629.424,-282.657"/>
</g>
<!-- Node2&#45;&gt;Node3 -->
<g id="edge2" class="edge"><title>Node2&#45;&gt;Node3</title>
<path fill="none" stroke="midnightblue" d="M423.622,-231.982C373.729,-229.246 290.53,-219.794 227,-188 162.627,-155.783 139.578,-141.628 110,-76 101.638,-57.4464 103.058,-32.8488 104.637,-19.8792"/>
<polygon fill="midnightblue" stroke="midnightblue" points="423.587,-235.485 433.744,-232.47 423.924,-228.493 423.587,-235.485"/>
</g>
<!-- Node2&#45;&gt;Node4 -->
<g id="edge3" class="edge"><title>Node2&#45;&gt;Node4</title>
<path fill="none" stroke="midnightblue" d="M462.8,-214.101C460.808,-205.136 458.524,-194.858 456.945,-187.751"/>
<polygon fill="midnightblue" stroke="midnightblue" points="459.432,-215.08 465.018,-224.083 466.266,-213.562 459.432,-215.08"/>
</g>
<!-- Node2&#45;&gt;Node5 -->
<g id="edge24" class="edge"><title>Node2&#45;&gt;Node5</title>
<path fill="none" stroke="midnightblue" d="M446.134,-218.099C435.508,-209.922 422.8,-199.188 413,-188 396.999,-169.735 383.027,-144.587 376.286,-131.575"/>
<polygon fill="midnightblue" stroke="midnightblue" points="444.355,-221.139 454.46,-224.32 448.544,-215.531 444.355,-221.139"/>
</g>
<!-- Node2&#45;&gt;Node6 -->
<g id="edge25" class="edge"><title>Node2&#45;&gt;Node6</title>
<path fill="none" stroke="midnightblue" d="M423.678,-233.061C377.55,-231.164 304.151,-222.345 252,-188 207.833,-158.913 179.708,-98.2879 170.406,-75.7156"/>
<polygon fill="midnightblue" stroke="midnightblue" points="423.832,-236.567 433.938,-233.387 424.055,-229.571 423.832,-236.567"/>
</g>
<!-- Node2&#45;&gt;Node7 -->
<g id="edge26" class="edge"><title>Node2&#45;&gt;Node7</title>
<path fill="none" stroke="midnightblue" d="M436.399,-220.334C400.966,-204.334 342.773,-173.765 306,-132 276.173,-98.1244 268.483,-41.4019 266.589,-19.756"/>
<polygon fill="midnightblue" stroke="midnightblue" points="435.191,-223.626 445.753,-224.458 438.014,-217.221 435.191,-223.626"/>
</g>
<!-- Node2&#45;&gt;Node8 -->
<g id="edge27" class="edge"><title>Node2&#45;&gt;Node8</title>
<path fill="none" stroke="midnightblue" d="M480.377,-216.047C486.21,-207.946 492.687,-197.879 497,-188 514.458,-148.009 522.421,-95.7918 525.004,-75.5421"/>
<polygon fill="midnightblue" stroke="midnightblue" points="477.427,-214.147 474.214,-224.243 483.021,-218.354 477.427,-214.147"/>
</g>
<!-- Node2&#45;&gt;Node9 -->
<g id="edge29" class="edge"><title>Node2&#45;&gt;Node9</title>
<path fill="none" stroke="midnightblue" d="M510.284,-226.977C544.281,-220.873 591.912,-209.206 629,-188 688.764,-153.829 711.786,-140.444 736,-76 743.385,-56.3458 731.98,-32.1953 724.558,-19.5882"/>
<polygon fill="midnightblue" stroke="midnightblue" points="509.467,-223.565 500.198,-228.697 510.644,-230.466 509.467,-223.565"/>
</g>
<!-- Node2&#45;&gt;Node10 -->
<g id="edge28" class="edge"><title>Node2&#45;&gt;Node10</title>
<path fill="none" stroke="midnightblue" d="M509.789,-223.12C555.972,-210.175 628.233,-182.886 668,-132 681.122,-115.209 683.13,-88.9762 683.222,-75.5482"/>
<polygon fill="midnightblue" stroke="midnightblue" points="508.812,-219.758 500.068,-225.741 510.634,-226.517 508.812,-219.758"/>
</g>
<!-- Node2&#45;&gt;Node12 -->
<g id="edge30" class="edge"><title>Node2&#45;&gt;Node12</title>
<path fill="none" stroke="midnightblue" d="M487.416,-218.417C519.988,-195.151 582.71,-150.35 608.972,-131.591"/>
<polygon fill="midnightblue" stroke="midnightblue" points="485.187,-215.708 479.084,-224.368 489.256,-221.404 485.187,-215.708"/>
</g>
<!-- Node4&#45;&gt;Node3 -->
<g id="edge4" class="edge"><title>Node4&#45;&gt;Node3</title>
<path fill="none" stroke="midnightblue" d="M411.964,-177.474C340.496,-175.731 197.99,-161.043 125,-76 110.911,-59.5843 107.259,-33.1871 106.32,-19.6371"/>
<polygon fill="midnightblue" stroke="midnightblue" points="411.918,-180.974 421.976,-177.644 412.037,-173.975 411.918,-180.974"/>
</g>
<!-- Node4&#45;&gt;Node5 -->
<g id="edge5" class="edge"><title>Node4&#45;&gt;Node5</title>
<path fill="none" stroke="midnightblue" d="M432.901,-162.622C417.738,-152.757 398.117,-139.992 385.302,-131.655"/>
<polygon fill="midnightblue" stroke="midnightblue" points="431.374,-165.804 441.665,-168.324 435.191,-159.937 431.374,-165.804"/>
</g>
<!-- Node4&#45;&gt;Node6 -->
<g id="edge18" class="edge"><title>Node4&#45;&gt;Node6</title>
<path fill="none" stroke="midnightblue" d="M411.74,-167.95C377.957,-160.23 330.168,-147.867 290,-132 248.667,-115.673 203.208,-89.2369 180.907,-75.6582"/>
<polygon fill="midnightblue" stroke="midnightblue" points="411.227,-171.421 421.75,-170.195 412.759,-164.591 411.227,-171.421"/>
</g>
<!-- Node4&#45;&gt;Node7 -->
<g id="edge19" class="edge"><title>Node4&#45;&gt;Node7</title>
<path fill="none" stroke="midnightblue" d="M411.8,-171.165C383.64,-165.394 347.675,-154.062 323,-132 304.824,-115.748 278.112,-44.7372 269.099,-19.7422"/>
<polygon fill="midnightblue" stroke="midnightblue" points="411.311,-174.634 421.786,-173.048 412.609,-167.755 411.311,-174.634"/>
</g>
<!-- Node4&#45;&gt;Node8 -->
<g id="edge20" class="edge"><title>Node4&#45;&gt;Node8</title>
<path fill="none" stroke="midnightblue" d="M466,-159.957C481.387,-136.118 508.761,-93.7088 520.455,-75.5914"/>
<polygon fill="midnightblue" stroke="midnightblue" points="463.054,-158.069 460.571,-168.368 468.935,-161.865 463.054,-158.069"/>
</g>
<!-- Node4&#45;&gt;Node9 -->
<g id="edge22" class="edge"><title>Node4&#45;&gt;Node9</title>
<path fill="none" stroke="midnightblue" d="M452.112,-158.294C449.165,-131.722 448.246,-83.2557 475,-56 503.968,-26.4892 626.734,-15.9321 686.306,-12.498"/>
<polygon fill="midnightblue" stroke="midnightblue" points="448.643,-158.761 453.424,-168.215 455.583,-157.843 448.643,-158.761"/>
</g>
<!-- Node4&#45;&gt;Node10 -->
<g id="edge21" class="edge"><title>Node4&#45;&gt;Node10</title>
<path fill="none" stroke="midnightblue" d="M478.11,-163.232C501.603,-149.485 539.246,-128.135 573,-112 602.413,-97.9401 637.421,-84.0939 659.913,-75.5534"/>
<polygon fill="midnightblue" stroke="midnightblue" points="476.093,-160.358 469.252,-168.448 479.645,-166.39 476.093,-160.358"/>
</g>
<!-- Node4&#45;&gt;Node12 -->
<g id="edge23" class="edge"><title>Node4&#45;&gt;Node12</title>
<path fill="none" stroke="midnightblue" d="M490.953,-165.304C522.232,-155.129 566.821,-140.625 594.82,-131.516"/>
<polygon fill="midnightblue" stroke="midnightblue" points="489.73,-162.022 481.303,-168.444 491.895,-168.678 489.73,-162.022"/>
</g>
<!-- Node5&#45;&gt;Node3 -->
<g id="edge6" class="edge"><title>Node5&#45;&gt;Node3</title>
<path fill="none" stroke="midnightblue" d="M341.642,-108.446C287.013,-85.855 173.494,-38.9113 126.776,-19.5914"/>
<polygon fill="midnightblue" stroke="midnightblue" points="340.549,-111.781 351.127,-112.368 343.224,-105.313 340.549,-111.781"/>
</g>
<!-- Node5&#45;&gt;Node6 -->
<g id="edge7" class="edge"><title>Node5&#45;&gt;Node6</title>
<path fill="none" stroke="midnightblue" d="M329.592,-109.829C290.886,-99.6333 234.507,-84.7823 199.331,-75.5164"/>
<polygon fill="midnightblue" stroke="midnightblue" points="328.955,-113.281 339.517,-112.444 330.739,-106.512 328.955,-113.281"/>
</g>
<!-- Node5&#45;&gt;Node7 -->
<g id="edge10" class="edge"><title>Node5&#45;&gt;Node7</title>
<path fill="none" stroke="midnightblue" d="M371.523,-102.416C370.266,-88.3179 366.534,-69.1808 356,-56 341.495,-37.8501 317.769,-26.413 298.319,-19.6126"/>
<polygon fill="midnightblue" stroke="midnightblue" points="368.03,-102.642 372.083,-112.431 375.019,-102.252 368.03,-102.642"/>
</g>
<!-- Node5&#45;&gt;Node8 -->
<g id="edge11" class="edge"><title>Node5&#45;&gt;Node8</title>
<path fill="none" stroke="midnightblue" d="M406.111,-109.039C435.087,-98.8786 475.962,-84.5457 501.712,-75.5164"/>
<polygon fill="midnightblue" stroke="midnightblue" points="404.68,-105.832 396.402,-112.444 406.997,-112.437 404.68,-105.832"/>
</g>
<!-- Node5&#45;&gt;Node9 -->
<g id="edge17" class="edge"><title>Node5&#45;&gt;Node9</title>
<path fill="none" stroke="midnightblue" d="M385.186,-104.045C397.986,-88.8711 418.834,-67.3252 442,-56 523.412,-16.199 632.749,-10.4787 686.455,-10.3262"/>
<polygon fill="midnightblue" stroke="midnightblue" points="382.216,-102.15 378.623,-112.117 387.647,-106.566 382.216,-102.15"/>
</g>
<!-- Node5&#45;&gt;Node10 -->
<g id="edge13" class="edge"><title>Node5&#45;&gt;Node10</title>
<path fill="none" stroke="midnightblue" d="M421.99,-112.32C481.799,-101.935 581.024,-84.7064 638.359,-74.7511"/>
<polygon fill="midnightblue" stroke="midnightblue" points="421.275,-108.892 412.021,-114.051 422.473,-115.789 421.275,-108.892"/>
</g>
<!-- Node5&#45;&gt;Node11 -->
<g id="edge15" class="edge"><title>Node5&#45;&gt;Node11</title>
<path fill="none" stroke="midnightblue" d="M422.442,-114.879C514.35,-103.726 706.711,-80.3834 783.903,-71.0162"/>
<polygon fill="midnightblue" stroke="midnightblue" points="421.781,-111.433 412.276,-116.113 422.624,-118.382 421.781,-111.433"/>
</g>
<!-- Node6&#45;&gt;Node3 -->
<g id="edge8" class="edge"><title>Node6&#45;&gt;Node3</title>
<path fill="none" stroke="midnightblue" d="M149.533,-49.5372C138.656,-39.9087 125.056,-27.8694 115.979,-19.8339"/>
<polygon fill="midnightblue" stroke="midnightblue" points="147.392,-52.3162 157.199,-56.324 152.032,-47.0749 147.392,-52.3162"/>
</g>
<!-- Node6&#45;&gt;Node7 -->
<g id="edge9" class="edge"><title>Node6&#45;&gt;Node7</title>
<path fill="none" stroke="midnightblue" d="M191.837,-51.4526C210.114,-41.4835 234.416,-28.2279 250.133,-19.6545"/>
<polygon fill="midnightblue" stroke="midnightblue" points="190.009,-48.4628 182.906,-56.324 193.361,-54.608 190.009,-48.4628"/>
</g>
<!-- Node8&#45;&gt;Node9 -->
<g id="edge12" class="edge"><title>Node8&#45;&gt;Node9</title>
<path fill="none" stroke="midnightblue" d="M566.392,-53.6986C602.817,-43.507 655.586,-28.7429 688.562,-19.5164"/>
<polygon fill="midnightblue" stroke="midnightblue" points="565.269,-50.3785 556.581,-56.4435 567.155,-57.1196 565.269,-50.3785"/>
</g>
<!-- Node10&#45;&gt;Node9 -->
<g id="edge14" class="edge"><title>Node10&#45;&gt;Node9</title>
<path fill="none" stroke="midnightblue" d="M694.623,-47.5656C700.817,-38.2747 708.168,-27.2484 713.166,-19.7511"/>
<polygon fill="midnightblue" stroke="midnightblue" points="691.58,-45.821 688.945,-56.083 697.404,-49.7039 691.58,-45.821"/>
</g>
<!-- Node11&#45;&gt;Node9 -->
<g id="edge16" class="edge"><title>Node11&#45;&gt;Node9</title>
<path fill="none" stroke="midnightblue" d="M792.414,-51.4526C774.322,-41.4835 750.265,-28.2279 734.706,-19.6545"/>
<polygon fill="midnightblue" stroke="midnightblue" points="790.807,-54.5633 801.255,-56.324 794.185,-48.4324 790.807,-54.5633"/>
</g>
<!-- Node13&#45;&gt;Node9 -->
<g id="edge39" class="edge"><title>Node13&#45;&gt;Node9</title>
<path fill="none" stroke="midnightblue" d="M953.013,-158.46C944.838,-131.696 925.995,-82.5455 892,-56 850.907,-23.9118 789.244,-14.5595 751.706,-11.9214"/>
<polygon fill="midnightblue" stroke="midnightblue" points="949.752,-159.783 955.877,-168.428 956.48,-157.85 949.752,-159.783"/>
</g>
</g>
</svg>
