<?xml version="1.0" encoding="UTF-8" standalone="no"?>
<!DOCTYPE svg PUBLIC "-//W3C//DTD SVG 1.1//EN"
 "http://www.w3.org/Graphics/SVG/1.1/DTD/svg11.dtd">
<!-- Generated by graphviz version 2.38.0 (20140413.2041)
 -->
<!-- Title: Vector4R.h Pages: 1 -->
<svg width="667pt" height="196pt"
 viewBox="0.00 0.00 667.00 196.00" xmlns="http://www.w3.org/2000/svg" xmlns:xlink="http://www.w3.org/1999/xlink">
<g id="graph0" class="graph" transform="scale(1 1) rotate(0) translate(4 192)">
<title>Vector4R.h</title>
<!-- Node1 -->
<g id="node1" class="node"><title>Node1</title>
<polygon fill="#bfbfbf" stroke="black" points="261.5,-168.5 261.5,-187.5 327.5,-187.5 327.5,-168.5 261.5,-168.5"/>
<text text-anchor="middle" x="294.5" y="-175.5" font-family="Helvetica,sans-Serif" font-size="10.00">Vector4R.h</text>
</g>
<!-- Node2 -->
<g id="node2" class="node"><title>Node2</title>
<g id="a_node2"><a xlink:href="_evaluate_8h.html" target="_top" xlink:title="Evaluate helper template function implementation. ">
<polygon fill="none" stroke="black" points="0,-0.5 0,-19.5 63,-19.5 63,-0.5 0,-0.5"/>
<text text-anchor="middle" x="31.5" y="-7.5" font-family="Helvetica,sans-Serif" font-size="10.00">Evaluate.h</text>
</a>
</g>
</g>
<!-- Node1&#45;&gt;Node2 -->
<g id="edge1" class="edge"><title>Node1&#45;&gt;Node2</title>
<path fill="none" stroke="midnightblue" d="M251.224,-174.818C204.518,-171.015 128.974,-160.586 70.5,-132 36.2428,-115.253 21.3898,-110.663 5.5,-76 -3.61642,-56.1127 12.9411,-32.0569 23.5756,-19.5265"/>
<polygon fill="midnightblue" stroke="midnightblue" points="251.074,-178.316 261.307,-175.572 251.596,-171.336 251.074,-178.316"/>
</g>
<!-- Node3 -->
<g id="node3" class="node"><title>Node3</title>
<g id="a_node3"><a xlink:href="_g_containers_8h.html" target="_top" xlink:title="Typedef for useful container classes used in MCBooster. ">
<polygon fill="none" stroke="black" points="201.5,-112.5 201.5,-131.5 281.5,-131.5 281.5,-112.5 201.5,-112.5"/>
<text text-anchor="middle" x="241.5" y="-119.5" font-family="Helvetica,sans-Serif" font-size="10.00">GContainers.h</text>
</a>
</g>
</g>
<!-- Node1&#45;&gt;Node3 -->
<g id="edge2" class="edge"><title>Node1&#45;&gt;Node3</title>
<path fill="none" stroke="midnightblue" d="M278.519,-160.718C269.178,-151.2 257.754,-139.561 250.089,-131.751"/>
<polygon fill="midnightblue" stroke="midnightblue" points="276.246,-163.398 285.748,-168.083 281.241,-158.494 276.246,-163.398"/>
</g>
<!-- Node4 -->
<g id="node4" class="node"><title>Node4</title>
<g id="a_node4"><a xlink:href="_calculate_8h.html" target="_top" xlink:title="Calculate.h">
<polygon fill="none" stroke="black" points="14.5,-56.5 14.5,-75.5 80.5,-75.5 80.5,-56.5 14.5,-56.5"/>
<text text-anchor="middle" x="47.5" y="-63.5" font-family="Helvetica,sans-Serif" font-size="10.00">Calculate.h</text>
</a>
</g>
</g>
<!-- Node1&#45;&gt;Node4 -->
<g id="edge15" class="edge"><title>Node1&#45;&gt;Node4</title>
<path fill="none" stroke="midnightblue" d="M251.13,-175.978C208.131,-173.07 141.984,-163.316 94.5,-132 72.8772,-117.74 57.8641,-89.8883 51.2704,-75.7233"/>
<polygon fill="midnightblue" stroke="midnightblue" points="251.085,-179.481 261.271,-176.566 251.49,-172.493 251.085,-179.481"/>
</g>
<!-- Node5 -->
<g id="node5" class="node"><title>Node5</title>
<g id="a_node5"><a xlink:href="_evaluate_array_8h.html" target="_top" xlink:title="Evaluate helper template function implementation. ">
<polygon fill="none" stroke="black" points="81.5,-0.5 81.5,-19.5 167.5,-19.5 167.5,-0.5 81.5,-0.5"/>
<text text-anchor="middle" x="124.5" y="-7.5" font-family="Helvetica,sans-Serif" font-size="10.00">EvaluateArray.h</text>
</a>
</g>
</g>
<!-- Node1&#45;&gt;Node5 -->
<g id="edge16" class="edge"><title>Node1&#45;&gt;Node5</title>
<path fill="none" stroke="midnightblue" d="M251.872,-165.106C232.09,-157.966 209.295,-147.248 192.5,-132 155.926,-98.7953 134.322,-41.1787 127.166,-19.5399"/>
<polygon fill="midnightblue" stroke="midnightblue" points="251.002,-168.507 261.597,-168.423 253.262,-161.882 251.002,-168.507"/>
</g>
<!-- Node6 -->
<g id="node6" class="node"><title>Node6</title>
<g id="a_node6"><a xlink:href="_decay_mother_8h.html" target="_top" xlink:title="DecayMother.h">
<polygon fill="none" stroke="black" points="335,-56.5 335,-75.5 418,-75.5 418,-56.5 335,-56.5"/>
<text text-anchor="middle" x="376.5" y="-63.5" font-family="Helvetica,sans-Serif" font-size="10.00">DecayMother.h</text>
</a>
</g>
</g>
<!-- Node1&#45;&gt;Node6 -->
<g id="edge17" class="edge"><title>Node1&#45;&gt;Node6</title>
<path fill="none" stroke="midnightblue" d="M306.97,-160.272C324.695,-136.494 356.53,-93.7889 370.095,-75.5914"/>
<polygon fill="midnightblue" stroke="midnightblue" points="304.105,-158.259 300.934,-168.368 309.717,-162.443 304.105,-158.259"/>
</g>
<!-- Node7 -->
<g id="node7" class="node"><title>Node7</title>
<g id="a_node7"><a xlink:href="_generate_8h.html" target="_top" xlink:title="Implements the struct Events and the class PhaseSpace. ">
<polygon fill="none" stroke="black" points="344,-0.5 344,-19.5 409,-19.5 409,-0.5 344,-0.5"/>
<text text-anchor="middle" x="376.5" y="-7.5" font-family="Helvetica,sans-Serif" font-size="10.00">Generate.h</text>
</a>
</g>
</g>
<!-- Node1&#45;&gt;Node7 -->
<g id="edge19" class="edge"><title>Node1&#45;&gt;Node7</title>
<path fill="none" stroke="midnightblue" d="M337.708,-172.954C394.084,-165.09 490.687,-142.18 534.5,-76 565.528,-29.1322 464.044,-16.0342 409.227,-12.3919"/>
<polygon fill="midnightblue" stroke="midnightblue" points="337.139,-169.498 327.672,-174.254 338.038,-176.44 337.139,-169.498"/>
</g>
<!-- Node8 -->
<g id="node8" class="node"><title>Node8</title>
<g id="a_node8"><a xlink:href="_decay_mothers_8h.html" target="_top" xlink:title="DecayMothers.h">
<polygon fill="none" stroke="black" points="436,-56.5 436,-75.5 525,-75.5 525,-56.5 436,-56.5"/>
<text text-anchor="middle" x="480.5" y="-63.5" font-family="Helvetica,sans-Serif" font-size="10.00">DecayMothers.h</text>
</a>
</g>
</g>
<!-- Node1&#45;&gt;Node8 -->
<g id="edge18" class="edge"><title>Node1&#45;&gt;Node8</title>
<path fill="none" stroke="midnightblue" d="M318.158,-163.009C357.201,-139.919 433.982,-94.5104 465.973,-75.5914"/>
<polygon fill="midnightblue" stroke="midnightblue" points="315.921,-160.265 309.095,-168.368 319.484,-166.291 315.921,-160.265"/>
</g>
<!-- Node10 -->
<g id="node10" class="node"><title>Node10</title>
<g id="a_node10"><a xlink:href="_g_functional_8h.html" target="_top" xlink:title="Implements the template functors IFunction and IFunctionArray. ">
<polygon fill="none" stroke="black" points="582,-112.5 582,-131.5 659,-131.5 659,-112.5 582,-112.5"/>
<text text-anchor="middle" x="620.5" y="-119.5" font-family="Helvetica,sans-Serif" font-size="10.00">GFunctional.h</text>
</a>
</g>
</g>
<!-- Node1&#45;&gt;Node10 -->
<g id="edge20" class="edge"><title>Node1&#45;&gt;Node10</title>
<path fill="none" stroke="midnightblue" d="M337.585,-169.964C391.396,-161.162 486.272,-145.591 567.5,-132 572.103,-131.23 576.929,-130.417 581.716,-129.608"/>
<polygon fill="midnightblue" stroke="midnightblue" points="337.012,-166.511 327.708,-171.579 338.141,-173.42 337.012,-166.511"/>
</g>
<!-- Node3&#45;&gt;Node2 -->
<g id="edge3" class="edge"><title>Node3&#45;&gt;Node2</title>
<path fill="none" stroke="midnightblue" d="M215.901,-107.591C172.182,-84.6906 84.326,-38.6708 47.9018,-19.5914"/>
<polygon fill="midnightblue" stroke="midnightblue" points="214.539,-110.829 225.022,-112.368 217.787,-104.628 214.539,-110.829"/>
</g>
<!-- Node3&#45;&gt;Node4 -->
<g id="edge4" class="edge"><title>Node3&#45;&gt;Node4</title>
<path fill="none" stroke="midnightblue" d="M200.899,-109.699C164.285,-99.507 111.243,-84.7429 78.0961,-75.5164"/>
<polygon fill="midnightblue" stroke="midnightblue" points="200.188,-113.134 210.76,-112.444 202.065,-106.39 200.188,-113.134"/>
</g>
<!-- Node3&#45;&gt;Node5 -->
<g id="edge7" class="edge"><title>Node3&#45;&gt;Node5</title>
<path fill="none" stroke="midnightblue" d="M225.026,-105.512C200.025,-82.0068 153.335,-38.1096 133.638,-19.5914"/>
<polygon fill="midnightblue" stroke="midnightblue" points="222.636,-108.069 232.319,-112.368 227.431,-102.969 222.636,-108.069"/>
</g>
<!-- Node3&#45;&gt;Node6 -->
<g id="edge8" class="edge"><title>Node3&#45;&gt;Node6</title>
<path fill="none" stroke="midnightblue" d="M272.406,-108.638C297.74,-98.504 332.931,-84.4274 355.209,-75.5164"/>
<polygon fill="midnightblue" stroke="midnightblue" points="270.876,-105.48 262.891,-112.444 273.476,-111.979 270.876,-105.48"/>
</g>
<!-- Node3&#45;&gt;Node7 -->
<g id="edge14" class="edge"><title>Node3&#45;&gt;Node7</title>
<path fill="none" stroke="midnightblue" d="M236.115,-102.478C233.206,-88.4137 231.92,-69.2914 241.5,-56 264.685,-23.8326 311.863,-14.312 343.835,-11.6852"/>
<polygon fill="midnightblue" stroke="midnightblue" points="232.792,-103.616 238.619,-112.465 239.582,-101.914 232.792,-103.616"/>
</g>
<!-- Node3&#45;&gt;Node8 -->
<g id="edge10" class="edge"><title>Node3&#45;&gt;Node8</title>
<path fill="none" stroke="midnightblue" d="M289.224,-110.217C334.385,-100.013 401.273,-84.9006 442.807,-75.5164"/>
<polygon fill="midnightblue" stroke="midnightblue" points="288.353,-106.826 279.37,-112.444 289.896,-113.654 288.353,-106.826"/>
</g>
<!-- Node9 -->
<g id="node9" class="node"><title>Node9</title>
<g id="a_node9"><a xlink:href="_rand_gen_8h.html" target="_top" xlink:title="RandGen.h">
<polygon fill="none" stroke="black" points="250.5,-56.5 250.5,-75.5 316.5,-75.5 316.5,-56.5 250.5,-56.5"/>
<text text-anchor="middle" x="283.5" y="-63.5" font-family="Helvetica,sans-Serif" font-size="10.00">RandGen.h</text>
</a>
</g>
</g>
<!-- Node3&#45;&gt;Node9 -->
<g id="edge12" class="edge"><title>Node3&#45;&gt;Node9</title>
<path fill="none" stroke="midnightblue" d="M254.61,-104.144C261.928,-94.7357 270.741,-83.4046 276.694,-75.7511"/>
<polygon fill="midnightblue" stroke="midnightblue" points="251.812,-102.041 248.435,-112.083 257.338,-106.338 251.812,-102.041"/>
</g>
<!-- Node4&#45;&gt;Node2 -->
<g id="edge5" class="edge"><title>Node4&#45;&gt;Node2</title>
<path fill="none" stroke="midnightblue" d="M41.9876,-46.3956C39.311,-37.362 36.2218,-26.936 34.0929,-19.7511"/>
<polygon fill="midnightblue" stroke="midnightblue" points="38.6612,-47.4893 44.8579,-56.083 45.3728,-45.5007 38.6612,-47.4893"/>
</g>
<!-- Node4&#45;&gt;Node5 -->
<g id="edge6" class="edge"><title>Node4&#45;&gt;Node5</title>
<path fill="none" stroke="midnightblue" d="M68.401,-50.3422C82.4111,-40.5169 100.383,-27.9132 112.159,-19.6545"/>
<polygon fill="midnightblue" stroke="midnightblue" points="66.0491,-47.7166 59.8714,-56.324 70.0683,-53.4477 66.0491,-47.7166"/>
</g>
<!-- Node6&#45;&gt;Node7 -->
<g id="edge9" class="edge"><title>Node6&#45;&gt;Node7</title>
<path fill="none" stroke="midnightblue" d="M376.5,-45.8045C376.5,-36.9102 376.5,-26.7798 376.5,-19.7511"/>
<polygon fill="midnightblue" stroke="midnightblue" points="373,-46.083 376.5,-56.083 380,-46.083 373,-46.083"/>
</g>
<!-- Node8&#45;&gt;Node7 -->
<g id="edge11" class="edge"><title>Node8&#45;&gt;Node7</title>
<path fill="none" stroke="midnightblue" d="M454.672,-51.5895C435.443,-41.6052 409.755,-28.2672 393.168,-19.6545"/>
<polygon fill="midnightblue" stroke="midnightblue" points="453.303,-54.822 463.791,-56.324 456.529,-48.6095 453.303,-54.822"/>
</g>
<!-- Node9&#45;&gt;Node7 -->
<g id="edge13" class="edge"><title>Node9&#45;&gt;Node7</title>
<path fill="none" stroke="midnightblue" d="M307.306,-51.1774C324.419,-41.2407 346.965,-28.1492 361.595,-19.6545"/>
<polygon fill="midnightblue" stroke="midnightblue" points="305.332,-48.2758 298.442,-56.324 308.847,-54.3293 305.332,-48.2758"/>
</g>
</g>
</svg>
