<?xml version="1.0" encoding="UTF-8" standalone="no"?>
<!DOCTYPE svg PUBLIC "-//W3C//DTD SVG 1.1//EN"
 "http://www.w3.org/Graphics/SVG/1.1/DTD/svg11.dtd">
<!-- Generated by graphviz version 2.38.0 (20140413.2041)
 -->
<!-- Title: MCBooster::Vector3R::get Pages: 1 -->
<svg width="290pt" height="88pt"
 viewBox="0.00 0.00 290.00 88.00" xmlns="http://www.w3.org/2000/svg" xmlns:xlink="http://www.w3.org/1999/xlink">
<g id="graph0" class="graph" transform="scale(1 1) rotate(0) translate(4 84)">
<title>MCBooster::Vector3R::get</title>
<!-- Node1 -->
<g id="node1" class="node"><title>Node1</title>
<polygon fill="#bfbfbf" stroke="black" points="0,-30 0,-49 133,-49 133,-30 0,-30"/>
<text text-anchor="middle" x="66.5" y="-37" font-family="Helvetica,sans-Serif" font-size="10.00">MCBooster::Vector3R::get</text>
</g>
<!-- Node2 -->
<g id="node2" class="node"><title>Node2</title>
<g id="a_node2"><a xlink:href="class_m_c_booster_1_1_vector4_r.html#a8530fdb14b9b274bb6d85e13af3a9a11" target="_top" xlink:title="MCBooster::Vector4R\l::applyBoostTo">
<polygon fill="none" stroke="black" points="169,-49.5 169,-79.5 282,-79.5 282,-49.5 169,-49.5"/>
<text text-anchor="start" x="177" y="-67.5" font-family="Helvetica,sans-Serif" font-size="10.00">MCBooster::Vector4R</text>
<text text-anchor="middle" x="225.5" y="-56.5" font-family="Helvetica,sans-Serif" font-size="10.00">::applyBoostTo</text>
</a>
</g>
</g>
<!-- Node1&#45;&gt;Node2 -->
<g id="edge1" class="edge"><title>Node1&#45;&gt;Node2</title>
<path fill="none" stroke="midnightblue" d="M137.367,-50.6253C147.958,-52.3118 158.762,-54.0322 168.994,-55.6615"/>
<polygon fill="midnightblue" stroke="midnightblue" points="137.729,-47.1389 127.303,-49.0227 136.628,-54.0518 137.729,-47.1389"/>
</g>
<!-- Node3 -->
<g id="node3" class="node"><title>Node3</title>
<g id="a_node3"><a xlink:href="class_m_c_booster_1_1_vector3_r.html#a2e1fc58eec1f616439b00329fd589662" target="_top" xlink:title="MCBooster::Vector3R\l::Vector3R">
<polygon fill="none" stroke="black" points="169,-0.5 169,-30.5 282,-30.5 282,-0.5 169,-0.5"/>
<text text-anchor="start" x="177" y="-18.5" font-family="Helvetica,sans-Serif" font-size="10.00">MCBooster::Vector3R</text>
<text text-anchor="middle" x="225.5" y="-7.5" font-family="Helvetica,sans-Serif" font-size="10.00">::Vector3R</text>
</a>
</g>
</g>
<!-- Node1&#45;&gt;Node3 -->
<g id="edge2" class="edge"><title>Node1&#45;&gt;Node3</title>
<path fill="none" stroke="midnightblue" d="M140.016,-28.4147C149.692,-26.9356 159.491,-25.4378 168.818,-24.0119"/>
<polygon fill="midnightblue" stroke="midnightblue" points="139.358,-24.9746 130.002,-29.9456 140.416,-31.8942 139.358,-24.9746"/>
</g>
</g>
</svg>
