<?xml version="1.0" encoding="UTF-8" standalone="no"?>
<!DOCTYPE svg PUBLIC "-//W3C//DTD SVG 1.1//EN"
 "http://www.w3.org/Graphics/SVG/1.1/DTD/svg11.dtd">
<!-- Generated by graphviz version 2.38.0 (20140413.2041)
 -->
<!-- Title: MCBooster::boostTo Pages: 1 -->
<svg width="433pt" height="39pt"
 viewBox="0.00 0.00 433.00 39.00" xmlns="http://www.w3.org/2000/svg" xmlns:xlink="http://www.w3.org/1999/xlink">
<g id="graph0" class="graph" transform="scale(1 1) rotate(0) translate(4 35)">
<title>MCBooster::boostTo</title>
<!-- Node1 -->
<g id="node1" class="node"><title>Node1</title>
<polygon fill="#bfbfbf" stroke="black" points="0,-6 0,-25 107,-25 107,-6 0,-6"/>
<text text-anchor="middle" x="53.5" y="-13" font-family="Helvetica,sans-Serif" font-size="10.00">MCBooster::boostTo</text>
</g>
<!-- Node2 -->
<g id="node2" class="node"><title>Node2</title>
<g id="a_node2"><a xlink:href="class_m_c_booster_1_1_vector4_r.html#a4e0374fc1088cfbe9681959eb5956ba2" target="_top" xlink:title="MCBooster::Vector4R\l::applyBoostTo">
<polygon fill="none" stroke="black" points="143,-0.5 143,-30.5 256,-30.5 256,-0.5 143,-0.5"/>
<text text-anchor="start" x="151" y="-18.5" font-family="Helvetica,sans-Serif" font-size="10.00">MCBooster::Vector4R</text>
<text text-anchor="middle" x="199.5" y="-7.5" font-family="Helvetica,sans-Serif" font-size="10.00">::applyBoostTo</text>
</a>
</g>
</g>
<!-- Node1&#45;&gt;Node2 -->
<g id="edge1" class="edge"><title>Node1&#45;&gt;Node2</title>
<path fill="none" stroke="midnightblue" d="M107.303,-15.5C115.52,-15.5 124.098,-15.5 132.562,-15.5"/>
<polygon fill="midnightblue" stroke="midnightblue" points="132.8,-19.0001 142.8,-15.5 132.8,-12.0001 132.8,-19.0001"/>
</g>
<!-- Node3 -->
<g id="node3" class="node"><title>Node3</title>
<g id="a_node3"><a xlink:href="class_m_c_booster_1_1_vector4_r.html#ac6a62ed3258978171cd12c95edd1c598" target="_top" xlink:title="MCBooster::Vector4R::get">
<polygon fill="none" stroke="black" points="292,-6 292,-25 425,-25 425,-6 292,-6"/>
<text text-anchor="middle" x="358.5" y="-13" font-family="Helvetica,sans-Serif" font-size="10.00">MCBooster::Vector4R::get</text>
</a>
</g>
</g>
<!-- Node2&#45;&gt;Node3 -->
<g id="edge2" class="edge"><title>Node2&#45;&gt;Node3</title>
<path fill="none" stroke="midnightblue" d="M256.294,-15.5C264.593,-15.5 273.262,-15.5 281.885,-15.5"/>
<polygon fill="midnightblue" stroke="midnightblue" points="281.961,-19.0001 291.961,-15.5 281.961,-12.0001 281.961,-19.0001"/>
</g>
</g>
</svg>
