<?xml version="1.0" encoding="UTF-8" standalone="no"?>
<!DOCTYPE svg PUBLIC "-//W3C//DTD SVG 1.1//EN"
 "http://www.w3.org/Graphics/SVG/1.1/DTD/svg11.dtd">
<!-- Generated by graphviz version 2.38.0 (20140413.2041)
 -->
<!-- Title: MCBooster::DecayMother::process Pages: 1 -->
<svg width="477pt" height="116pt"
 viewBox="0.00 0.00 477.00 115.50" xmlns="http://www.w3.org/2000/svg" xmlns:xlink="http://www.w3.org/1999/xlink">
<g id="graph0" class="graph" transform="scale(1 1) rotate(0) translate(4 111.5)">
<title>MCBooster::DecayMother::process</title>
<!-- Node1 -->
<g id="node1" class="node"><title>Node1</title>
<polygon fill="#bfbfbf" stroke="black" points="0,-33 0,-63 131,-63 131,-33 0,-33"/>
<text text-anchor="start" x="8" y="-51" font-family="Helvetica,sans-Serif" font-size="10.00">MCBooster::DecayMother</text>
<text text-anchor="middle" x="65.5" y="-40" font-family="Helvetica,sans-Serif" font-size="10.00">::process</text>
</g>
<!-- Node2 -->
<g id="node2" class="node"><title>Node2</title>
<g id="a_node2"><a xlink:href="class_m_c_booster_1_1_vector4_r.html#a4e0374fc1088cfbe9681959eb5956ba2" target="_top" xlink:title="MCBooster::Vector4R\l::applyBoostTo">
<polygon fill="none" stroke="black" points="177,-77 177,-107 290,-107 290,-77 177,-77"/>
<text text-anchor="start" x="185" y="-95" font-family="Helvetica,sans-Serif" font-size="10.00">MCBooster::Vector4R</text>
<text text-anchor="middle" x="233.5" y="-84" font-family="Helvetica,sans-Serif" font-size="10.00">::applyBoostTo</text>
</a>
</g>
</g>
<!-- Node1&#45;&gt;Node2 -->
<g id="edge1" class="edge"><title>Node1&#45;&gt;Node2</title>
<path fill="none" stroke="midnightblue" d="M123.163,-63.0192C137.281,-66.7613 152.533,-70.804 167.037,-74.6483"/>
<polygon fill="midnightblue" stroke="midnightblue" points="166.372,-78.0929 176.935,-77.2719 168.166,-71.3266 166.372,-78.0929"/>
</g>
<!-- Node3 -->
<g id="node3" class="node"><title>Node3</title>
<g id="a_node3"><a xlink:href="class_m_c_booster_1_1_vector4_r.html#ac6a62ed3258978171cd12c95edd1c598" target="_top" xlink:title="MCBooster::Vector4R::get">
<polygon fill="none" stroke="black" points="336,-60.5 336,-79.5 469,-79.5 469,-60.5 336,-60.5"/>
<text text-anchor="middle" x="402.5" y="-67.5" font-family="Helvetica,sans-Serif" font-size="10.00">MCBooster::Vector4R::get</text>
</a>
</g>
</g>
<!-- Node1&#45;&gt;Node3 -->
<g id="edge3" class="edge"><title>Node1&#45;&gt;Node3</title>
<path fill="none" stroke="midnightblue" d="M131.091,-52.2418C186.694,-55.8933 266.997,-61.167 325.644,-65.0184"/>
<polygon fill="midnightblue" stroke="midnightblue" points="325.756,-68.5332 335.964,-65.6961 326.215,-61.5483 325.756,-68.5332"/>
</g>
<!-- Node4 -->
<g id="node4" class="node"><title>Node4</title>
<g id="a_node4"><a xlink:href="class_m_c_booster_1_1_vector4_r.html#a39c47c7ff5fcd8f5f3501c9201e97eaa" target="_top" xlink:title="MCBooster::Vector4R::set">
<polygon fill="none" stroke="black" points="167,-0.5 167,-19.5 300,-19.5 300,-0.5 167,-0.5"/>
<text text-anchor="middle" x="233.5" y="-7.5" font-family="Helvetica,sans-Serif" font-size="10.00">MCBooster::Vector4R::set</text>
</a>
</g>
</g>
<!-- Node1&#45;&gt;Node4 -->
<g id="edge4" class="edge"><title>Node1&#45;&gt;Node4</title>
<path fill="none" stroke="midnightblue" d="M131.155,-33.1994C147.584,-29.4385 165.023,-25.4466 180.718,-21.8538"/>
<polygon fill="midnightblue" stroke="midnightblue" points="181.785,-25.2001 190.752,-19.5568 180.223,-18.3766 181.785,-25.2001"/>
</g>
<!-- Node2&#45;&gt;Node3 -->
<g id="edge2" class="edge"><title>Node2&#45;&gt;Node3</title>
<path fill="none" stroke="midnightblue" d="M290.109,-84.6743C301.524,-83.1705 313.726,-81.5631 325.713,-79.9839"/>
<polygon fill="midnightblue" stroke="midnightblue" points="326.254,-83.443 335.711,-78.6669 325.339,-76.503 326.254,-83.443"/>
</g>
</g>
</svg>
