<?xml version="1.0" encoding="UTF-8" standalone="no"?>
<!DOCTYPE svg PUBLIC "-//W3C//DTD SVG 1.1//EN"
 "http://www.w3.org/Graphics/SVG/1.1/DTD/svg11.dtd">
<!-- Generated by graphviz version 2.38.0 (20140413.2041)
 -->
<!-- Title: FlagAcceptReject.h Pages: 1 -->
<svg width="340pt" height="151pt"
 viewBox="0.00 0.00 340.00 151.00" xmlns="http://www.w3.org/2000/svg" xmlns:xlink="http://www.w3.org/1999/xlink">
<g id="graph0" class="graph" transform="scale(1 1) rotate(0) translate(4 147)">
<title>FlagAcceptReject.h</title>
<!-- Node1 -->
<g id="node1" class="node"><title>Node1</title>
<polygon fill="#bfbfbf" stroke="black" points="111.5,-123.5 111.5,-142.5 214.5,-142.5 214.5,-123.5 111.5,-123.5"/>
<text text-anchor="middle" x="163" y="-130.5" font-family="Helvetica,sans-Serif" font-size="10.00">FlagAcceptReject.h</text>
</g>
<!-- Node2 -->
<g id="node2" class="node"><title>Node2</title>
<g id="a_node2"><a xlink:href="../../d4/d71/_config_8h.html" target="_top" xlink:title="mcbooster/Config.h">
<polygon fill="none" stroke="black" points="0,-67.5 0,-86.5 102,-86.5 102,-67.5 0,-67.5"/>
<text text-anchor="middle" x="51" y="-74.5" font-family="Helvetica,sans-Serif" font-size="10.00">mcbooster/Config.h</text>
</a>
</g>
</g>
<!-- Node1&#45;&gt;Node2 -->
<g id="edge1" class="edge"><title>Node1&#45;&gt;Node2</title>
<path fill="none" stroke="midnightblue" d="M145.005,-123.324C126.962,-114.625 98.9531,-101.12 78.1973,-91.113"/>
<polygon fill="midnightblue" stroke="midnightblue" points="79.4778,-87.8449 68.9501,-86.6545 76.4377,-94.1502 79.4778,-87.8449"/>
</g>
<!-- Node4 -->
<g id="node4" class="node"><title>Node4</title>
<polygon fill="none" stroke="#bfbfbf" points="120.5,-67.5 120.5,-86.5 205.5,-86.5 205.5,-67.5 120.5,-67.5"/>
<text text-anchor="middle" x="163" y="-74.5" font-family="Helvetica,sans-Serif" font-size="10.00">thrust/random.h</text>
</g>
<!-- Node1&#45;&gt;Node4 -->
<g id="edge3" class="edge"><title>Node1&#45;&gt;Node4</title>
<path fill="none" stroke="midnightblue" d="M163,-123.083C163,-116.006 163,-105.861 163,-96.9865"/>
<polygon fill="midnightblue" stroke="midnightblue" points="166.5,-96.751 163,-86.7511 159.5,-96.7511 166.5,-96.751"/>
</g>
<!-- Node5 -->
<g id="node5" class="node"><title>Node5</title>
<g id="a_node5"><a xlink:href="../../dc/d9d/_g_types_8h.html" target="_top" xlink:title="mcbooster/GTypes.h">
<polygon fill="none" stroke="black" points="224,-67.5 224,-86.5 332,-86.5 332,-67.5 224,-67.5"/>
<text text-anchor="middle" x="278" y="-74.5" font-family="Helvetica,sans-Serif" font-size="10.00">mcbooster/GTypes.h</text>
</a>
</g>
</g>
<!-- Node1&#45;&gt;Node5 -->
<g id="edge4" class="edge"><title>Node1&#45;&gt;Node5</title>
<path fill="none" stroke="midnightblue" d="M181.222,-123.444C199.896,-114.675 229.156,-100.935 250.617,-90.8579"/>
<polygon fill="midnightblue" stroke="midnightblue" points="252.299,-93.935 259.863,-86.5164 249.324,-87.5988 252.299,-93.935"/>
</g>
<!-- Node3 -->
<g id="node3" class="node"><title>Node3</title>
<polygon fill="none" stroke="#bfbfbf" points="2.5,-0.5 2.5,-30.5 99.5,-30.5 99.5,-0.5 2.5,-0.5"/>
<text text-anchor="start" x="10.5" y="-18.5" font-family="Helvetica,sans-Serif" font-size="10.00">thrust/detail/config</text>
<text text-anchor="middle" x="51" y="-7.5" font-family="Helvetica,sans-Serif" font-size="10.00">/host_device.h</text>
</g>
<!-- Node2&#45;&gt;Node3 -->
<g id="edge2" class="edge"><title>Node2&#45;&gt;Node3</title>
<path fill="none" stroke="midnightblue" d="M51,-67.4751C51,-60.471 51,-50.1919 51,-40.6956"/>
<polygon fill="midnightblue" stroke="midnightblue" points="54.5001,-40.5229 51,-30.523 47.5001,-40.523 54.5001,-40.5229"/>
</g>
</g>
</svg>
