<?xml version="1.0" encoding="UTF-8" standalone="no"?>
<!DOCTYPE svg PUBLIC "-//W3C//DTD SVG 1.1//EN"
 "http://www.w3.org/Graphics/SVG/1.1/DTD/svg11.dtd">
<!-- Generated by graphviz version 2.38.0 (20140413.2041)
 -->
<!-- Title: Vector3R.h Pages: 1 -->
<svg width="660pt" height="252pt"
 viewBox="0.00 0.00 659.54 252.00" xmlns="http://www.w3.org/2000/svg" xmlns:xlink="http://www.w3.org/1999/xlink">
<g id="graph0" class="graph" transform="scale(1 1) rotate(0) translate(4 248)">
<title>Vector3R.h</title>
<!-- Node1 -->
<g id="node1" class="node"><title>Node1</title>
<polygon fill="#bfbfbf" stroke="black" points="329,-224.5 329,-243.5 395,-243.5 395,-224.5 329,-224.5"/>
<text text-anchor="middle" x="362" y="-231.5" font-family="Helvetica,sans-Serif" font-size="10.00">Vector3R.h</text>
</g>
<!-- Node2 -->
<g id="node2" class="node"><title>Node2</title>
<g id="a_node2"><a xlink:href="../../d3/d6d/_evaluate_8h.html" target="_top" xlink:title="Evaluate helper template function implementation. ">
<polygon fill="none" stroke="black" points="122.5,-0.5 122.5,-19.5 185.5,-19.5 185.5,-0.5 122.5,-0.5"/>
<text text-anchor="middle" x="154" y="-7.5" font-family="Helvetica,sans-Serif" font-size="10.00">Evaluate.h</text>
</a>
</g>
</g>
<!-- Node1&#45;&gt;Node2 -->
<g id="edge1" class="edge"><title>Node1&#45;&gt;Node2</title>
<path fill="none" stroke="midnightblue" d="M318.732,-224.981C251.408,-209.772 124.854,-169.485 82,-76 70.2106,-50.2817 104.903,-30.3255 130.146,-19.6446"/>
<polygon fill="midnightblue" stroke="midnightblue" points="318.098,-228.425 328.613,-227.129 319.585,-221.584 318.098,-228.425"/>
</g>
<!-- Node3 -->
<g id="node3" class="node"><title>Node3</title>
<g id="a_node3"><a xlink:href="../../db/de3/_vector4_r_8h.html" target="_top" xlink:title="Vector4R.h">
<polygon fill="none" stroke="black" points="329,-168.5 329,-187.5 395,-187.5 395,-168.5 329,-168.5"/>
<text text-anchor="middle" x="362" y="-175.5" font-family="Helvetica,sans-Serif" font-size="10.00">Vector4R.h</text>
</a>
</g>
</g>
<!-- Node1&#45;&gt;Node3 -->
<g id="edge2" class="edge"><title>Node1&#45;&gt;Node3</title>
<path fill="none" stroke="midnightblue" d="M362,-213.805C362,-204.91 362,-194.78 362,-187.751"/>
<polygon fill="midnightblue" stroke="midnightblue" points="358.5,-214.083 362,-224.083 365.5,-214.083 358.5,-214.083"/>
</g>
<!-- Node4 -->
<g id="node4" class="node"><title>Node4</title>
<g id="a_node4"><a xlink:href="../../d2/db7/_g_containers_8h.html" target="_top" xlink:title="Typedef for useful container classes used in MCBooster. ">
<polygon fill="none" stroke="black" points="256,-112.5 256,-131.5 336,-131.5 336,-112.5 256,-112.5"/>
<text text-anchor="middle" x="296" y="-119.5" font-family="Helvetica,sans-Serif" font-size="10.00">GContainers.h</text>
</a>
</g>
</g>
<!-- Node1&#45;&gt;Node4 -->
<g id="edge23" class="edge"><title>Node1&#45;&gt;Node4</title>
<path fill="none" stroke="midnightblue" d="M344.358,-217.272C336.091,-209.173 326.628,-198.755 320,-188 308.64,-169.567 301.39,-144.92 298.086,-131.911"/>
<polygon fill="midnightblue" stroke="midnightblue" points="342.104,-219.957 351.785,-224.262 346.901,-214.86 342.104,-219.957"/>
</g>
<!-- Node5 -->
<g id="node5" class="node"><title>Node5</title>
<g id="a_node5"><a xlink:href="../../d8/dfd/_calculate_8h.html" target="_top" xlink:title="Calculate.h">
<polygon fill="none" stroke="black" points="91,-56.5 91,-75.5 157,-75.5 157,-56.5 91,-56.5"/>
<text text-anchor="middle" x="124" y="-63.5" font-family="Helvetica,sans-Serif" font-size="10.00">Calculate.h</text>
</a>
</g>
</g>
<!-- Node1&#45;&gt;Node5 -->
<g id="edge24" class="edge"><title>Node1&#45;&gt;Node5</title>
<path fill="none" stroke="midnightblue" d="M318.971,-223.403C270.741,-210.514 193.259,-183.085 147,-132 132.216,-115.674 126.802,-89.2373 124.926,-75.6583"/>
<polygon fill="midnightblue" stroke="midnightblue" points="318.239,-226.829 328.796,-225.936 319.987,-220.05 318.239,-226.829"/>
</g>
<!-- Node6 -->
<g id="node6" class="node"><title>Node6</title>
<g id="a_node6"><a xlink:href="../../d7/d01/_evaluate_array_8h.html" target="_top" xlink:title="Evaluate helper template function implementation. ">
<polygon fill="none" stroke="black" points="0,-0.5 0,-19.5 86,-19.5 86,-0.5 0,-0.5"/>
<text text-anchor="middle" x="43" y="-7.5" font-family="Helvetica,sans-Serif" font-size="10.00">EvaluateArray.h</text>
</a>
</g>
</g>
<!-- Node1&#45;&gt;Node6 -->
<g id="edge25" class="edge"><title>Node1&#45;&gt;Node6</title>
<path fill="none" stroke="midnightblue" d="M318.475,-227.533C282.168,-221.635 229.942,-209.971 189,-188 123.273,-152.727 104.651,-138.544 64,-76 52.2378,-57.9031 46.5859,-32.6846 44.3012,-19.6173"/>
<polygon fill="midnightblue" stroke="midnightblue" points="318.319,-231.05 328.736,-229.115 319.386,-224.132 318.319,-231.05"/>
</g>
<!-- Node7 -->
<g id="node7" class="node"><title>Node7</title>
<g id="a_node7"><a xlink:href="../../de/d2f/_decay_mother_8h.html" target="_top" xlink:title="DecayMother.h">
<polygon fill="none" stroke="black" points="449.5,-56.5 449.5,-75.5 532.5,-75.5 532.5,-56.5 449.5,-56.5"/>
<text text-anchor="middle" x="491" y="-63.5" font-family="Helvetica,sans-Serif" font-size="10.00">DecayMother.h</text>
</a>
</g>
</g>
<!-- Node1&#45;&gt;Node7 -->
<g id="edge26" class="edge"><title>Node1&#45;&gt;Node7</title>
<path fill="none" stroke="midnightblue" d="M404.719,-224.17C450.796,-212.11 521.865,-185.558 554,-132 568.069,-108.552 533.908,-86.9503 510.581,-75.5174"/>
<polygon fill="midnightblue" stroke="midnightblue" points="403.859,-220.777 395.005,-226.595 405.555,-227.568 403.859,-220.777"/>
</g>
<!-- Node8 -->
<g id="node8" class="node"><title>Node8</title>
<g id="a_node8"><a xlink:href="../../d6/d3f/_generate_8h.html" target="_top" xlink:title="Implements the struct Events and the class PhaseSpace. ">
<polygon fill="none" stroke="black" points="423.5,-0.5 423.5,-19.5 488.5,-19.5 488.5,-0.5 423.5,-0.5"/>
<text text-anchor="middle" x="456" y="-7.5" font-family="Helvetica,sans-Serif" font-size="10.00">Generate.h</text>
</a>
</g>
</g>
<!-- Node1&#45;&gt;Node8 -->
<g id="edge28" class="edge"><title>Node1&#45;&gt;Node8</title>
<path fill="none" stroke="midnightblue" d="M405.191,-230.152C445.235,-225.85 505.209,-215.06 550,-188 606.614,-153.798 624.736,-137.917 648,-76 651.126,-67.6791 653.522,-62.9657 648,-56 628.486,-31.3841 538.298,-18.9365 488.78,-13.8604"/>
<polygon fill="midnightblue" stroke="midnightblue" points="404.819,-226.671 395.21,-231.134 405.505,-233.638 404.819,-226.671"/>
</g>
<!-- Node9 -->
<g id="node9" class="node"><title>Node9</title>
<g id="a_node9"><a xlink:href="../../db/d8a/_decay_mothers_8h.html" target="_top" xlink:title="DecayMothers.h">
<polygon fill="none" stroke="black" points="550.5,-56.5 550.5,-75.5 639.5,-75.5 639.5,-56.5 550.5,-56.5"/>
<text text-anchor="middle" x="595" y="-63.5" font-family="Helvetica,sans-Serif" font-size="10.00">DecayMothers.h</text>
</a>
</g>
</g>
<!-- Node1&#45;&gt;Node9 -->
<g id="edge27" class="edge"><title>Node1&#45;&gt;Node9</title>
<path fill="none" stroke="midnightblue" d="M405.353,-228.234C439.787,-222.813 487.974,-211.451 524,-188 566.254,-160.495 586.597,-98.3581 592.836,-75.5789"/>
<polygon fill="midnightblue" stroke="midnightblue" points="404.522,-224.818 395.136,-229.732 405.538,-231.744 404.522,-224.818"/>
</g>
<!-- Node11 -->
<g id="node11" class="node"><title>Node11</title>
<g id="a_node11"><a xlink:href="../../d1/de7/_g_functional_8h.html" target="_top" xlink:title="Implements the template functors IFunction and IFunctionArray. ">
<polygon fill="none" stroke="black" points="468.5,-112.5 468.5,-131.5 545.5,-131.5 545.5,-112.5 468.5,-112.5"/>
<text text-anchor="middle" x="507" y="-119.5" font-family="Helvetica,sans-Serif" font-size="10.00">GFunctional.h</text>
</a>
</g>
</g>
<!-- Node1&#45;&gt;Node11 -->
<g id="edge29" class="edge"><title>Node1&#45;&gt;Node11</title>
<path fill="none" stroke="midnightblue" d="M381.618,-218.118C412.396,-194.769 471.053,-150.27 495.675,-131.591"/>
<polygon fill="midnightblue" stroke="midnightblue" points="379.229,-215.536 373.378,-224.368 383.46,-221.113 379.229,-215.536"/>
</g>
<!-- Node3&#45;&gt;Node2 -->
<g id="edge3" class="edge"><title>Node3&#45;&gt;Node2</title>
<path fill="none" stroke="midnightblue" d="M319.072,-166.279C296.154,-159.124 268.353,-148.04 247,-132 203.573,-99.379 170.061,-41.4112 158.432,-19.6094"/>
<polygon fill="midnightblue" stroke="midnightblue" points="318.307,-169.702 328.889,-169.2 320.303,-162.993 318.307,-169.702"/>
</g>
<!-- Node3&#45;&gt;Node4 -->
<g id="edge4" class="edge"><title>Node3&#45;&gt;Node4</title>
<path fill="none" stroke="midnightblue" d="M343.446,-161.82C331.622,-152.145 316.714,-139.948 306.797,-131.834"/>
<polygon fill="midnightblue" stroke="midnightblue" points="341.44,-164.7 351.396,-168.324 345.873,-159.283 341.44,-164.7"/>
</g>
<!-- Node3&#45;&gt;Node5 -->
<g id="edge17" class="edge"><title>Node3&#45;&gt;Node5</title>
<path fill="none" stroke="midnightblue" d="M318.868,-175.37C277.761,-171.957 215.683,-161.793 171,-132 149.449,-117.631 134.403,-89.8288 127.787,-75.6989"/>
<polygon fill="midnightblue" stroke="midnightblue" points="318.614,-178.861 328.843,-176.1 319.125,-171.879 318.614,-178.861"/>
</g>
<!-- Node3&#45;&gt;Node6 -->
<g id="edge18" class="edge"><title>Node3&#45;&gt;Node6</title>
<path fill="none" stroke="midnightblue" d="M318.638,-174.311C273.678,-170.096 202.354,-159.338 147,-132 112.811,-115.115 106.566,-105.164 82,-76 66.5695,-57.6814 53.3674,-32.5565 47.0242,-19.5618"/>
<polygon fill="midnightblue" stroke="midnightblue" points="318.378,-177.801 328.644,-175.181 318.985,-170.828 318.378,-177.801"/>
</g>
<!-- Node3&#45;&gt;Node7 -->
<g id="edge19" class="edge"><title>Node3&#45;&gt;Node7</title>
<path fill="none" stroke="midnightblue" d="M376.302,-160.858C388.792,-147.168 407.734,-127.365 426,-112 442.595,-98.0405 463.466,-84.1708 477.012,-75.5976"/>
<polygon fill="midnightblue" stroke="midnightblue" points="373.513,-158.724 369.422,-168.497 378.715,-163.408 373.513,-158.724"/>
</g>
<!-- Node3&#45;&gt;Node8 -->
<g id="edge21" class="edge"><title>Node3&#45;&gt;Node8</title>
<path fill="none" stroke="midnightblue" d="M372.016,-159.312C392.057,-123.921 436.427,-45.5645 451.148,-19.5681"/>
<polygon fill="midnightblue" stroke="midnightblue" points="368.936,-157.649 367.054,-168.075 375.027,-161.098 368.936,-157.649"/>
</g>
<!-- Node3&#45;&gt;Node9 -->
<g id="edge20" class="edge"><title>Node3&#45;&gt;Node9</title>
<path fill="none" stroke="midnightblue" d="M382.141,-162.559C405.715,-145.828 443.499,-119.583 459,-112 492.175,-95.7711 532.625,-83.2282 560.746,-75.5558"/>
<polygon fill="midnightblue" stroke="midnightblue" points="379.991,-159.794 373.879,-168.447 384.054,-165.494 379.991,-159.794"/>
</g>
<!-- Node3&#45;&gt;Node11 -->
<g id="edge22" class="edge"><title>Node3&#45;&gt;Node11</title>
<path fill="none" stroke="midnightblue" d="M394.475,-164.906C421.736,-154.754 459.992,-140.506 484.132,-131.516"/>
<polygon fill="midnightblue" stroke="midnightblue" points="393.125,-161.674 384.976,-168.444 395.568,-168.233 393.125,-161.674"/>
</g>
<!-- Node4&#45;&gt;Node2 -->
<g id="edge5" class="edge"><title>Node4&#45;&gt;Node2</title>
<path fill="none" stroke="midnightblue" d="M283.124,-103.856C271.989,-89.8155 254.901,-70.0451 237,-56 217.398,-40.6206 191.813,-27.64 174.26,-19.6314"/>
<polygon fill="midnightblue" stroke="midnightblue" points="280.644,-106.37 289.531,-112.138 286.18,-102.087 280.644,-106.37"/>
</g>
<!-- Node4&#45;&gt;Node5 -->
<g id="edge6" class="edge"><title>Node4&#45;&gt;Node5</title>
<path fill="none" stroke="midnightblue" d="M259.168,-109.436C226.738,-99.2551 180.263,-84.664 151.126,-75.5164"/>
<polygon fill="midnightblue" stroke="midnightblue" points="258.157,-112.787 268.746,-112.444 260.254,-106.109 258.157,-112.787"/>
</g>
<!-- Node4&#45;&gt;Node6 -->
<g id="edge9" class="edge"><title>Node4&#45;&gt;Node6</title>
<path fill="none" stroke="midnightblue" d="M271.176,-107.535C245.303,-93.7526 203.393,-72.1272 166,-56 133.22,-41.8621 94.3843,-28.1401 69.2501,-19.6413"/>
<polygon fill="midnightblue" stroke="midnightblue" points="269.796,-110.766 280.263,-112.405 273.103,-104.597 269.796,-110.766"/>
</g>
<!-- Node4&#45;&gt;Node7 -->
<g id="edge10" class="edge"><title>Node4&#45;&gt;Node7</title>
<path fill="none" stroke="midnightblue" d="M336.81,-109.699C373.613,-99.507 426.929,-84.7429 460.246,-75.5164"/>
<polygon fill="midnightblue" stroke="midnightblue" points="335.602,-106.402 326.898,-112.444 337.47,-113.148 335.602,-106.402"/>
</g>
<!-- Node4&#45;&gt;Node8 -->
<g id="edge16" class="edge"><title>Node4&#45;&gt;Node8</title>
<path fill="none" stroke="midnightblue" d="M317.665,-106.904C331.079,-98.1172 348.619,-86.5189 364,-76 393.056,-56.1281 426.736,-32.0661 444.172,-19.5306"/>
<polygon fill="midnightblue" stroke="midnightblue" points="315.572,-104.091 309.115,-112.491 319.401,-109.951 315.572,-104.091"/>
</g>
<!-- Node4&#45;&gt;Node9 -->
<g id="edge12" class="edge"><title>Node4&#45;&gt;Node9</title>
<path fill="none" stroke="midnightblue" d="M345.894,-111.989C402.967,-101.682 495.572,-84.9568 550.352,-75.0636"/>
<polygon fill="midnightblue" stroke="midnightblue" points="345.233,-108.552 336.014,-113.773 346.477,-115.44 345.233,-108.552"/>
</g>
<!-- Node10 -->
<g id="node10" class="node"><title>Node10</title>
<g id="a_node10"><a xlink:href="../../d0/d86/_rand_gen_8h.html" target="_top" xlink:title="RandGen.h">
<polygon fill="none" stroke="black" points="289,-56.5 289,-75.5 355,-75.5 355,-56.5 289,-56.5"/>
<text text-anchor="middle" x="322" y="-63.5" font-family="Helvetica,sans-Serif" font-size="10.00">RandGen.h</text>
</a>
</g>
</g>
<!-- Node4&#45;&gt;Node10 -->
<g id="edge14" class="edge"><title>Node4&#45;&gt;Node10</title>
<path fill="none" stroke="midnightblue" d="M304.675,-102.983C309.088,-93.8168 314.252,-83.0922 317.787,-75.7511"/>
<polygon fill="midnightblue" stroke="midnightblue" points="301.478,-101.555 300.293,-112.083 307.785,-104.591 301.478,-101.555"/>
</g>
<!-- Node5&#45;&gt;Node2 -->
<g id="edge7" class="edge"><title>Node5&#45;&gt;Node2</title>
<path fill="none" stroke="midnightblue" d="M133.847,-47.2747C138.975,-38.0454 145.016,-27.1703 149.138,-19.7511"/>
<polygon fill="midnightblue" stroke="midnightblue" points="130.751,-45.6416 128.954,-56.083 136.87,-49.0412 130.751,-45.6416"/>
</g>
<!-- Node5&#45;&gt;Node6 -->
<g id="edge8" class="edge"><title>Node5&#45;&gt;Node6</title>
<path fill="none" stroke="midnightblue" d="M102.433,-50.6221C87.636,-40.7574 68.4878,-27.9919 55.9818,-19.6545"/>
<polygon fill="midnightblue" stroke="midnightblue" points="100.724,-53.6891 110.986,-56.324 104.607,-47.8647 100.724,-53.6891"/>
</g>
<!-- Node7&#45;&gt;Node8 -->
<g id="edge11" class="edge"><title>Node7&#45;&gt;Node8</title>
<path fill="none" stroke="midnightblue" d="M479.7,-47.5656C473.678,-38.2747 466.531,-27.2484 461.672,-19.7511"/>
<polygon fill="midnightblue" stroke="midnightblue" points="476.844,-49.5951 485.22,-56.083 482.719,-45.7878 476.844,-49.5951"/>
</g>
<!-- Node9&#45;&gt;Node8 -->
<g id="edge13" class="edge"><title>Node9&#45;&gt;Node8</title>
<path fill="none" stroke="midnightblue" d="M563.524,-52.772C537.415,-42.6287 500.961,-28.4669 477.922,-19.5164"/>
<polygon fill="midnightblue" stroke="midnightblue" points="562.386,-56.0847 572.975,-56.4435 564.921,-49.5598 562.386,-56.0847"/>
</g>
<!-- Node10&#45;&gt;Node8 -->
<g id="edge15" class="edge"><title>Node10&#45;&gt;Node8</title>
<path fill="none" stroke="midnightblue" d="M352.677,-52.6377C377.823,-42.504 412.754,-28.4274 434.867,-19.5164"/>
<polygon fill="midnightblue" stroke="midnightblue" points="351.2,-49.4594 343.233,-56.4435 353.816,-55.952 351.2,-49.4594"/>
</g>
</g>
</svg>
