<?xml version="1.0" encoding="UTF-8" standalone="no"?>
<!DOCTYPE svg PUBLIC "-//W3C//DTD SVG 1.1//EN"
 "http://www.w3.org/Graphics/SVG/1.1/DTD/svg11.dtd">
<!-- Generated by graphviz version 2.38.0 (20140413.2041)
 -->
<!-- Title: RandGen.h Pages: 1 -->
<svg width="794pt" height="319pt"
 viewBox="0.00 0.00 794.07 319.00" xmlns="http://www.w3.org/2000/svg" xmlns:xlink="http://www.w3.org/1999/xlink">
<g id="graph0" class="graph" transform="scale(1 1) rotate(0) translate(4 315)">
<title>RandGen.h</title>
<!-- Node1 -->
<g id="node1" class="node"><title>Node1</title>
<polygon fill="#bfbfbf" stroke="black" points="503.573,-291.5 503.573,-310.5 569.573,-310.5 569.573,-291.5 503.573,-291.5"/>
<text text-anchor="middle" x="536.573" y="-298.5" font-family="Helvetica,sans-Serif" font-size="10.00">RandGen.h</text>
</g>
<!-- Node2 -->
<g id="node2" class="node"><title>Node2</title>
<g id="a_node2"><a xlink:href="../../d4/d71/_config_8h.html" target="_top" xlink:title="mcbooster/Config.h">
<polygon fill="none" stroke="black" points="14.5735,-67.5 14.5735,-86.5 116.573,-86.5 116.573,-67.5 14.5735,-67.5"/>
<text text-anchor="middle" x="65.5735" y="-74.5" font-family="Helvetica,sans-Serif" font-size="10.00">mcbooster/Config.h</text>
</a>
</g>
</g>
<!-- Node1&#45;&gt;Node2 -->
<g id="edge1" class="edge"><title>Node1&#45;&gt;Node2</title>
<path fill="none" stroke="midnightblue" d="M503.245,-298.958C397.134,-294.872 70.3929,-276.13 6.57346,-199 -2.87062,-187.586 -2.63989,-153.331 13.5735,-123 20.169,-110.661 31.6226,-100.189 42.1045,-92.4607"/>
<polygon fill="midnightblue" stroke="midnightblue" points="44.3086,-95.1923 50.5528,-86.6331 40.3338,-89.4302 44.3086,-95.1923"/>
</g>
<!-- Node4 -->
<g id="node4" class="node"><title>Node4</title>
<polygon fill="none" stroke="#bfbfbf" points="701.073,-235.5 701.073,-254.5 786.073,-254.5 786.073,-235.5 701.073,-235.5"/>
<text text-anchor="middle" x="743.573" y="-242.5" font-family="Helvetica,sans-Serif" font-size="10.00">thrust/random.h</text>
</g>
<!-- Node1&#45;&gt;Node4 -->
<g id="edge3" class="edge"><title>Node1&#45;&gt;Node4</title>
<path fill="none" stroke="midnightblue" d="M569.373,-291.444C604.954,-282.162 661.888,-267.309 700.92,-257.127"/>
<polygon fill="midnightblue" stroke="midnightblue" points="702.134,-260.427 710.927,-254.516 700.367,-253.654 702.134,-260.427"/>
</g>
<!-- Node5 -->
<g id="node5" class="node"><title>Node5</title>
<g id="a_node5"><a xlink:href="../../dc/d9d/_g_types_8h.html" target="_top" xlink:title="mcbooster/GTypes.h">
<polygon fill="none" stroke="black" points="500.573,-67.5 500.573,-86.5 608.573,-86.5 608.573,-67.5 500.573,-67.5"/>
<text text-anchor="middle" x="554.573" y="-74.5" font-family="Helvetica,sans-Serif" font-size="10.00">mcbooster/GTypes.h</text>
</a>
</g>
</g>
<!-- Node1&#45;&gt;Node5 -->
<g id="edge4" class="edge"><title>Node1&#45;&gt;Node5</title>
<path fill="none" stroke="midnightblue" d="M553.812,-291.419C581.01,-276.783 632.909,-244.138 653.573,-199 674.005,-154.371 616.169,-112.414 580.447,-91.6246"/>
<polygon fill="midnightblue" stroke="midnightblue" points="581.903,-88.4277 571.472,-86.5715 578.469,-94.5274 581.903,-88.4277"/>
</g>
<!-- Node6 -->
<g id="node6" class="node"><title>Node6</title>
<g id="a_node6"><a xlink:href="../../d2/db7/_g_containers_8h.html" target="_top" xlink:title="Typedef for useful container classes used in MCBooster. ">
<polygon fill="none" stroke="black" points="336.573,-235.5 336.573,-254.5 464.573,-254.5 464.573,-235.5 336.573,-235.5"/>
<text text-anchor="middle" x="400.573" y="-242.5" font-family="Helvetica,sans-Serif" font-size="10.00">mcbooster/GContainers.h</text>
</a>
</g>
</g>
<!-- Node1&#45;&gt;Node6 -->
<g id="edge5" class="edge"><title>Node1&#45;&gt;Node6</title>
<path fill="none" stroke="midnightblue" d="M515.024,-291.444C492.542,-282.517 457.086,-268.439 431.594,-258.317"/>
<polygon fill="midnightblue" stroke="midnightblue" points="432.608,-254.954 422.022,-254.516 430.025,-261.46 432.608,-254.954"/>
</g>
<!-- Node3 -->
<g id="node3" class="node"><title>Node3</title>
<polygon fill="none" stroke="#bfbfbf" points="17.0735,-0.5 17.0735,-30.5 114.073,-30.5 114.073,-0.5 17.0735,-0.5"/>
<text text-anchor="start" x="25.0735" y="-18.5" font-family="Helvetica,sans-Serif" font-size="10.00">thrust/detail/config</text>
<text text-anchor="middle" x="65.5735" y="-7.5" font-family="Helvetica,sans-Serif" font-size="10.00">/host_device.h</text>
</g>
<!-- Node2&#45;&gt;Node3 -->
<g id="edge2" class="edge"><title>Node2&#45;&gt;Node3</title>
<path fill="none" stroke="midnightblue" d="M65.5735,-67.4751C65.5735,-60.471 65.5735,-50.1919 65.5735,-40.6956"/>
<polygon fill="midnightblue" stroke="midnightblue" points="69.0736,-40.5229 65.5735,-30.523 62.0736,-40.523 69.0736,-40.5229"/>
</g>
<!-- Node6&#45;&gt;Node2 -->
<g id="edge6" class="edge"><title>Node6&#45;&gt;Node2</title>
<path fill="none" stroke="midnightblue" d="M336.553,-241.005C233.503,-235.522 40.2322,-222.242 19.5735,-199 -7.79098,-168.213 27.6057,-119.488 49.9231,-94.2909"/>
<polygon fill="midnightblue" stroke="midnightblue" points="52.6991,-96.4424 56.8806,-86.7076 47.5411,-91.71 52.6991,-96.4424"/>
</g>
<!-- Node6&#45;&gt;Node5 -->
<g id="edge21" class="edge"><title>Node6&#45;&gt;Node5</title>
<path fill="none" stroke="midnightblue" d="M464.829,-241.951C496.497,-237.301 532.177,-225.844 552.573,-199 575.262,-169.139 567.283,-122.092 560.373,-96.3439"/>
<polygon fill="midnightblue" stroke="midnightblue" points="563.727,-95.346 557.569,-86.7249 557.007,-97.3049 563.727,-95.346"/>
</g>
<!-- Node7 -->
<g id="node7" class="node"><title>Node7</title>
<g id="a_node7"><a xlink:href="../../d4/d41/_vector3_r_8h.html" target="_top" xlink:title="mcbooster/Vector3R.h">
<polygon fill="none" stroke="black" points="254.073,-123.5 254.073,-142.5 369.073,-142.5 369.073,-123.5 254.073,-123.5"/>
<text text-anchor="middle" x="311.573" y="-130.5" font-family="Helvetica,sans-Serif" font-size="10.00">mcbooster/Vector3R.h</text>
</a>
</g>
</g>
<!-- Node6&#45;&gt;Node7 -->
<g id="edge7" class="edge"><title>Node6&#45;&gt;Node7</title>
<path fill="none" stroke="midnightblue" d="M399.768,-235.148C398.158,-221.775 393.504,-196.162 380.573,-179 370.365,-165.45 354.801,-154.795 341.038,-147.262"/>
<polygon fill="midnightblue" stroke="midnightblue" points="342.377,-144.015 331.884,-142.548 339.172,-150.238 342.377,-144.015"/>
</g>
<!-- Node11 -->
<g id="node11" class="node"><title>Node11</title>
<g id="a_node11"><a xlink:href="../../db/de3/_vector4_r_8h.html" target="_top" xlink:title="mcbooster/Vector4R.h">
<polygon fill="none" stroke="black" points="429.073,-179.5 429.073,-198.5 544.073,-198.5 544.073,-179.5 429.073,-179.5"/>
<text text-anchor="middle" x="486.573" y="-186.5" font-family="Helvetica,sans-Serif" font-size="10.00">mcbooster/Vector4R.h</text>
</a>
</g>
</g>
<!-- Node6&#45;&gt;Node11 -->
<g id="edge13" class="edge"><title>Node6&#45;&gt;Node11</title>
<path fill="none" stroke="midnightblue" d="M414.391,-235.324C427.806,-226.9 448.398,-213.971 464.159,-204.074"/>
<polygon fill="midnightblue" stroke="midnightblue" points="466.183,-206.936 472.79,-198.655 462.46,-201.008 466.183,-206.936"/>
</g>
<!-- Node13 -->
<g id="node13" class="node"><title>Node13</title>
<polygon fill="none" stroke="#bfbfbf" points="600.573,-179.5 600.573,-198.5 644.573,-198.5 644.573,-179.5 600.573,-179.5"/>
<text text-anchor="middle" x="622.573" y="-186.5" font-family="Helvetica,sans-Serif" font-size="10.00">vector</text>
</g>
<!-- Node6&#45;&gt;Node13 -->
<g id="edge20" class="edge"><title>Node6&#45;&gt;Node13</title>
<path fill="none" stroke="midnightblue" d="M436.251,-235.454C473.708,-226.461 534.309,-211.855 586.573,-199 587.84,-198.688 589.132,-198.37 590.437,-198.047"/>
<polygon fill="midnightblue" stroke="midnightblue" points="591.635,-201.356 600.495,-195.548 589.946,-194.563 591.635,-201.356"/>
</g>
<!-- Node14 -->
<g id="node14" class="node"><title>Node14</title>
<polygon fill="none" stroke="#bfbfbf" points="29.0735,-179.5 29.0735,-198.5 142.073,-198.5 142.073,-179.5 29.0735,-179.5"/>
<text text-anchor="middle" x="85.5735" y="-186.5" font-family="Helvetica,sans-Serif" font-size="10.00">thrust/device_vector.h</text>
</g>
<!-- Node6&#45;&gt;Node14 -->
<g id="edge22" class="edge"><title>Node6&#45;&gt;Node14</title>
<path fill="none" stroke="midnightblue" d="M350.661,-235.444C294.903,-225.885 204.687,-210.419 145.247,-200.23"/>
<polygon fill="midnightblue" stroke="midnightblue" points="145.7,-196.756 135.253,-198.516 144.517,-203.656 145.7,-196.756"/>
</g>
<!-- Node15 -->
<g id="node15" class="node"><title>Node15</title>
<polygon fill="none" stroke="#bfbfbf" points="160.573,-179.5 160.573,-198.5 264.573,-198.5 264.573,-179.5 160.573,-179.5"/>
<text text-anchor="middle" x="212.573" y="-186.5" font-family="Helvetica,sans-Serif" font-size="10.00">thrust/host_vector.h</text>
</g>
<!-- Node6&#45;&gt;Node15 -->
<g id="edge23" class="edge"><title>Node6&#45;&gt;Node15</title>
<path fill="none" stroke="midnightblue" d="M370.784,-235.444C338.744,-226.241 287.64,-211.562 252.22,-201.388"/>
<polygon fill="midnightblue" stroke="midnightblue" points="252.801,-197.913 242.223,-198.516 250.868,-204.641 252.801,-197.913"/>
</g>
<!-- Node16 -->
<g id="node16" class="node"><title>Node16</title>
<polygon fill="none" stroke="#bfbfbf" points="283.073,-179.5 283.073,-198.5 372.073,-198.5 372.073,-179.5 283.073,-179.5"/>
<text text-anchor="middle" x="327.573" y="-186.5" font-family="Helvetica,sans-Serif" font-size="10.00">thrust/complex.h</text>
</g>
<!-- Node6&#45;&gt;Node16 -->
<g id="edge24" class="edge"><title>Node6&#45;&gt;Node16</title>
<path fill="none" stroke="midnightblue" d="M388.845,-235.324C377.736,-227.107 360.831,-214.602 347.59,-204.807"/>
<polygon fill="midnightblue" stroke="midnightblue" points="349.637,-201.967 339.516,-198.834 345.474,-207.595 349.637,-201.967"/>
</g>
<!-- Node7&#45;&gt;Node2 -->
<g id="edge8" class="edge"><title>Node7&#45;&gt;Node2</title>
<path fill="none" stroke="midnightblue" d="M272.594,-123.444C229.68,-114.023 160.628,-98.8656 114.205,-88.6752"/>
<polygon fill="midnightblue" stroke="midnightblue" points="114.888,-85.242 104.371,-86.5164 113.388,-92.0792 114.888,-85.242"/>
</g>
<!-- Node7&#45;&gt;Node5 -->
<g id="edge9" class="edge"><title>Node7&#45;&gt;Node5</title>
<path fill="none" stroke="midnightblue" d="M350.078,-123.444C392.379,-114.043 460.392,-98.9291 506.247,-88.7393"/>
<polygon fill="midnightblue" stroke="midnightblue" points="507.247,-92.1025 516.25,-86.5164 505.728,-85.2692 507.247,-92.1025"/>
</g>
<!-- Node8 -->
<g id="node8" class="node"><title>Node8</title>
<polygon fill="none" stroke="#bfbfbf" points="280.073,-67.5 280.073,-86.5 325.073,-86.5 325.073,-67.5 280.073,-67.5"/>
<text text-anchor="middle" x="302.573" y="-74.5" font-family="Helvetica,sans-Serif" font-size="10.00">iosfwd</text>
</g>
<!-- Node7&#45;&gt;Node8 -->
<g id="edge10" class="edge"><title>Node7&#45;&gt;Node8</title>
<path fill="none" stroke="midnightblue" d="M310.087,-123.083C308.895,-115.927 307.179,-105.635 305.689,-96.6911"/>
<polygon fill="midnightblue" stroke="midnightblue" points="309.128,-96.0396 304.032,-86.7511 302.224,-97.1904 309.128,-96.0396"/>
</g>
<!-- Node9 -->
<g id="node9" class="node"><title>Node9</title>
<polygon fill="none" stroke="#bfbfbf" points="408.573,-67.5 408.573,-86.5 462.573,-86.5 462.573,-67.5 408.573,-67.5"/>
<text text-anchor="middle" x="435.573" y="-74.5" font-family="Helvetica,sans-Serif" font-size="10.00">iostream</text>
</g>
<!-- Node7&#45;&gt;Node9 -->
<g id="edge11" class="edge"><title>Node7&#45;&gt;Node9</title>
<path fill="none" stroke="midnightblue" d="M331.222,-123.444C351.538,-114.596 383.476,-100.687 406.671,-90.5865"/>
<polygon fill="midnightblue" stroke="midnightblue" points="408.246,-93.7181 416.017,-86.5164 405.451,-87.3002 408.246,-93.7181"/>
</g>
<!-- Node10 -->
<g id="node10" class="node"><title>Node10</title>
<polygon fill="none" stroke="#bfbfbf" points="343.073,-67.5 343.073,-86.5 390.073,-86.5 390.073,-67.5 343.073,-67.5"/>
<text text-anchor="middle" x="366.573" y="-74.5" font-family="Helvetica,sans-Serif" font-size="10.00">math.h</text>
</g>
<!-- Node7&#45;&gt;Node10 -->
<g id="edge12" class="edge"><title>Node7&#45;&gt;Node10</title>
<path fill="none" stroke="midnightblue" d="M320.656,-123.083C328.745,-115.141 340.769,-103.335 350.484,-93.7973"/>
<polygon fill="midnightblue" stroke="midnightblue" points="352.977,-96.2545 357.66,-86.7511 348.073,-91.2595 352.977,-96.2545"/>
</g>
<!-- Node11&#45;&gt;Node2 -->
<g id="edge14" class="edge"><title>Node11&#45;&gt;Node2</title>
<path fill="none" stroke="midnightblue" d="M428.764,-179.988C379.356,-172.492 306.625,-159.912 244.573,-143 190.863,-128.361 130.37,-104.86 95.2516,-90.4868"/>
<polygon fill="midnightblue" stroke="midnightblue" points="96.2035,-87.0933 85.6245,-86.5146 93.5336,-93.5642 96.2035,-87.0933"/>
</g>
<!-- Node11&#45;&gt;Node5 -->
<g id="edge15" class="edge"><title>Node11&#45;&gt;Node5</title>
<path fill="none" stroke="midnightblue" d="M492.477,-179.472C498.64,-170.493 508.513,-155.9 516.573,-143 526.509,-127.099 537.241,-108.611 544.757,-95.4267"/>
<polygon fill="midnightblue" stroke="midnightblue" points="547.925,-96.9346 549.811,-86.509 541.835,-93.4829 547.925,-96.9346"/>
</g>
<!-- Node11&#45;&gt;Node7 -->
<g id="edge19" class="edge"><title>Node11&#45;&gt;Node7</title>
<path fill="none" stroke="midnightblue" d="M458.844,-179.444C429.148,-170.28 381.857,-155.688 348.904,-145.519"/>
<polygon fill="midnightblue" stroke="midnightblue" points="349.76,-142.121 339.173,-142.516 347.696,-148.809 349.76,-142.121"/>
</g>
<!-- Node11&#45;&gt;Node9 -->
<g id="edge17" class="edge"><title>Node11&#45;&gt;Node9</title>
<path fill="none" stroke="midnightblue" d="M478.999,-179.258C471.82,-170.577 461.179,-156.63 454.573,-143 447.363,-128.122 442.341,-109.976 439.279,-96.6413"/>
<polygon fill="midnightblue" stroke="midnightblue" points="442.677,-95.7959 437.163,-86.7495 435.832,-97.2605 442.677,-95.7959"/>
</g>
<!-- Node11&#45;&gt;Node10 -->
<g id="edge16" class="edge"><title>Node11&#45;&gt;Node10</title>
<path fill="none" stroke="midnightblue" d="M477.157,-179.368C456.916,-160.814 409.024,-116.913 383.414,-93.4376"/>
<polygon fill="midnightblue" stroke="midnightblue" points="385.683,-90.7686 375.946,-86.5914 380.952,-95.9287 385.683,-90.7686"/>
</g>
<!-- Node12 -->
<g id="node12" class="node"><title>Node12</title>
<polygon fill="none" stroke="#bfbfbf" points="463.573,-123.5 463.573,-142.5 507.573,-142.5 507.573,-123.5 463.573,-123.5"/>
<text text-anchor="middle" x="485.573" y="-130.5" font-family="Helvetica,sans-Serif" font-size="10.00">cmath</text>
</g>
<!-- Node11&#45;&gt;Node12 -->
<g id="edge18" class="edge"><title>Node11&#45;&gt;Node12</title>
<path fill="none" stroke="midnightblue" d="M486.408,-179.083C486.277,-172.006 486.089,-161.861 485.925,-152.986"/>
<polygon fill="midnightblue" stroke="midnightblue" points="489.42,-152.685 485.736,-142.751 482.421,-152.814 489.42,-152.685"/>
</g>
</g>
</svg>
